<?xml version="1.0" encoding="utf-8"?>
<!-- Generator: Adobe Illustrator 23.0.3, SVG Export Plug-In . SVG Version: 6.00 Build 0)  -->
<svg version="1.1" id="レイヤー_1" xmlns="http://www.w3.org/2000/svg" xmlns:xlink="http://www.w3.org/1999/xlink" x="0px"
	 y="0px" viewBox="0 0 100 78.8" style="enable-background:new 0 0 100 78.8;" xml:space="preserve">
<style type="text/css">
	.st0{opacity:5.000000e-02;fill:#1C3ED3;enable-background:new    ;}
	.st1{fill:#FFFFFF;stroke:#1C3ED3;stroke-width:0.5;stroke-miterlimit:10;}
	.st2{fill:#1C3ED3;}
	.st3{fill:none;stroke:#1C3ED3;stroke-width:0.62;stroke-miterlimit:10;}
	.st4{fill:none;stroke:#1C3ED3;stroke-width:0.62;stroke-miterlimit:10;stroke-dasharray:0.9814,0.9814;}
	.st5{fill:none;stroke:#1C3ED3;stroke-width:0.62;stroke-miterlimit:10;stroke-dasharray:1.1108,1.1108;}
	.st6{fill:none;stroke:#1C3ED3;stroke-width:0.62;stroke-miterlimit:10;stroke-dasharray:1.0281,1.0281;}
	.st7{fill:none;stroke:#FFFFFF;stroke-width:0.5;stroke-linecap:round;stroke-linejoin:round;stroke-miterlimit:10;}
	.st8{fill:#FFFFFF;}
</style>
<circle class="st0" cx="50" cy="37.1" r="33.4"/>
<g>
	<path class="st1" d="M40.2,57.3c0,1.1-0.9,1.9-1.9,1.9h-7.4c-1.1,0-1.9-0.9-1.9-1.9V39.4c0-1.1,0.9-1.9,1.9-1.9h7.4
		c1.1,0,1.9,0.9,1.9,1.9V57.3z"/>
	<path class="st1" d="M39.3,57c0,0.7-0.6,1.3-1.3,1.3h-6.6c-0.7,0-1.3-0.6-1.3-1.3L30,39.5c0-0.7,0.6-1.3,1.3-1.3h6.6
		c0.7,0,1.3,0.6,1.3,1.3L39.3,57z"/>
	<path class="st2" d="M37,38.4L37,38.4c0,0.3-0.2,0.5-0.5,0.5h-3.9c-0.3,0-0.5-0.2-0.5-0.5l0,0"/>
</g>
<g>
	<path class="st1" d="M55.1,57.3c0,1.1-0.9,1.9-1.9,1.9h-7.4c-1.1,0-1.9-0.9-1.9-1.9l-0.1-17.9c0-1.1,0.9-1.9,1.9-1.9h7.4
		c1.1,0,1.9,0.9,1.9,1.9L55.1,57.3z"/>
	<path class="st1" d="M54.1,57c0,0.7-0.6,1.3-1.3,1.3h-6.6c-0.7,0-1.3-0.6-1.3-1.3l-0.1-17.5c0-0.7,0.6-1.3,1.3-1.3h6.6
		c0.7,0,1.3,0.6,1.3,1.3L54.1,57z"/>
	<path class="st2" d="M51.9,38.4L51.9,38.4c0,0.3-0.2,0.5-0.5,0.5h-3.9c-0.3,0-0.5-0.2-0.5-0.5l0,0"/>
</g>
<g>
	<path class="st1" d="M70,57.3c0,1.1-0.9,1.9-1.9,1.9h-7.4c-1.1,0-1.9-0.9-1.9-1.9l-0.1-17.9c0-1.1,0.9-1.9,1.9-1.9H68
		c1.1,0,1.9,0.9,1.9,1.9L70,57.3z"/>
	<path class="st1" d="M69,57c0,0.7-0.6,1.3-1.3,1.3h-6.6c-0.7,0-1.3-0.6-1.3-1.3l-0.1-17.5c0-0.7,0.6-1.3,1.3-1.3h6.6
		c0.7,0,1.3,0.6,1.3,1.3L69,57z"/>
	<path class="st2" d="M66.7,38.4L66.7,38.4c0,0.3-0.2,0.5-0.5,0.5h-3.9c-0.3,0-0.5-0.2-0.5-0.5l0,0"/>
</g>
<path class="st3" d="M58.3,18c0-0.1,0-0.3,0-0.4c0-2.8-2.3-5.1-5.1-5.1c-0.9,0-1.7,0.2-2.4,0.6C50,10.9,48,9.4,45.5,9.4
	c-3.1,0-5.6,2.5-5.6,5.6c0,0.6,0.1,1.1,0.3,1.7c-2.1,0.8-3.7,2.9-3.7,5.4c0,3.2,2.6,5.8,5.8,5.8h14.9c0.2,0,0.3,0,0.5,0
	c2.7,0,4.9-2.2,4.9-4.9C62.6,20.4,60.7,18.3,58.3,18z"/>
<g>
	<g>
		<line class="st3" x1="49.5" y1="42.2" x2="49.5" y2="41.7"/>
		<line class="st4" x1="49.5" y1="40.7" x2="49.5" y2="21.6"/>
		<line class="st3" x1="49.5" y1="21.1" x2="49.5" y2="20.6"/>
		<g>
			<path class="st2" d="M50.4,42.1c0,0.5-0.4,0.9-0.9,0.9s-0.9-0.4-0.9-0.9s0.4-0.9,0.9-0.9C50,41.2,50.4,41.6,50.4,42.1z"/>
		</g>
		<g>
			<polygon class="st2" points="52,22.6 51.6,23 49.5,20.8 47.4,23 46.9,22.6 49.5,19.9 			"/>
		</g>
	</g>
</g>
<g>
	<g>
		<line class="st3" x1="33.5" y1="42.2" x2="33.5" y2="41.7"/>
		<line class="st5" x1="33.5" y1="40.6" x2="33.5" y2="34.5"/>
		<polyline class="st3" points="33.5,33.9 33.5,33.4 34,33.4 		"/>
		<line class="st6" x1="35" y1="33.4" x2="63.3" y2="33.4"/>
		<polyline class="st3" points="63.8,33.4 64.3,33.4 64.3,33.9 		"/>
		<line class="st5" x1="64.3" y1="35" x2="64.3" y2="41.1"/>
		<line class="st3" x1="64.3" y1="41.7" x2="64.3" y2="42.2"/>
		<g>
			<path class="st2" d="M34.4,42.1c0,0.5-0.4,0.9-0.9,0.9s-0.9-0.4-0.9-0.9s0.4-0.9,0.9-0.9S34.4,41.6,34.4,42.1z"/>
		</g>
		<g>
			<path class="st2" d="M63.4,42.1c0,0.5,0.4,0.9,0.9,0.9s0.9-0.4,0.9-0.9s-0.4-0.9-0.9-0.9C63.8,41.2,63.4,41.6,63.4,42.1z"/>
		</g>
	</g>
</g>
<circle class="st2" cx="30" cy="45.7" r="2.6"/>
<circle class="st2" cx="44.8" cy="45.7" r="2.6"/>
<circle class="st2" cx="60" cy="45.7" r="2.6"/>
<line class="st7" x1="43.9" y1="44.6" x2="46" y2="46.8"/>
<line class="st7" x1="43.9" y1="46.8" x2="46" y2="44.6"/>
<path class="st8" d="M60,45.1c0-0.1-0.5-0.4-0.5-0.4c-0.3-0.1-0.7,0-0.9,0.2c-0.2,0.3-0.1,0.7,0,1c0.2,0.4,0.6,0.7,1.4,1.2l0,0
	c0,0,0,0,0,0c0.5-0.4,1.1-0.8,1.4-1.3c0.3-0.5,0.1-1.3-0.6-1.3C60.4,44.6,60.1,44.8,60,45.1z"/>
<path class="st8" d="M30,45.1c0-0.1-0.5-0.4-0.5-0.4c-0.3-0.1-0.7,0-0.9,0.2c-0.2,0.3-0.1,0.7,0,1c0.2,0.4,0.6,0.7,1.4,1.2l0,0
	c0,0,0,0,0,0c0.5-0.4,1.1-0.8,1.4-1.3c0.3-0.5,0.1-1.3-0.6-1.3C30.4,44.6,30.1,44.8,30,45.1z"/>
</svg>
