<?xml version="1.0" encoding="utf-8"?>
<!-- Generator: Adobe Illustrator 23.0.3, SVG Export Plug-In . SVG Version: 6.00 Build 0)  -->
<svg version="1.1" id="レイヤー_1" xmlns="http://www.w3.org/2000/svg" xmlns:xlink="http://www.w3.org/1999/xlink" x="0px"
	 y="0px" viewBox="0 0 1046.3 851.8" style="enable-background:new 0 0 1046.3 851.8;" xml:space="preserve">
<style type="text/css">
	.st0{opacity:0.3;fill:url(#SVGID_1_);enable-background:new    ;}
	.st1{opacity:0.4;fill:url(#SVGID_2_);enable-background:new    ;}
	.st2{opacity:5.000000e-02;fill:url(#SVGID_3_);enable-background:new    ;}
	.st3{fill:#5D4A89;}
	.st4{opacity:0.8;}
	.st5{fill:none;stroke:#5D4A89;stroke-width:0.3179;stroke-miterlimit:10;}
	.st6{fill:none;}
	.st7{opacity:0.64;fill:none;stroke:#5D4A89;stroke-width:0.3179;stroke-miterlimit:10;enable-background:new    ;}
	.st8{opacity:0.64;fill:none;stroke:#5D4A89;stroke-width:0.2378;stroke-miterlimit:10;enable-background:new    ;}
	.st9{fill:none;stroke:#5D4A89;stroke-width:0.4118;stroke-miterlimit:10;}
	.st10{opacity:0.64;fill:none;stroke:#5D4A89;stroke-width:0.4118;stroke-miterlimit:10;enable-background:new    ;}
	.st11{opacity:0.64;fill:none;stroke:#5D4A89;stroke-width:0.3081;stroke-miterlimit:10;enable-background:new    ;}
	.st12{opacity:0.1;fill:url(#SVGID_4_);enable-background:new    ;}
	.st13{opacity:0.1;fill:url(#SVGID_5_);enable-background:new    ;}
	.st14{opacity:0.4;fill:url(#SVGID_6_);enable-background:new    ;}
	.st15{opacity:0.4;fill:url(#SVGID_7_);enable-background:new    ;}
	.st16{opacity:0.4;fill:url(#SVGID_8_);enable-background:new    ;}
	.st17{opacity:0.4;fill:url(#SVGID_9_);enable-background:new    ;}
	.st18{opacity:0.6;fill:url(#SVGID_10_);enable-background:new    ;}
	.st19{opacity:0.1;fill:url(#SVGID_11_);enable-background:new    ;}
	.st20{opacity:0.4;fill:url(#SVGID_12_);enable-background:new    ;}
</style>
<g id="deails">
	
		<linearGradient id="SVGID_1_" gradientUnits="userSpaceOnUse" x1="600.3" y1="422.7" x2="673.1" y2="422.7" gradientTransform="matrix(1 0 0 -1 0 852)">
		<stop  offset="0" style="stop-color:#BC79B3"/>
		<stop  offset="1" style="stop-color:#7379BA"/>
	</linearGradient>
	<polygon class="st0" points="623.7,377.2 600.3,481.4 673.1,451.9 	"/>
	
		<linearGradient id="SVGID_2_" gradientUnits="userSpaceOnUse" x1="600.3" y1="269.75" x2="758" y2="269.75" gradientTransform="matrix(1 0 0 -1 0 852)">
		<stop  offset="0" style="stop-color:#BC79B3"/>
		<stop  offset="1" style="stop-color:#7379BA"/>
	</linearGradient>
	<polygon class="st1" points="758,674.2 600.3,481.4 614.5,683.1 	"/>
	
		<linearGradient id="SVGID_3_" gradientUnits="userSpaceOnUse" x1="806.1" y1="720.8" x2="1046.3" y2="720.8" gradientTransform="matrix(1 0 0 -1 0 852)">
		<stop  offset="0" style="stop-color:#BC79B3"/>
		<stop  offset="1" style="stop-color:#7379BA"/>
	</linearGradient>
	<polygon class="st2" points="806.1,47.4 837.6,139.6 873.8,262.4 1046.3,255.3 1046.3,0 816.7,0 	"/>
	<g>
		<circle class="st3" cx="763" cy="234.8" r="2.7"/>
		<g>
			<g class="st4">
				<circle class="st3" cx="943.5" cy="329.8" r="7.3"/>
				<circle class="st5" cx="943.5" cy="329.8" r="18.2"/>
				<circle class="st5" cx="943.5" cy="329.8" r="26.2"/>
				<circle class="st5" cx="943.5" cy="329.8" r="14.7"/>
				<circle class="st3" cx="806.1" cy="47.4" r="7.3"/>
				<circle class="st5" cx="806.1" cy="47.4" r="10.5"/>
				<polyline class="st5" points="837.6,139.6 880.8,12.4 806.1,47.4 604.1,54.5 763,234.9 837.6,139.6 873.8,262.4 1046.3,255.3 
					943.5,329.8 873.8,262.4 763,234.9 806.1,47.4 837.6,139.6 				"/>
				<polyline class="st5" points="604.1,54.5 836.7,140 894.5,98.8 806.1,47.4 				"/>
				
					<rect x="648.2" y="40.5" transform="matrix(0.7959 -0.6054 0.6054 0.7959 8.1717 550.9974)" class="st6" width="346.2" height="445.7"/>
			</g>
			<polyline class="st7" points="806.1,47.4 689.2,151.9 621.4,251.9 763,234.8 			"/>
			<line class="st7" x1="604.1" y1="54.5" x2="621.4" y2="251.9"/>
		</g>
		<circle class="st8" cx="689.6" cy="151.2" r="5.5"/>
		<circle class="st8" cx="689.6" cy="151.2" r="7.9"/>
		<circle class="st3" cx="689.6" cy="151.2" r="2.8"/>
	</g>
	<g>
		<circle class="st3" cx="523.5" cy="534.6" r="6.5"/>
		<circle class="st3" cx="758" cy="674.2" r="3.5"/>
		<g>
			<g class="st4">
				<circle class="st3" cx="998.5" cy="564.7" r="9.5"/>
				<circle class="st9" cx="998.5" cy="564.7" r="23.6"/>
				<circle class="st9" cx="998.5" cy="564.7" r="33.9"/>
				<circle class="st9" cx="998.5" cy="564.7" r="19.1"/>
				<circle class="st3" cx="600.3" cy="481.4" r="9.5"/>
				<circle class="st9" cx="600.3" cy="481.4" r="13.6"/>
				<polyline class="st9" points="719.6,522.4 623.7,377.2 600.3,481.4 447.4,694 758.2,674.3 719.6,522.4 874.2,582.7 999.9,405.2 
					998.5,564.7 874.2,582.7 758.2,674.3 600.3,481.4 719.6,522.4 				"/>
				<polyline class="st9" points="447.4,694 719.6,522.4 723,431.7 600.3,481.4 				"/>
				
					<rect x="609.3" y="348.4" transform="matrix(8.822754e-03 -1 1 8.822754e-03 189.0789 1465.0042)" class="st6" width="448.4" height="577.4"/>
			</g>
			<polyline class="st10" points="663.2,832.8 447.4,694 719.6,522.4 758,674.2 663.2,832.8 614.6,684.1 600.3,481.4 			"/>
		</g>
		<circle class="st11" cx="614.2" cy="683.1" r="7.1"/>
		<circle class="st11" cx="614.2" cy="683.1" r="10.2"/>
		<circle class="st3" cx="614.2" cy="683.1" r="3.6"/>
	</g>
	<g>
		<circle class="st3" cx="454.5" cy="200.3" r="6.5"/>
		<circle class="st3" cx="255.6" cy="387.1" r="3.5"/>
		<g>
			<g class="st4">
				<circle class="st3" cx="294.4" cy="648.6" r="9.5"/>
				<circle class="st9" cx="294.4" cy="648.6" r="23.6"/>
				<circle class="st9" cx="294.4" cy="648.6" r="33.9"/>
				<circle class="st9" cx="294.4" cy="648.6" r="19.1"/>
				<circle class="st3" cx="484.5" cy="288.9" r="9.5"/>
				<circle class="st9" cx="484.5" cy="288.9" r="13.6"/>
				<polyline class="st9" points="412.1,392.2 578.2,340.1 484.5,288.9 322.4,83.1 255.5,387.3 412.1,392.2 311.4,524.1 447.4,694 
					294.4,648.6 311.4,524.1 255.5,387.3 484.5,288.9 412.1,392.2 				"/>
				<polyline class="st9" points="322.4,83.1 412.1,392.2 498.3,420.5 484.5,288.9 				"/>
				
					<rect x="-18.3" y="245.8" transform="matrix(0.2847 -0.9586 0.9586 0.2847 -257.1494 595.3939)" class="st6" width="577.4" height="448.4"/>
			</g>
			<polyline class="st10" points="129.4,252.2 322.4,83.1 412.1,392.2 255.6,387.1 129.4,252.2 285.8,246.6 484.5,288.9 			"/>
		</g>
		<circle class="st11" cx="286.8" cy="246.5" r="7.1"/>
		<circle class="st11" cx="286.8" cy="246.5" r="10.2"/>
		<circle class="st3" cx="286.8" cy="246.5" r="3.6"/>
	</g>
	
		<linearGradient id="SVGID_4_" gradientUnits="userSpaceOnUse" x1="604.1" y1="698.8" x2="689.2" y2="698.8" gradientTransform="matrix(1 0 0 -1 0 852)">
		<stop  offset="0" style="stop-color:#BC79B3"/>
		<stop  offset="1" style="stop-color:#7379BA"/>
	</linearGradient>
	<polygon class="st12" points="604.1,54.5 621.4,251.9 689.2,151.9 	"/>
	
		<linearGradient id="SVGID_5_" gradientUnits="userSpaceOnUse" x1="689.2" y1="710.85" x2="806.1" y2="710.85" gradientTransform="matrix(1 0 0 -1 0 852)">
		<stop  offset="0" style="stop-color:#BC79B3"/>
		<stop  offset="1" style="stop-color:#7379BA"/>
	</linearGradient>
	<polygon class="st13" points="763,234.9 689.2,151.9 806.1,47.4 	"/>
	
		<linearGradient id="SVGID_6_" gradientUnits="userSpaceOnUse" x1="604.1" y1="752.35" x2="806.1" y2="752.35" gradientTransform="matrix(1 0 0 -1 0 852)">
		<stop  offset="0" style="stop-color:#BC79B3"/>
		<stop  offset="1" style="stop-color:#7379BA"/>
	</linearGradient>
	<polygon class="st14" points="689.2,151.9 806.1,47.4 604.1,54.5 	"/>
	
		<linearGradient id="SVGID_7_" gradientUnits="userSpaceOnUse" x1="621.4" y1="650.1" x2="763" y2="650.1" gradientTransform="matrix(1 0 0 -1 0 852)">
		<stop  offset="0" style="stop-color:#BC79B3"/>
		<stop  offset="1" style="stop-color:#7379BA"/>
	</linearGradient>
	<polygon class="st15" points="689.2,151.9 763,234.9 621.4,251.9 	"/>
	
		<linearGradient id="SVGID_8_" gradientUnits="userSpaceOnUse" x1="837.6" y1="743.25" x2="894.5" y2="743.25" gradientTransform="matrix(1 0 0 -1 0 852)">
		<stop  offset="0" style="stop-color:#BC79B3"/>
		<stop  offset="1" style="stop-color:#7379BA"/>
	</linearGradient>
	<polygon class="st16" points="837.6,139.6 894.5,98.8 858.5,77.9 	"/>
	
		<linearGradient id="SVGID_9_" gradientUnits="userSpaceOnUse" x1="806.1" y1="806.85" x2="880.8" y2="806.85" gradientTransform="matrix(1 0 0 -1 0 852)">
		<stop  offset="0" style="stop-color:#BC79B3"/>
		<stop  offset="1" style="stop-color:#7379BA"/>
	</linearGradient>
	<polygon class="st17" points="858.5,77.9 880.8,12.4 806.1,47.4 	"/>
	
		<linearGradient id="SVGID_10_" gradientUnits="userSpaceOnUse" x1="873.8" y1="559.45" x2="1046.3" y2="559.45" gradientTransform="matrix(1 0 0 -1 0 852)">
		<stop  offset="0" style="stop-color:#BC79B3"/>
		<stop  offset="1" style="stop-color:#7379BA"/>
	</linearGradient>
	<polygon class="st18" points="873.8,262.4 943.5,329.8 1046.3,255.3 	"/>
	
		<linearGradient id="SVGID_11_" gradientUnits="userSpaceOnUse" x1="447.4" y1="243.8" x2="758" y2="243.8" gradientTransform="matrix(1 0 0 -1 0 852)">
		<stop  offset="0" style="stop-color:#BC79B3"/>
		<stop  offset="1" style="stop-color:#7379BA"/>
	</linearGradient>
	<polygon class="st19" points="447.4,694 758,674.2 719.6,522.4 	"/>
	
		<linearGradient id="SVGID_12_" gradientUnits="userSpaceOnUse" x1="447.4" y1="379.05" x2="623.7" y2="379.05" gradientTransform="matrix(1 0 0 -1 0 852)">
		<stop  offset="0" style="stop-color:#BC79B3"/>
		<stop  offset="1" style="stop-color:#7379BA"/>
	</linearGradient>
	<polyline class="st20" points="621.4,251.9 578.2,340.1 623.7,377.2 498.3,420.5 447.4,694 	"/>
</g>
<g id="FORM">
</g>
</svg>
