<?xml version="1.0" encoding="utf-8"?>
<!-- Generator: Adobe Illustrator 23.0.3, SVG Export Plug-In . SVG Version: 6.00 Build 0)  -->
<svg version="1.1" id="レイヤー_1" xmlns="http://www.w3.org/2000/svg" xmlns:xlink="http://www.w3.org/1999/xlink" x="0px"
	 y="0px" viewBox="0 0 1046.3 851.8" style="enable-background:new 0 0 1046.3 851.8;" xml:space="preserve">
<style type="text/css">
	.st0{opacity:5.000000e-02;fill:#1C3ED3;enable-background:new    ;}
	.st1{fill:#B1C0D9;}
	.st2{fill:#C3CFE2;}
	.st3{fill:#99ADCE;}
	.st4{fill:none;stroke:#FFFFFF;stroke-miterlimit:10;}
	.st5{opacity:0.63;}
	.st6{opacity:0.4;}
	.st7{fill:#040000;}
	.st8{fill:#9CA5C1;}
	.st9{fill:#FFFFFF;}
	.st10{fill:url(#SVGID_1_);}
	.st11{fill:url(#SVGID_2_);}
	.st12{fill:url(#SVGID_3_);}
	.st13{fill:#FAFAFB;}
	.st14{fill:#271F3E;}
	.st15{fill:#CDD0E0;}
	.st16{fill:url(#SVGID_4_);}
	.st17{opacity:0.2;}
	.st18{fill:#5D4A89;}
	.st19{opacity:0.8;}
	.st20{fill:none;stroke:#5D4A89;stroke-width:0.3236;stroke-miterlimit:10;}
	.st21{fill:none;}
	.st22{opacity:0.64;fill:none;stroke:#5D4A89;stroke-width:0.3236;stroke-miterlimit:10;enable-background:new    ;}
	.st23{opacity:0.64;fill:none;stroke:#5D4A89;stroke-width:0.2421;stroke-miterlimit:10;enable-background:new    ;}
	.st24{fill:#2B2344;}
	.st25{fill:#363387;}
	.st26{fill:#CACACA;}
	.st27{opacity:0.46;fill:#5D4A89;enable-background:new    ;}
	.st28{fill:#23232E;}
	.st29{fill:url(#SVGID_5_);}
	.st30{opacity:0.15;fill:#FFFFFF;enable-background:new    ;}
	.st31{fill:none;stroke:#5D4A89;stroke-width:0.3353;stroke-miterlimit:10;}
	.st32{opacity:0.64;fill:none;stroke:#5D4A89;stroke-width:0.5069;stroke-miterlimit:10;enable-background:new    ;}
	.st33{opacity:0.1;fill:#FFFFFF;enable-background:new    ;}
	.st34{opacity:0.88;fill:none;stroke:#FFFFFF;stroke-width:0.5;stroke-miterlimit:10;enable-background:new    ;}
</style>
<g id="HOMEのコピー_2">
	<path class="st0" d="M702.1,728.3c-25.4,27.2-55.5,48.7-89.4,64c-32.7,14.8-67.6,23.1-103.8,24.8c-36.1,1.7-71.7-3.4-105.6-15
		c-35.2-12.1-67.1-30.7-94.9-55.5s-49.8-54.1-65.3-87.1c-15.1-32-23.4-66.1-25.2-101.4c-1.6-35.4,3.7-70.1,15.6-103.3
		c12.4-34.3,31.6-65.6,57.1-92.8c25.4-27.2,55.5-48.7,89.4-64c32.3-14.5,66.7-22.8,102.3-24.6c39.3-2.1,75.3-19.3,100.7-46.7
		c14-15,25-33.3,31.5-53.5c0.9-2.7,1.7-5.1,2.4-6.9c9.3-25.7,23.6-49,42.5-69.2c18.9-20.4,41.3-36.3,66.7-47.7
		c24.5-11,50.4-17.2,77.4-18.4c27-1.3,53.5,2.6,78.9,11.3c26.2,9.1,50,22.9,70.8,41.3s37.1,40.3,48.7,65.1
		c11.3,23.9,17.5,49.3,18.7,75.7c1.2,26.3-2.8,52.2-11.6,77.1c-9.3,25.7-23.6,49-42.5,69.2c-18.9,20.4-41.3,36.3-66.7,47.7
		c-7.7,3.5-15.5,6.5-23.4,8.9c-24.9,7.9-46.6,21.8-63.4,39.9c-22.6,24.2-36.7,56-38.3,90.2c-1.2,26.7-6.5,53.1-15.6,78.4
		C746.6,669.8,727.4,701,702.1,728.3z"/>
	<g>
		<g>
			<g>
				<path class="st1" d="M201.3,588.6c0,2.8-2.2,5-5,5h-144c-2.8,0-5-2.2-5-5V383.8c0-2.8,2.2-5,5-5h144c2.8,0,5,2.2,5,5V588.6z"/>
			</g>
			<g>
				<path class="st1" d="M357.9,588.6c0,2.8-2.2,5-5,5h-144c-2.8,0-5-2.2-5-5V383.8c0-2.8,2.2-5,5-5h144c2.8,0,5,2.2,5,5V588.6z"/>
			</g>
			<g>
				<path class="st2" d="M196.7,582.6c0,2.6-2.1,4.7-4.7,4.7H56.4c-2.6,0-4.7-2.1-4.7-4.7V389.8c0-2.6,2.1-4.7,4.7-4.7H192
					c2.6,0,4.7,2.1,4.7,4.7V582.6z"/>
			</g>
			<g>
				<path class="st2" d="M353.4,582.6c0,2.6-2.1,4.7-4.7,4.7H213.1c-2.6,0-4.7-2.1-4.7-4.7V389.8c0-2.6,2.1-4.7,4.7-4.7h135.6
					c2.6,0,4.7,2.1,4.7,4.7L353.4,582.6L353.4,582.6z"/>
			</g>
		</g>
		<rect x="191.7" y="393.3" class="st3" width="21.7" height="3.2"/>
		<rect x="191.7" y="402.9" class="st3" width="21.7" height="3.2"/>
		<rect x="191.7" y="412.4" class="st3" width="21.7" height="3.2"/>
		<rect x="191.7" y="422" class="st3" width="21.7" height="3.2"/>
		<rect x="191.7" y="431.6" class="st3" width="21.7" height="3.2"/>
		<rect x="191.7" y="441.2" class="st3" width="21.7" height="3.2"/>
		<rect x="191.7" y="450.7" class="st3" width="21.7" height="3.2"/>
		<rect x="191.7" y="460.3" class="st3" width="21.7" height="3.2"/>
		<rect x="191.7" y="469.9" class="st3" width="21.7" height="3.2"/>
		<rect x="191.7" y="479.4" class="st3" width="21.7" height="3.2"/>
		<rect x="191.7" y="489" class="st3" width="21.7" height="3.2"/>
		<rect x="191.7" y="498.6" class="st3" width="21.7" height="3.2"/>
		<rect x="191.7" y="508.2" class="st3" width="21.7" height="3.2"/>
		<rect x="191.7" y="517.7" class="st3" width="21.7" height="3.2"/>
		<rect x="191.7" y="527.3" class="st3" width="21.7" height="3.2"/>
		<rect x="191.7" y="536.9" class="st3" width="21.7" height="3.2"/>
		<rect x="191.7" y="546.5" class="st3" width="21.7" height="3.2"/>
		<rect x="191.7" y="556" class="st3" width="21.7" height="3.2"/>
		<rect x="191.7" y="565.6" class="st3" width="21.7" height="3.2"/>
		<rect x="191.7" y="575.2" class="st3" width="21.7" height="3.2"/>
		<g>
			<line class="st4" x1="65" y1="524.4" x2="179.2" y2="524.4"/>
			<line class="st4" x1="65" y1="532.5" x2="179.2" y2="532.5"/>
			<line class="st4" x1="65" y1="540.5" x2="179.2" y2="540.5"/>
			<line class="st4" x1="65" y1="548.5" x2="179.2" y2="548.5"/>
			<line class="st4" x1="65" y1="556.5" x2="179.2" y2="556.5"/>
			<line class="st4" x1="65" y1="564.6" x2="179.2" y2="564.6"/>
			<line class="st4" x1="65" y1="572.6" x2="179.2" y2="572.6"/>
			<line class="st4" x1="65" y1="468.3" x2="179.2" y2="468.3"/>
			<line class="st4" x1="65" y1="476.3" x2="179.2" y2="476.3"/>
			<line class="st4" x1="65" y1="484.3" x2="179.2" y2="484.3"/>
			<line class="st4" x1="65" y1="492.3" x2="179.2" y2="492.3"/>
			<line class="st4" x1="65" y1="500.4" x2="179.2" y2="500.4"/>
			<line class="st4" x1="65" y1="508.4" x2="179.2" y2="508.4"/>
			<line class="st4" x1="65" y1="516.4" x2="179.2" y2="516.4"/>
			<line class="st4" x1="65" y1="412.1" x2="179.2" y2="412.1"/>
			<line class="st4" x1="65" y1="404.1" x2="179.2" y2="404.1"/>
			<line class="st4" x1="65" y1="420.1" x2="179.2" y2="420.1"/>
			<line class="st4" x1="65" y1="428.1" x2="179.2" y2="428.1"/>
			<line class="st4" x1="65" y1="436.2" x2="179.2" y2="436.2"/>
			<line class="st4" x1="65" y1="444.2" x2="179.2" y2="444.2"/>
			<line class="st4" x1="65" y1="452.2" x2="179.2" y2="452.2"/>
			<line class="st4" x1="65" y1="460.2" x2="179.2" y2="460.2"/>
		</g>
		<g class="st5">
			<line class="st4" x1="223.8" y1="524.4" x2="338" y2="524.4"/>
			<line class="st4" x1="223.8" y1="532.5" x2="338" y2="532.5"/>
			<line class="st4" x1="223.8" y1="540.5" x2="338" y2="540.5"/>
			<line class="st4" x1="223.8" y1="548.5" x2="338" y2="548.5"/>
			<line class="st4" x1="223.8" y1="556.5" x2="338" y2="556.5"/>
			<line class="st4" x1="223.8" y1="564.6" x2="338" y2="564.6"/>
			<line class="st4" x1="223.8" y1="572.6" x2="338" y2="572.6"/>
			<line class="st4" x1="223.8" y1="468.3" x2="338" y2="468.3"/>
			<line class="st4" x1="223.8" y1="476.3" x2="338" y2="476.3"/>
			<line class="st4" x1="223.8" y1="484.3" x2="338" y2="484.3"/>
			<line class="st4" x1="223.8" y1="492.3" x2="338" y2="492.3"/>
			<line class="st4" x1="223.8" y1="500.4" x2="338" y2="500.4"/>
			<line class="st4" x1="223.8" y1="508.4" x2="338" y2="508.4"/>
			<line class="st4" x1="223.8" y1="516.4" x2="338" y2="516.4"/>
			<line class="st4" x1="223.8" y1="412.1" x2="338" y2="412.1"/>
			<line class="st4" x1="223.8" y1="404.1" x2="338" y2="404.1"/>
			<line class="st4" x1="223.8" y1="420.1" x2="338" y2="420.1"/>
			<line class="st4" x1="223.8" y1="428.1" x2="338" y2="428.1"/>
			<line class="st4" x1="223.8" y1="436.2" x2="338" y2="436.2"/>
			<line class="st4" x1="223.8" y1="444.2" x2="338" y2="444.2"/>
			<line class="st4" x1="223.8" y1="452.2" x2="338" y2="452.2"/>
			<line class="st4" x1="223.8" y1="460.2" x2="338" y2="460.2"/>
		</g>
	</g>
	<g>
		<g class="st6">
			<path class="st7" d="M807.7,537.5c0,5.5-4.5,10-10,10H406.6c-5.5,0-10-4.5-10-10v-146c0-5.5,4.5-10,10-10h391.1
				c5.5,0,10,4.5,10,10V537.5z"/>
		</g>
		<g>
			<path class="st2" d="M805.7,535.5c0,5.5-4.5,10-10,10H404.6c-5.5,0-10-4.5-10-10v-146c0-5.5,4.5-10,10-10h391.1
				c5.5,0,10,4.5,10,10V535.5z"/>
		</g>
	</g>
	<g>
		<path class="st2" d="M991.8,444.8c-52.7,0-95.6-42.9-95.6-95.6s42.9-95.6,95.6-95.6c52.7,0,95.6,42.9,95.6,95.6
			S1044.5,444.8,991.8,444.8z"/>
		<path class="st8" d="M995.5,307.9c-29.2,0-53,23.8-53,53s23.8,53,53,53c29.2,0,53-23.8,53-53
			C1048.5,331.7,1024.7,307.9,995.5,307.9z"/>
		<path class="st9" d="M947.5,363.3c1.1,3.9-1.1,7.9-4.9,9l-13.4,3.9c-3.9,1.1-7.9-1.1-9-4.9l0,0c-1.1-3.9,1.1-7.9,4.9-9l13.4-3.9
			C942.3,357.2,946.4,359.4,947.5,363.3L947.5,363.3z"/>
		<path class="st9" d="M937.7,355.7l-13.4,3.9c-5.3,1.6-8.4,7.2-6.8,12.5c1.6,5.3,7.2,8.4,12.5,6.8l13.4-3.9
			c5.3-1.6,8.4-7.2,6.8-12.5S943,354.1,937.7,355.7z M941.8,369.6l-13.4,3.9c-2.4,0.7-4.9-0.7-5.6-3s0.7-4.9,3-5.6l13.4-3.9
			c2.4-0.7,4.9,0.7,5.6,3C945.5,366.4,944.2,368.9,941.8,369.6z"/>
		<path class="st9" d="M976.1,297.6c-27.9,8.2-43.9,37.5-35.7,65.4s37.5,43.9,65.4,35.7c27.9-8.2,43.9-37.5,35.7-65.4
			C1033.4,305.4,1004,289.4,976.1,297.6z"/>
		
			<radialGradient id="SVGID_1_" cx="1074.7366" cy="-172.3797" r="68.8557" gradientTransform="matrix(0.9595 -0.2819 0.2845 0.9684 18.8089 831.7394)" gradientUnits="userSpaceOnUse">
			<stop  offset="0" style="stop-color:#33264D"/>
			<stop  offset="0.696" style="stop-color:#453351"/>
			<stop  offset="0.8311" style="stop-color:#33235C"/>
			<stop  offset="0.8917" style="stop-color:#332751"/>
			<stop  offset="0.9441" style="stop-color:#271F3F"/>
			<stop  offset="0.9455" style="stop-color:#170E30"/>
		</radialGradient>
		<path class="st10" d="M978.1,304.7c-24,7.1-37.8,32.3-30.7,56.3s32.3,37.8,56.3,30.7c24-7.1,37.8-32.3,30.7-56.3
			C1027.4,311.4,1002.1,297.6,978.1,304.7z"/>
		<path class="st9" d="M975.1,294.4c-29.7,8.7-46.7,39.9-38,69.6s39.9,46.7,69.6,38s46.7-39.9,38-69.6
			C1036,302.7,1004.8,285.7,975.1,294.4z M1005.1,396.6c-26.7,7.8-54.8-7.5-62.6-34.2s7.5-54.8,34.2-62.6
			c26.7-7.8,54.8,7.5,62.6,34.2C1047.2,360.7,1031.8,388.7,1005.1,396.6z"/>
	</g>
	<g>
		<g>
			
				<linearGradient id="SVGID_2_" gradientUnits="userSpaceOnUse" x1="854.9562" y1="310.1682" x2="1046.9938" y2="118.1307" gradientTransform="matrix(1 0 0 1 0 501.2756)">
				<stop  offset="0" style="stop-color:#F16B90"/>
				<stop  offset="1" style="stop-color:#F89E71"/>
			</linearGradient>
			<path class="st11" d="M1060.6,793.4c0,5.8-4.7,10.6-10.6,10.6H851.9c-5.8,0-10.6-4.7-10.6-10.6V637.5c0-5.8,4.7-10.6,10.6-10.6
				h198.2c5.8,0,10.6,4.7,10.6,10.6L1060.6,793.4L1060.6,793.4z"/>
			<path class="st2" d="M1050.1,806H851.9c-6.9,0-12.6-5.6-12.6-12.6V637.5c0-6.9,5.6-12.6,12.6-12.6h198.2
				c6.9,0,12.6,5.6,12.6,12.6v155.9C1062.6,800.3,1057,806,1050.1,806z"/>
		</g>
		<g>
			
				<linearGradient id="SVGID_3_" gradientUnits="userSpaceOnUse" x1="1415.1692" y1="438.5261" x2="1415.1692" y2="323.5758" gradientTransform="matrix(0.8765 -0.4814 0.4814 0.8765 -440.0838 1066.2714)">
				<stop  offset="0" style="stop-color:#F1F2F2"/>
				<stop  offset="0.2665" style="stop-color:#EFEFF0"/>
				<stop  offset="1" style="stop-color:#FFFFFF"/>
			</linearGradient>
			<path class="st12" d="M1025.6,731.4c7,12.8,2.4,28.9-10.4,35.9l-7.5,4.1c-12.8,7-28.9,2.4-35.9-10.4l-29.9-54.4
				c-7-12.8-2.4-28.9,10.4-35.9l7.5-4.1c12.8-7,28.9-2.3,35.9,10.4L1025.6,731.4z"/>
			<g>
				<path class="st13" d="M1014.9,768.1l-7.5,4.1c-13.7,7.5-31,2.5-38.6-11.2L939,706.6c-7.5-13.7-2.5-31,11.2-38.6l7.5-4.1
					c13.7-7.5,31-2.5,38.6,11.2l29.9,54.4C1033.7,743.3,1028.7,760.6,1014.9,768.1z M952.1,671.5c-11.8,6.5-16.1,21.4-9.7,33.2
					l29.9,54.4c6.5,11.8,21.4,16.1,33.2,9.7l7.5-4.1c11.8-6.5,16.1-21.4,9.7-33.2l-29.9-54.4c-6.5-11.8-21.4-16.1-33.2-9.7
					L952.1,671.5z"/>
			</g>
		</g>
	</g>
	<g>
		<path class="st14" d="M779,810.1c0,12.3-9.9,22.3-22.2,22.3l-84.6,0.3c-12.3,0-22.3-9.9-22.3-22.2l-0.8-218.2
			c0-12.3,9.9-22.3,22.2-22.3l84.6-0.3c12.3,0,22.3,9.9,22.3,22.2L779,810.1z"/>
		<g>
			<path class="st15" d="M756.8,835l-84.6,0.3c-13.6,0-24.8-11-24.8-24.6l-0.8-218.2c0-13.6,11-24.8,24.6-24.8l84.6-0.3
				c13.6,0,24.8,11,24.8,24.6l0.8,218.2C781.5,823.8,770.4,834.9,756.8,835z M671.3,572.5c-10.9,0-19.8,9-19.7,19.9l0.8,218.2
				c0,10.9,9,19.8,19.9,19.7l84.6-0.3c10.9,0,19.8-9,19.7-19.9l-0.8-218.2c0-10.9-9-19.8-19.9-19.7L671.3,572.5z"/>
		</g>
		
			<linearGradient id="SVGID_4_" gradientUnits="userSpaceOnUse" x1="949.8692" y1="311.9214" x2="1130.2664" y2="131.5242" gradientTransform="matrix(0.4164 -0.9092 0.9092 0.4164 79.4254 1554.1542)">
			<stop  offset="0" style="stop-color:#BC79B3"/>
			<stop  offset="1" style="stop-color:#7379BA"/>
		</linearGradient>
		<path class="st16" d="M767.6,807.1c0,8-6.9,14.6-15.4,14.6l-75.4,0.3c-8.5,0-15.5-6.5-15.5-14.5l-0.7-212.9
			c0-8,6.9-14.6,15.4-14.6l75.4-0.3c8.5,0,15.5,6.5,15.5,14.5L767.6,807.1z"/>
		<path class="st14" d="M742,581.3c0,3.2-2.6,5.8-5.7,5.8l-45.2,0.2c-3.2,0-5.8-2.6-5.8-5.7l0,0c0-3.2,2.6-5.8,5.7-5.8l45.2-0.2
			C739.4,575.5,741.9,578.1,742,581.3L742,581.3z"/>
	</g>
	<g>
		<g class="st17">
			<path class="st7" d="M431.9,408.1c0,1-0.7,1.8-1.6,1.8h-15.6c-0.9,0-1.6-0.8-1.6-1.8v-5.9c0-1,0.7-1.8,1.6-1.8h15.6
				c0.9,0,1.6,0.8,1.6,1.8V408.1z"/>
			<path class="st7" d="M430.4,410.5h-15.6c-1.2,0-2.2-1.1-2.2-2.4v-5.9c0-1.3,1-2.4,2.2-2.4h15.6c1.2,0,2.2,1.1,2.2,2.4v5.9
				C432.6,409.4,431.6,410.5,430.4,410.5z M414.8,401c-0.5,0-0.9,0.5-0.9,1.2v5.9c0,0.7,0.4,1.2,0.9,1.2h15.6c0.5,0,0.9-0.5,0.9-1.2
				v-5.9c0-0.7-0.4-1.2-0.9-1.2H414.8z"/>
			<path class="st7" d="M459.2,408.1c0,1-0.7,1.8-1.6,1.8H442c-0.9,0-1.6-0.8-1.6-1.8v-5.9c0-1,0.7-1.8,1.6-1.8h15.6
				c0.9,0,1.6,0.8,1.6,1.8V408.1z"/>
			<path class="st7" d="M457.7,410.5h-15.6c-1.2,0-2.2-1.1-2.2-2.4v-5.9c0-1.3,1-2.4,2.2-2.4h15.6c1.2,0,2.2,1.1,2.2,2.4v5.9
				C459.9,409.4,458.9,410.5,457.7,410.5z M442.1,401c-0.5,0-0.9,0.6-0.9,1.2v5.9c0,0.7,0.4,1.2,0.9,1.2h15.6c0.5,0,0.9-0.5,0.9-1.2
				v-5.9c0-0.7-0.4-1.2-0.9-1.2H442.1z"/>
			<path class="st7" d="M486.6,408.1c0,1-0.7,1.8-1.6,1.8h-15.6c-0.9,0-1.6-0.8-1.6-1.8v-5.9c0-1,0.7-1.8,1.6-1.8H485
				c0.9,0,1.6,0.8,1.6,1.8V408.1z"/>
			<path class="st7" d="M485,410.5h-15.6c-1.2,0-2.2-1.1-2.2-2.4v-5.9c0-1.3,1-2.4,2.2-2.4H485c1.2,0,2.2,1.1,2.2,2.4v5.9
				C487.2,409.4,486.2,410.5,485,410.5z M469.5,401c-0.5,0-0.9,0.5-0.9,1.2v5.9c0,0.7,0.4,1.2,0.9,1.2H485c0.5,0,0.9-0.5,0.9-1.2
				v-5.9c0-0.7-0.4-1.2-0.9-1.2H469.5z"/>
			<path class="st7" d="M735.7,535.8c0,0.8-0.7,1.4-1.6,1.4h-15.6c-0.9,0-1.6-0.6-1.6-1.4v-4.4c0-0.8,0.7-1.4,1.6-1.4h15.6
				c0.9,0,1.6,0.6,1.6,1.4V535.8z"/>
			<path class="st7" d="M734.2,537.8h-15.6c-1.2,0-2.2-0.9-2.2-2v-4.4c0-1.1,1-2,2.2-2h15.6c1.2,0,2.2,0.9,2.2,2v4.4
				C736.4,536.9,735.4,537.8,734.2,537.8z M718.6,530.6c-0.5,0-0.9,0.3-0.9,0.7v4.4c0,0.4,0.4,0.7,0.9,0.7h15.6
				c0.5,0,0.9-0.3,0.9-0.7v-4.4c0-0.4-0.4-0.7-0.9-0.7H718.6z"/>
			<path class="st7" d="M763.1,535.8c0,0.8-0.7,1.4-1.6,1.4h-15.6c-0.9,0-1.6-0.6-1.6-1.4v-4.4c0-0.8,0.7-1.4,1.6-1.4h15.6
				c0.9,0,1.6,0.6,1.6,1.4V535.8z"/>
			<path class="st7" d="M761.5,537.8h-15.6c-1.2,0-2.2-0.9-2.2-2v-4.4c0-1.1,1-2,2.2-2h15.6c1.2,0,2.2,0.9,2.2,2v4.4
				C763.7,536.9,762.7,537.8,761.5,537.8z M745.9,530.6c-0.5,0-0.9,0.3-0.9,0.7v4.4c0,0.4,0.4,0.7,0.9,0.7h15.6
				c0.5,0,0.9-0.3,0.9-0.7v-4.4c0-0.4-0.4-0.7-0.9-0.7H745.9z"/>
			<path class="st7" d="M763.1,528.4c0,0.8-0.7,1.4-1.6,1.4h-15.6c-0.9,0-1.6-0.6-1.6-1.4V524c0-0.8,0.7-1.4,1.6-1.4h15.6
				c0.9,0,1.6,0.6,1.6,1.4V528.4z"/>
			<path class="st7" d="M761.5,530.4h-15.6c-1.2,0-2.2-0.9-2.2-2V524c0-1.1,1-2,2.2-2h15.6c1.2,0,2.2,0.9,2.2,2v4.4
				C763.7,529.5,762.7,530.4,761.5,530.4z M745.9,523.2c-0.5,0-0.9,0.3-0.9,0.7v4.4c0,0.4,0.4,0.7,0.9,0.7h15.6
				c0.5,0,0.9-0.3,0.9-0.7v-4.4c0-0.4-0.4-0.7-0.9-0.7H745.9z"/>
			<path class="st7" d="M790.4,535.8c0,0.8-0.7,1.4-1.6,1.4h-15.6c-0.9,0-1.6-0.6-1.6-1.4v-4.4c0-0.8,0.7-1.4,1.6-1.4h15.6
				c0.9,0,1.6,0.6,1.6,1.4V535.8z"/>
			<path class="st7" d="M788.8,537.8h-15.6c-1.2,0-2.2-0.9-2.2-2v-4.4c0-1.1,1-2,2.2-2h15.6c1.2,0,2.2,0.9,2.2,2v4.4
				C791,536.9,790,537.8,788.8,537.8z M773.3,530.6c-0.5,0-0.9,0.3-0.9,0.7v4.4c0,0.4,0.4,0.7,0.9,0.7h15.6c0.5,0,0.9-0.3,0.9-0.7
				v-4.4c0-0.4-0.4-0.7-0.9-0.7H773.3z"/>
			<path class="st7" d="M513.9,408.1c0,1-0.7,1.8-1.6,1.8h-15.6c-0.9,0-1.6-0.8-1.6-1.8v-5.9c0-1,0.7-1.8,1.6-1.8h15.6
				c0.9,0,1.6,0.8,1.6,1.8V408.1z"/>
			<path class="st7" d="M512.3,410.5h-15.6c-1.2,0-2.2-1.1-2.2-2.4v-5.9c0-1.3,1-2.4,2.2-2.4h15.6c1.2,0,2.2,1.1,2.2,2.4v5.9
				C514.5,409.4,513.5,410.5,512.3,410.5z M496.8,401c-0.5,0-0.9,0.5-0.9,1.2v5.9c0,0.7,0.4,1.2,0.9,1.2h15.6c0.5,0,0.9-0.5,0.9-1.2
				v-5.9c0-0.7-0.4-1.2-0.9-1.2H496.8z"/>
			<path class="st7" d="M541.2,408.1c0,1-0.7,1.8-1.6,1.8H524c-0.9,0-1.6-0.8-1.6-1.8v-5.9c0-1,0.7-1.8,1.6-1.8h15.6
				c0.9,0,1.6,0.8,1.6,1.8V408.1z"/>
			<path class="st7" d="M539.6,410.5H524c-1.2,0-2.2-1.1-2.2-2.4v-5.9c0-1.3,1-2.4,2.2-2.4h15.6c1.2,0,2.2,1.1,2.2,2.4v5.9
				C541.8,409.4,540.8,410.5,539.6,410.5z M524.1,401c-0.5,0-0.9,0.6-0.9,1.2v5.9c0,0.7,0.4,1.2,0.9,1.2h15.6c0.5,0,0.9-0.5,0.9-1.2
				v-5.9c0-0.7-0.4-1.2-0.9-1.2H524.1z"/>
			<path class="st7" d="M568.5,408.1c0,1-0.7,1.8-1.6,1.8h-15.6c-0.9,0-1.6-0.8-1.6-1.8v-5.9c0-1,0.7-1.8,1.6-1.8H567
				c0.9,0,1.6,0.8,1.6,1.8L568.5,408.1L568.5,408.1z"/>
			<path class="st7" d="M567,410.5h-15.6c-1.2,0-2.2-1.1-2.2-2.4v-5.9c0-1.3,1-2.4,2.2-2.4H567c1.2,0,2.2,1.1,2.2,2.4v5.9
				C569.1,409.4,568.2,410.5,567,410.5z M551.4,401c-0.5,0-0.9,0.6-0.9,1.2v5.9c0,0.7,0.4,1.2,0.9,1.2H567c0.5,0,0.9-0.5,0.9-1.2
				v-5.9c0-0.7-0.4-1.2-0.9-1.2H551.4z"/>
			<path class="st7" d="M595.8,408.1c0,1-0.7,1.8-1.6,1.8h-15.6c-0.9,0-1.6-0.8-1.6-1.8v-5.9c0-1,0.7-1.8,1.6-1.8h15.6
				c0.9,0,1.6,0.8,1.6,1.8V408.1z"/>
			<path class="st7" d="M594.3,410.5h-15.6c-1.2,0-2.2-1.1-2.2-2.4v-5.9c0-1.3,1-2.4,2.2-2.4h15.6c1.2,0,2.2,1.1,2.2,2.4v5.9
				C596.5,409.4,595.5,410.5,594.3,410.5z M578.7,401c-0.5,0-0.9,0.5-0.9,1.2v5.9c0,0.7,0.4,1.2,0.9,1.2h15.6c0.5,0,0.9-0.6,0.9-1.2
				v-5.9c0-0.6-0.4-1.2-0.9-1.2H578.7z"/>
			<path class="st7" d="M623.2,408.1c0,1-0.7,1.8-1.6,1.8H606c-0.9,0-1.6-0.8-1.6-1.8v-5.9c0-1,0.7-1.8,1.6-1.8h15.6
				c0.9,0,1.6,0.8,1.6,1.8L623.2,408.1L623.2,408.1z"/>
			<path class="st7" d="M621.6,410.5H606c-1.2,0-2.2-1.1-2.2-2.4v-5.9c0-1.3,1-2.4,2.2-2.4h15.6c1.2,0,2.2,1.1,2.2,2.4v5.9
				C623.8,409.4,622.8,410.5,621.6,410.5z M606,401c-0.5,0-0.9,0.6-0.9,1.2v5.9c0,0.7,0.4,1.2,0.9,1.2h15.6c0.5,0,0.9-0.5,0.9-1.2
				v-5.9c0-0.7-0.4-1.2-0.9-1.2H606z"/>
			<path class="st7" d="M650.5,408.1c0,1-0.7,1.8-1.6,1.8h-15.6c-0.9,0-1.6-0.8-1.6-1.8v-5.9c0-1,0.7-1.8,1.6-1.8h15.6
				c0.9,0,1.6,0.8,1.6,1.8V408.1z"/>
			<path class="st7" d="M648.9,410.5h-15.6c-1.2,0-2.2-1.1-2.2-2.4v-5.9c0-1.3,1-2.4,2.2-2.4h15.6c1.2,0,2.2,1.1,2.2,2.4v5.9
				C651.1,409.4,650.1,410.5,648.9,410.5z M633.4,401c-0.5,0-0.9,0.6-0.9,1.2v5.9c0,0.7,0.4,1.2,0.9,1.2H649c0.5,0,0.9-0.6,0.9-1.2
				v-5.9c0-0.6-0.4-1.2-0.9-1.2H633.4z"/>
			<path class="st7" d="M677.8,408.1c0,1-0.7,1.8-1.6,1.8h-15.6c-0.9,0-1.6-0.8-1.6-1.8v-5.9c0-1,0.7-1.8,1.6-1.8h15.6
				c0.9,0,1.6,0.8,1.6,1.8V408.1z"/>
			<path class="st7" d="M676.2,410.5h-15.6c-1.2,0-2.2-1.1-2.2-2.4v-5.9c0-1.3,1-2.4,2.2-2.4h15.6c1.2,0,2.2,1.1,2.2,2.4v5.9
				C678.4,409.4,677.4,410.5,676.2,410.5z M660.7,401c-0.5,0-0.9,0.5-0.9,1.2v5.9c0,0.7,0.4,1.2,0.9,1.2h15.6c0.5,0,0.9-0.6,0.9-1.2
				v-5.9c0-0.6-0.4-1.2-0.9-1.2H660.7z"/>
			<path class="st7" d="M705.1,408.1c0,1-0.7,1.8-1.6,1.8H688c-0.9,0-1.6-0.8-1.6-1.8v-5.9c0-1,0.7-1.8,1.6-1.8h15.6
				c0.9,0,1.6,0.8,1.6,1.8L705.1,408.1L705.1,408.1z"/>
			<path class="st7" d="M703.5,410.5H688c-1.2,0-2.2-1.1-2.2-2.4v-5.9c0-1.3,1-2.4,2.2-2.4h15.6c1.2,0,2.2,1.1,2.2,2.4v5.9
				C705.7,409.4,704.7,410.5,703.5,410.5z M688,401c-0.5,0-0.9,0.5-0.9,1.2v5.9c0,0.7,0.4,1.2,0.9,1.2h15.6c0.5,0,0.9-0.6,0.9-1.2
				v-5.9c0-0.6-0.4-1.2-0.9-1.2H688z"/>
			<path class="st7" d="M732.4,408.1c0,1-0.7,1.8-1.6,1.8h-15.6c-0.9,0-1.6-0.8-1.6-1.8v-5.9c0-1,0.7-1.8,1.6-1.8h15.6
				c0.9,0,1.6,0.8,1.6,1.8V408.1z"/>
			<path class="st7" d="M730.9,410.5h-15.6c-1.2,0-2.2-1.1-2.2-2.4v-5.9c0-1.3,1-2.4,2.2-2.4h15.6c1.2,0,2.2,1.1,2.2,2.4v5.9
				C733,409.4,732.1,410.5,730.9,410.5z M715.3,401c-0.5,0-0.9,0.6-0.9,1.2v5.9c0,0.7,0.4,1.2,0.9,1.2h15.6c0.5,0,0.9-0.5,0.9-1.2
				v-5.9c0-0.7-0.4-1.2-0.9-1.2H715.3z"/>
			<path class="st7" d="M759.7,408.1c0,1-0.7,1.8-1.6,1.8h-15.6c-0.9,0-1.6-0.8-1.6-1.8v-5.9c0-1,0.7-1.8,1.6-1.8h15.6
				c0.9,0,1.6,0.8,1.6,1.8V408.1z"/>
			<path class="st7" d="M758.2,410.5h-15.6c-1.2,0-2.2-1.1-2.2-2.4v-5.9c0-1.3,1-2.4,2.2-2.4h15.6c1.2,0,2.2,1.1,2.2,2.4v5.9
				C760.4,409.4,759.4,410.5,758.2,410.5z M742.6,401c-0.5,0-0.9,0.6-0.9,1.2v5.9c0,0.7,0.4,1.2,0.9,1.2h15.6c0.5,0,0.9-0.6,0.9-1.2
				v-5.9c0-0.6-0.4-1.2-0.9-1.2H742.6z"/>
			<path class="st7" d="M787.1,408.1c0,1-0.7,1.8-1.6,1.8h-15.6c-0.9,0-1.6-0.8-1.6-1.8v-5.9c0-1,0.7-1.8,1.6-1.8h15.6
				c0.9,0,1.6,0.8,1.6,1.8V408.1z"/>
			<path class="st7" d="M785.5,410.5h-15.6c-1.2,0-2.2-1.1-2.2-2.4v-5.9c0-1.3,1-2.4,2.2-2.4h15.6c1.2,0,2.2,1.1,2.2,2.4v5.9
				C787.7,409.4,786.7,410.5,785.5,410.5z M769.9,401c-0.5,0-0.9,0.6-0.9,1.2v5.9c0,0.7,0.4,1.2,0.9,1.2h15.6c0.5,0,0.9-0.6,0.9-1.2
				v-5.9c0-0.6-0.4-1.2-0.9-1.2H769.9z"/>
			<path class="st7" d="M431.6,435.5c0,1.2-1,2.2-2.2,2.2h-13.6c-1.2,0-2.2-1-2.2-2.2V422c0-1.2,1-2.2,2.2-2.2h13.6
				c1.2,0,2.2,1,2.2,2.2V435.5z"/>
			<path class="st7" d="M429.4,438.3h-13.6c-1.5,0-2.8-1.3-2.8-2.8V422c0-1.5,1.3-2.8,2.8-2.8h13.6c1.5,0,2.8,1.3,2.8,2.8v13.6
				C432.2,437.1,430.9,438.3,429.4,438.3z M415.8,420.4c-0.9,0-1.6,0.7-1.6,1.6v13.6c0,0.9,0.7,1.6,1.6,1.6h13.6
				c0.9,0,1.6-0.7,1.6-1.6V422c0-0.9-0.7-1.6-1.6-1.6H415.8z"/>
			<path class="st7" d="M458.3,435.5c0,1.2-1,2.2-2.2,2.2h-13.6c-1.2,0-2.2-1-2.2-2.2V422c0-1.2,1-2.2,2.2-2.2h13.6
				c1.2,0,2.2,1,2.2,2.2V435.5z"/>
			<path class="st7" d="M456.1,438.3h-13.6c-1.5,0-2.8-1.3-2.8-2.8V422c0-1.5,1.3-2.8,2.8-2.8h13.6c1.5,0,2.8,1.3,2.8,2.8v13.6
				C458.9,437.1,457.7,438.3,456.1,438.3z M442.6,420.4c-0.9,0-1.6,0.7-1.6,1.6v13.6c0,0.9,0.7,1.6,1.6,1.6h13.6
				c0.9,0,1.6-0.7,1.6-1.6V422c0-0.9-0.7-1.6-1.6-1.6H442.6z"/>
			<path class="st7" d="M485,435.5c0,1.2-1,2.2-2.2,2.2h-13.6c-1.2,0-2.2-1-2.2-2.2V422c0-1.2,1-2.2,2.2-2.2h13.6
				c1.2,0,2.2,1,2.2,2.2V435.5z"/>
			<path class="st7" d="M482.9,438.3h-13.6c-1.5,0-2.8-1.3-2.8-2.8V422c0-1.5,1.3-2.8,2.8-2.8h13.6c1.5,0,2.8,1.3,2.8,2.8v13.6
				C485.7,437.1,484.4,438.3,482.9,438.3z M469.3,420.4c-0.9,0-1.6,0.7-1.6,1.6v13.6c0,0.9,0.7,1.6,1.6,1.6h13.6
				c0.9,0,1.6-0.7,1.6-1.6V422c0-0.9-0.7-1.6-1.6-1.6H469.3z"/>
			<path class="st7" d="M511.8,435.5c0,1.2-1,2.2-2.2,2.2H496c-1.2,0-2.2-1-2.2-2.2V422c0-1.2,1-2.2,2.2-2.2h13.6
				c1.2,0,2.2,1,2.2,2.2L511.8,435.5L511.8,435.5z"/>
			<path class="st7" d="M509.6,438.3H496c-1.5,0-2.8-1.3-2.8-2.8V422c0-1.5,1.3-2.8,2.8-2.8h13.6c1.5,0,2.8,1.3,2.8,2.8v13.6
				C512.4,437.1,511.2,438.3,509.6,438.3z M496,420.4c-0.9,0-1.6,0.7-1.6,1.6v13.6c0,0.9,0.7,1.6,1.6,1.6h13.6
				c0.9,0,1.6-0.7,1.6-1.6V422c0-0.9-0.7-1.6-1.6-1.6H496z"/>
			<path class="st7" d="M538.5,435.5c0,1.2-1,2.2-2.2,2.2h-13.6c-1.2,0-2.2-1-2.2-2.2V422c0-1.2,1-2.2,2.2-2.2h13.6
				c1.2,0,2.2,1,2.2,2.2V435.5z"/>
			<path class="st7" d="M536.3,438.3h-13.6c-1.5,0-2.8-1.3-2.8-2.8V422c0-1.5,1.3-2.8,2.8-2.8h13.6c1.5,0,2.8,1.3,2.8,2.8v13.6
				C539.1,437.1,537.9,438.3,536.3,438.3z M522.8,420.4c-0.9,0-1.6,0.7-1.6,1.6v13.6c0,0.9,0.7,1.6,1.6,1.6h13.6
				c0.9,0,1.6-0.7,1.6-1.6V422c0-0.9-0.7-1.6-1.6-1.6H522.8z"/>
			<path class="st7" d="M565.3,435.5c0,1.2-1,2.2-2.2,2.2h-13.6c-1.2,0-2.2-1-2.2-2.2V422c0-1.2,1-2.2,2.2-2.2h13.6
				c1.2,0,2.2,1,2.2,2.2V435.5z"/>
			<path class="st7" d="M563.1,438.3h-13.6c-1.5,0-2.8-1.3-2.8-2.8V422c0-1.5,1.3-2.8,2.8-2.8h13.6c1.5,0,2.8,1.3,2.8,2.8v13.6
				C565.9,437.1,564.6,438.3,563.1,438.3z M549.5,420.4c-0.9,0-1.6,0.7-1.6,1.6v13.6c0,0.9,0.7,1.6,1.6,1.6h13.6
				c0.9,0,1.6-0.7,1.6-1.6V422c0-0.9-0.7-1.6-1.6-1.6H549.5z"/>
			<path class="st7" d="M592,435.5c0,1.2-1,2.2-2.2,2.2h-13.6c-1.2,0-2.2-1-2.2-2.2V422c0-1.2,1-2.2,2.2-2.2h13.6
				c1.2,0,2.2,1,2.2,2.2V435.5z"/>
			<path class="st7" d="M589.8,438.3h-13.6c-1.5,0-2.8-1.3-2.8-2.8V422c0-1.5,1.3-2.8,2.8-2.8h13.6c1.5,0,2.8,1.3,2.8,2.8v13.6
				C592.6,437.1,591.4,438.3,589.8,438.3z M576.2,420.4c-0.9,0-1.6,0.7-1.6,1.6v13.6c0,0.9,0.7,1.6,1.6,1.6h13.6
				c0.9,0,1.6-0.7,1.6-1.6V422c0-0.9-0.7-1.6-1.6-1.6H576.2z"/>
			<path class="st7" d="M618.7,435.5c0,1.2-1,2.2-2.2,2.2H603c-1.2,0-2.2-1-2.2-2.2V422c0-1.2,1-2.2,2.2-2.2h13.6
				c1.2,0,2.2,1,2.2,2.2L618.7,435.5L618.7,435.5z"/>
			<path class="st7" d="M616.6,438.3H603c-1.5,0-2.8-1.3-2.8-2.8V422c0-1.5,1.3-2.8,2.8-2.8h13.6c1.5,0,2.8,1.3,2.8,2.8v13.6
				C619.3,437.1,618.1,438.3,616.6,438.3z M603,420.4c-0.9,0-1.6,0.7-1.6,1.6v13.6c0,0.9,0.7,1.6,1.6,1.6h13.6
				c0.9,0,1.6-0.7,1.6-1.6V422c0-0.9-0.7-1.6-1.6-1.6H603z"/>
			<path class="st7" d="M645.5,435.5c0,1.2-1,2.2-2.2,2.2h-13.6c-1.2,0-2.2-1-2.2-2.2V422c0-1.2,1-2.2,2.2-2.2h13.6
				c1.2,0,2.2,1,2.2,2.2V435.5z"/>
			<path class="st7" d="M643.3,438.3h-13.6c-1.5,0-2.8-1.3-2.8-2.8V422c0-1.5,1.3-2.8,2.8-2.8h13.6c1.5,0,2.8,1.3,2.8,2.8v13.6
				C646.1,437.1,644.8,438.3,643.3,438.3z M629.7,420.4c-0.9,0-1.6,0.7-1.6,1.6v13.6c0,0.9,0.7,1.6,1.6,1.6h13.6
				c0.9,0,1.6-0.7,1.6-1.6V422c0-0.9-0.7-1.6-1.6-1.6H629.7z"/>
			<path class="st7" d="M672.2,435.5c0,1.2-1,2.2-2.2,2.2h-13.6c-1.2,0-2.2-1-2.2-2.2V422c0-1.2,1-2.2,2.2-2.2H670
				c1.2,0,2.2,1,2.2,2.2V435.5z"/>
			<path class="st7" d="M670,438.3h-13.6c-1.5,0-2.8-1.3-2.8-2.8V422c0-1.5,1.3-2.8,2.8-2.8H670c1.5,0,2.8,1.3,2.8,2.8v13.6
				C672.8,437.1,671.6,438.3,670,438.3z M656.5,420.4c-0.9,0-1.5,0.7-1.5,1.6v13.6c0,0.9,0.7,1.6,1.5,1.6H670c0.9,0,1.6-0.7,1.6-1.6
				V422c0-0.9-0.7-1.6-1.6-1.6H656.5z"/>
			<path class="st7" d="M698.9,435.5c0,1.2-1,2.2-2.2,2.2h-13.6c-1.2,0-2.2-1-2.2-2.2V422c0-1.2,1-2.2,2.2-2.2h13.6
				c1.2,0,2.2,1,2.2,2.2V435.5z"/>
			<path class="st7" d="M696.8,438.3h-13.6c-1.5,0-2.8-1.3-2.8-2.8V422c0-1.5,1.3-2.8,2.8-2.8h13.6c1.5,0,2.8,1.3,2.8,2.8v13.6
				C699.6,437.1,698.3,438.3,696.8,438.3z M683.2,420.4c-0.9,0-1.6,0.7-1.6,1.6v13.6c0,0.9,0.7,1.6,1.6,1.6h13.6
				c0.9,0,1.6-0.7,1.6-1.6V422c0-0.9-0.7-1.6-1.6-1.6H683.2z"/>
			<path class="st7" d="M725.7,435.5c0,1.2-1,2.2-2.2,2.2h-13.6c-1.2,0-2.2-1-2.2-2.2V422c0-1.2,1-2.2,2.2-2.2h13.6
				c1.2,0,2.2,1,2.2,2.2V435.5z"/>
			<path class="st7" d="M723.5,438.3h-13.6c-1.5,0-2.8-1.3-2.8-2.8V422c0-1.5,1.3-2.8,2.8-2.8h13.6c1.5,0,2.8,1.3,2.8,2.8v13.6
				C726.3,437.1,725,438.3,723.5,438.3z M709.9,420.4c-0.9,0-1.6,0.7-1.6,1.6v13.6c0,0.9,0.7,1.6,1.6,1.6h13.6
				c0.9,0,1.6-0.7,1.6-1.6V422c0-0.9-0.7-1.6-1.6-1.6H709.9z"/>
			<path class="st7" d="M752.4,435.5c0,1.2-1,2.2-2.2,2.2h-13.6c-1.2,0-2.2-1-2.2-2.2V422c0-1.2,1-2.2,2.2-2.2h13.6
				c1.2,0,2.2,1,2.2,2.2V435.5z"/>
			<path class="st7" d="M750.2,438.3h-13.6c-1.5,0-2.8-1.3-2.8-2.8V422c0-1.5,1.3-2.8,2.8-2.8h13.6c1.5,0,2.8,1.3,2.8,2.8v13.6
				C753,437.1,751.8,438.3,750.2,438.3z M736.7,420.4c-0.9,0-1.6,0.7-1.6,1.6v13.6c0,0.9,0.7,1.6,1.6,1.6h13.6
				c0.9,0,1.6-0.7,1.6-1.6V422c0-0.9-0.7-1.6-1.6-1.6H736.7z"/>
			<path class="st7" d="M788.7,435.5c0,1.2-1.4,2.2-3.1,2.2h-19.5c-1.7,0-3.1-1-3.1-2.2V422c0-1.2,1.4-2.2,3.1-2.2h19.5
				c1.7,0,3.1,1,3.1,2.2V435.5z"/>
			<path class="st7" d="M785.6,438.3h-19.5c-2.1,0-3.7-1.2-3.7-2.8V422c0-1.6,1.6-2.8,3.7-2.8h19.5c2.1,0,3.7,1.2,3.7,2.8v13.6
				C789.4,437.1,787.7,438.3,785.6,438.3z M766.1,420.4c-1.4,0-2.5,0.7-2.5,1.6v13.6c0,0.8,1.1,1.6,2.5,1.6h19.5
				c1.4,0,2.5-0.7,2.5-1.6V422c0-0.8-1.1-1.6-2.5-1.6H766.1z"/>
			<path class="st7" d="M744.1,460.3c0,1.2,1,2.2,2.2,2.2h13.6c1.2,0,2.2-1,2.2-2.2v-13.6c0-1.2-1-2.2-2.2-2.2h-13.6
				c-1.2,0-2.2,1-2.2,2.2V460.3z"/>
			<path class="st7" d="M759.8,463.1h-13.6c-1.5,0-2.8-1.3-2.8-2.8v-13.6c0-1.5,1.3-2.8,2.8-2.8h13.6c1.5,0,2.8,1.3,2.8,2.8v13.6
				C762.6,461.8,761.4,463.1,759.8,463.1z M746.3,445.2c-0.9,0-1.6,0.7-1.6,1.6v13.6c0,0.9,0.7,1.6,1.6,1.6h13.6
				c0.9,0,1.6-0.7,1.6-1.6v-13.6c0-0.9-0.7-1.6-1.6-1.6H746.3z"/>
			<path class="st7" d="M717.4,460.3c0,1.2,1,2.2,2.2,2.2h13.6c1.2,0,2.2-1,2.2-2.2v-13.6c0-1.2-1-2.2-2.2-2.2h-13.6
				c-1.2,0-2.2,1-2.2,2.2V460.3z"/>
			<path class="st7" d="M733.1,463.1h-13.6c-1.5,0-2.8-1.3-2.8-2.8v-13.6c0-1.5,1.3-2.8,2.8-2.8h13.6c1.5,0,2.8,1.3,2.8,2.8v13.6
				C735.9,461.8,734.6,463.1,733.1,463.1z M719.5,445.2c-0.9,0-1.6,0.7-1.6,1.6v13.6c0,0.9,0.7,1.6,1.6,1.6h13.6
				c0.9,0,1.6-0.7,1.6-1.6v-13.6c0-0.9-0.7-1.6-1.6-1.6H719.5z"/>
			<path class="st7" d="M690.6,460.3c0,1.2,1,2.2,2.2,2.2h13.6c1.2,0,2.2-1,2.2-2.2v-13.6c0-1.2-1-2.2-2.2-2.2h-13.6
				c-1.2,0-2.2,1-2.2,2.2V460.3z"/>
			<path class="st7" d="M706.4,463.1h-13.6c-1.5,0-2.8-1.3-2.8-2.8v-13.6c0-1.5,1.3-2.8,2.8-2.8h13.6c1.5,0,2.8,1.3,2.8,2.8v13.6
				C709.2,461.8,707.9,463.1,706.4,463.1z M692.8,445.2c-0.9,0-1.6,0.7-1.6,1.6v13.6c0,0.9,0.7,1.6,1.6,1.6h13.6
				c0.9,0,1.6-0.7,1.6-1.6v-13.6c0-0.9-0.7-1.6-1.6-1.6H692.8z"/>
			<path class="st7" d="M663.9,460.3c0,1.2,1,2.2,2.2,2.2h13.6c1.2,0,2.2-1,2.2-2.2v-13.6c0-1.2-1-2.2-2.2-2.2h-13.6
				c-1.2,0-2.2,1-2.2,2.2V460.3z"/>
			<path class="st7" d="M679.6,463.1H666c-1.5,0-2.8-1.3-2.8-2.8v-13.6c0-1.5,1.3-2.8,2.8-2.8h13.6c1.5,0,2.8,1.3,2.8,2.8v13.6
				C682.4,461.8,681.2,463.1,679.6,463.1z M666.1,445.2c-0.9,0-1.6,0.7-1.6,1.6v13.6c0,0.9,0.7,1.6,1.6,1.6h13.6
				c0.9,0,1.6-0.7,1.6-1.6v-13.6c0-0.9-0.7-1.6-1.6-1.6H666.1z"/>
			<path class="st7" d="M637.1,460.3c0,1.2,1,2.2,2.2,2.2h13.6c1.2,0,2.2-1,2.2-2.2v-13.6c0-1.2-1-2.2-2.2-2.2h-13.6
				c-1.2,0-2.2,1-2.2,2.2V460.3z"/>
			<path class="st7" d="M652.9,463.1h-13.6c-1.5,0-2.8-1.3-2.8-2.8v-13.6c0-1.5,1.3-2.8,2.8-2.8h13.6c1.5,0,2.8,1.3,2.8,2.8v13.6
				C655.7,461.8,654.4,463.1,652.9,463.1z M639.3,445.2c-0.9,0-1.6,0.7-1.6,1.6v13.6c0,0.9,0.7,1.6,1.6,1.6h13.6
				c0.9,0,1.6-0.7,1.6-1.6v-13.6c0-0.9-0.7-1.6-1.6-1.6H639.3z"/>
			<path class="st7" d="M610.4,460.3c0,1.2,1,2.2,2.2,2.2h13.6c1.2,0,2.2-1,2.2-2.2v-13.6c0-1.2-1-2.2-2.2-2.2h-13.6
				c-1.2,0-2.2,1-2.2,2.2V460.3z"/>
			<path class="st7" d="M626.2,463.1h-13.6c-1.5,0-2.8-1.3-2.8-2.8v-13.6c0-1.5,1.3-2.8,2.8-2.8h13.6c1.5,0,2.8,1.3,2.8,2.8v13.6
				C628.9,461.8,627.7,463.1,626.2,463.1z M612.6,445.2c-0.9,0-1.6,0.7-1.6,1.6v13.6c0,0.9,0.7,1.6,1.6,1.6h13.6
				c0.9,0,1.6-0.7,1.6-1.6v-13.6c0-0.9-0.7-1.6-1.6-1.6H612.6z"/>
			<path class="st7" d="M583.7,460.3c0,1.2,1,2.2,2.2,2.2h13.6c1.2,0,2.2-1,2.2-2.2v-13.6c0-1.2-1-2.2-2.2-2.2h-13.6
				c-1.2,0-2.2,1-2.2,2.2V460.3z"/>
			<path class="st7" d="M599.4,463.1h-13.6c-1.5,0-2.8-1.3-2.8-2.8v-13.6c0-1.5,1.3-2.8,2.8-2.8h13.6c1.5,0,2.8,1.3,2.8,2.8v13.6
				C602.2,461.8,601,463.1,599.4,463.1z M585.8,445.2c-0.9,0-1.6,0.7-1.6,1.6v13.6c0,0.9,0.7,1.6,1.6,1.6h13.6
				c0.9,0,1.6-0.7,1.6-1.6v-13.6c0-0.9-0.7-1.6-1.6-1.6H585.8z"/>
			<path class="st7" d="M556.9,460.3c0,1.2,1,2.2,2.2,2.2h13.6c1.2,0,2.2-1,2.2-2.2v-13.6c0-1.2-1-2.2-2.2-2.2h-13.6
				c-1.2,0-2.2,1-2.2,2.2V460.3z"/>
			<path class="st7" d="M572.7,463.1h-13.6c-1.5,0-2.8-1.3-2.8-2.8v-13.6c0-1.5,1.3-2.8,2.8-2.8h13.6c1.5,0,2.8,1.3,2.8,2.8v13.6
				C575.5,461.8,574.2,463.1,572.7,463.1z M559.1,445.2c-0.9,0-1.6,0.7-1.6,1.6v13.6c0,0.9,0.7,1.6,1.6,1.6h13.6
				c0.9,0,1.6-0.7,1.6-1.6v-13.6c0-0.9-0.7-1.6-1.6-1.6H559.1z"/>
			<path class="st7" d="M530.2,460.3c0,1.2,1,2.2,2.2,2.2H546c1.2,0,2.2-1,2.2-2.2v-13.6c0-1.2-1-2.2-2.2-2.2h-13.6
				c-1.2,0-2.2,1-2.2,2.2V460.3z"/>
			<path class="st7" d="M545.9,463.1h-13.6c-1.5,0-2.8-1.3-2.8-2.8v-13.6c0-1.5,1.3-2.8,2.8-2.8h13.6c1.5,0,2.8,1.3,2.8,2.8v13.6
				C548.7,461.8,547.5,463.1,545.9,463.1z M532.4,445.2c-0.9,0-1.6,0.7-1.6,1.6v13.6c0,0.9,0.7,1.6,1.6,1.6H546
				c0.9,0,1.6-0.7,1.6-1.6v-13.6c0-0.9-0.7-1.6-1.6-1.6H532.4z"/>
			<path class="st7" d="M503.5,460.3c0,1.2,1,2.2,2.2,2.2h13.6c1.2,0,2.2-1,2.2-2.2v-13.6c0-1.2-1-2.2-2.2-2.2h-13.6
				c-1.2,0-2.2,1-2.2,2.2L503.5,460.3L503.5,460.3z"/>
			<path class="st7" d="M519.2,463.1h-13.6c-1.5,0-2.8-1.3-2.8-2.8v-13.6c0-1.5,1.3-2.8,2.8-2.8h13.6c1.5,0,2.8,1.3,2.8,2.8v13.6
				C522,461.8,520.8,463.1,519.2,463.1z M505.6,445.2c-0.9,0-1.6,0.7-1.6,1.6v13.6c0,0.9,0.7,1.6,1.6,1.6h13.6
				c0.9,0,1.6-0.7,1.6-1.6v-13.6c0-0.9-0.7-1.6-1.6-1.6H505.6z"/>
			<path class="st7" d="M476.7,460.3c0,1.2,1,2.2,2.2,2.2h13.6c1.2,0,2.2-1,2.2-2.2v-13.6c0-1.2-1-2.2-2.2-2.2h-13.6
				c-1.2,0-2.2,1-2.2,2.2V460.3L476.7,460.3z"/>
			<path class="st7" d="M492.5,463.1h-13.6c-1.5,0-2.8-1.3-2.8-2.8v-13.6c0-1.5,1.3-2.8,2.8-2.8h13.6c1.5,0,2.8,1.3,2.8,2.8v13.6
				C495.3,461.8,494,463.1,492.5,463.1z M478.9,445.2c-0.9,0-1.6,0.7-1.6,1.6v13.6c0,0.9,0.7,1.6,1.6,1.6h13.6
				c0.9,0,1.6-0.7,1.6-1.6v-13.6c0-0.9-0.7-1.6-1.6-1.6H478.9z"/>
			<path class="st7" d="M450,460.3c0,1.2,1,2.2,2.2,2.2h13.6c1.2,0,2.2-1,2.2-2.2v-13.6c0-1.2-1-2.2-2.2-2.2h-13.6
				c-1.2,0-2.2,1-2.2,2.2V460.3z"/>
			<path class="st7" d="M465.7,463.1h-13.6c-1.5,0-2.8-1.3-2.8-2.8v-13.6c0-1.5,1.3-2.8,2.8-2.8h13.6c1.5,0,2.8,1.3,2.8,2.8v13.6
				C468.5,461.8,467.3,463.1,465.7,463.1z M452.2,445.2c-0.9,0-1.6,0.7-1.6,1.6v13.6c0,0.9,0.7,1.6,1.6,1.6h13.6
				c0.9,0,1.6-0.7,1.6-1.6v-13.6c0-0.9-0.7-1.6-1.6-1.6H452.2z"/>
			<path class="st7" d="M413.7,460.3c0,1.2,1.4,2.2,3.1,2.2h19.5c1.7,0,3.1-1,3.1-2.2v-13.6c0-1.2-1.4-2.2-3.1-2.2h-19.5
				c-1.7,0-3.1,1-3.1,2.2V460.3z"/>
			<path class="st7" d="M436.3,463.1h-19.5c-2.1,0-3.7-1.2-3.7-2.8v-13.6c0-1.6,1.6-2.8,3.7-2.8h19.5c2.1,0,3.7,1.2,3.7,2.8v13.6
				C440,461.9,438.4,463.1,436.3,463.1z M416.8,445.2c-1.4,0-2.5,0.7-2.5,1.6v13.6c0,0.8,1.1,1.6,2.5,1.6h19.5
				c1.4,0,2.5-0.7,2.5-1.6v-13.6c0-0.8-1.1-1.6-2.5-1.6H416.8z"/>
			<path class="st7" d="M709.9,509.8c0,1.2,1,2.2,2.2,2.2h13.6c1.2,0,2.2-1,2.2-2.2v-13.6c0-1.2-1-2.2-2.2-2.2h-13.6
				c-1.2,0-2.2,1-2.2,2.2V509.8z"/>
			<path class="st7" d="M725.7,512.6h-13.6c-1.5,0-2.8-1.3-2.8-2.8v-13.6c0-1.5,1.3-2.8,2.8-2.8h13.6c1.5,0,2.8,1.3,2.8,2.8v13.6
				C728.5,511.3,727.2,512.6,725.7,512.6z M712.1,494.7c-0.9,0-1.6,0.7-1.6,1.6v13.6c0,0.9,0.7,1.6,1.6,1.6h13.6
				c0.9,0,1.6-0.7,1.6-1.6v-13.6c0-0.9-0.7-1.6-1.6-1.6H712.1z"/>
			<path class="st7" d="M683.2,509.8c0,1.2,1,2.2,2.2,2.2H699c1.2,0,2.2-1,2.2-2.2v-13.6c0-1.2-1-2.2-2.2-2.2h-13.6
				c-1.2,0-2.2,1-2.2,2.2V509.8z"/>
			<path class="st7" d="M698.9,512.6h-13.6c-1.5,0-2.8-1.3-2.8-2.8v-13.6c0-1.5,1.3-2.8,2.8-2.8h13.6c1.5,0,2.8,1.3,2.8,2.8v13.6
				C701.7,511.3,700.5,512.6,698.9,512.6z M685.4,494.7c-0.9,0-1.6,0.7-1.6,1.6v13.6c0,0.9,0.7,1.6,1.6,1.6H699
				c0.9,0,1.6-0.7,1.6-1.6v-13.6c0-0.9-0.7-1.6-1.6-1.6H685.4z"/>
			<path class="st7" d="M656.5,509.8c0,1.2,1,2.2,2.2,2.2h13.6c1.2,0,2.2-1,2.2-2.2v-13.6c0-1.2-1-2.2-2.2-2.2h-13.6
				c-1.2,0-2.2,1-2.2,2.2V509.8z"/>
			<path class="st7" d="M672.2,512.6h-13.6c-1.5,0-2.8-1.3-2.8-2.8v-13.6c0-1.5,1.3-2.8,2.8-2.8h13.6c1.5,0,2.8,1.3,2.8,2.8v13.6
				C675,511.3,673.7,512.6,672.2,512.6z M658.6,494.7c-0.9,0-1.6,0.7-1.6,1.6v13.6c0,0.9,0.7,1.6,1.6,1.6h13.6
				c0.9,0,1.6-0.7,1.6-1.6v-13.6c0-0.9-0.7-1.6-1.6-1.6H658.6z"/>
			<path class="st7" d="M629.7,509.8c0,1.2,1,2.2,2.2,2.2h13.6c1.2,0,2.2-1,2.2-2.2v-13.6c0-1.2-1-2.2-2.2-2.2h-13.6
				c-1.2,0-2.2,1-2.2,2.2V509.8z"/>
			<path class="st7" d="M645.5,512.6h-13.6c-1.5,0-2.8-1.3-2.8-2.8v-13.6c0-1.5,1.3-2.8,2.8-2.8h13.6c1.5,0,2.8,1.3,2.8,2.8v13.6
				C648.3,511.3,647,512.6,645.5,512.6z M631.9,494.7c-0.9,0-1.6,0.7-1.6,1.6v13.6c0,0.9,0.7,1.6,1.6,1.6h13.6
				c0.9,0,1.6-0.7,1.6-1.6v-13.6c0-0.9-0.7-1.6-1.6-1.6H631.9z"/>
			<path class="st7" d="M603,509.8c0,1.2,1,2.2,2.2,2.2h13.6c1.2,0,2.2-1,2.2-2.2v-13.6c0-1.2-1-2.2-2.2-2.2h-13.6
				c-1.2,0-2.2,1-2.2,2.2V509.8z"/>
			<path class="st7" d="M618.7,512.6h-13.6c-1.5,0-2.8-1.3-2.8-2.8v-13.6c0-1.5,1.3-2.8,2.8-2.8h13.6c1.5,0,2.8,1.3,2.8,2.8v13.6
				C621.5,511.3,620.3,512.6,618.7,512.6z M605.2,494.7c-0.9,0-1.6,0.7-1.6,1.6v13.6c0,0.9,0.7,1.6,1.6,1.6h13.6
				c0.9,0,1.6-0.7,1.6-1.6v-13.6c0-0.9-0.7-1.6-1.6-1.6H605.2z"/>
			<path class="st7" d="M576.2,509.8c0,1.2,1,2.2,2.2,2.2H592c1.2,0,2.2-1,2.2-2.2v-13.6c0-1.2-1-2.2-2.2-2.2h-13.6
				c-1.2,0-2.2,1-2.2,2.2V509.8z"/>
			<path class="st7" d="M592,512.6h-13.6c-1.5,0-2.8-1.3-2.8-2.8v-13.6c0-1.5,1.3-2.8,2.8-2.8H592c1.5,0,2.8,1.3,2.8,2.8v13.6
				C594.8,511.3,593.5,512.6,592,512.6z M578.4,494.7c-0.9,0-1.6,0.7-1.6,1.6v13.6c0,0.9,0.7,1.6,1.6,1.6H592c0.9,0,1.6-0.7,1.6-1.6
				v-13.6c0-0.9-0.7-1.6-1.6-1.6H578.4z"/>
			<path class="st7" d="M549.5,509.8c0,1.2,1,2.2,2.2,2.2h13.6c1.2,0,2.2-1,2.2-2.2v-13.6c0-1.2-1-2.2-2.2-2.2h-13.6
				c-1.2,0-2.2,1-2.2,2.2V509.8z"/>
			<path class="st7" d="M565.3,512.6h-13.6c-1.5,0-2.8-1.3-2.8-2.8v-13.6c0-1.5,1.3-2.8,2.8-2.8h13.6c1.5,0,2.8,1.3,2.8,2.8v13.6
				C568.1,511.3,566.8,512.6,565.3,512.6z M551.7,494.7c-0.9,0-1.6,0.7-1.6,1.6v13.6c0,0.9,0.7,1.6,1.6,1.6h13.6
				c0.9,0,1.6-0.7,1.6-1.6v-13.6c0-0.9-0.7-1.6-1.6-1.6H551.7z"/>
			<path class="st7" d="M522.8,509.8c0,1.2,1,2.2,2.2,2.2h13.6c1.2,0,2.2-1,2.2-2.2v-13.6c0-1.2-1-2.2-2.2-2.2H525
				c-1.2,0-2.2,1-2.2,2.2V509.8z"/>
			<path class="st7" d="M538.5,512.6h-13.6c-1.5,0-2.8-1.3-2.8-2.8v-13.6c0-1.5,1.3-2.8,2.8-2.8h13.6c1.5,0,2.8,1.3,2.8,2.8v13.6
				C541.3,511.3,540.1,512.6,538.5,512.6z M524.9,494.7c-0.9,0-1.6,0.7-1.6,1.6v13.6c0,0.9,0.7,1.6,1.6,1.6h13.6
				c0.9,0,1.6-0.7,1.6-1.6v-13.6c0-0.9-0.7-1.6-1.6-1.6H524.9z"/>
			<path class="st7" d="M496,509.8c0,1.2,1,2.2,2.2,2.2h13.6c1.2,0,2.2-1,2.2-2.2v-13.6c0-1.2-1-2.2-2.2-2.2h-13.6
				c-1.2,0-2.2,1-2.2,2.2L496,509.8L496,509.8z"/>
			<path class="st7" d="M511.8,512.6h-13.6c-1.5,0-2.8-1.3-2.8-2.8v-13.6c0-1.5,1.3-2.8,2.8-2.8h13.6c1.5,0,2.8,1.3,2.8,2.8v13.6
				C514.6,511.3,513.3,512.6,511.8,512.6z M498.2,494.7c-0.9,0-1.6,0.7-1.6,1.6v13.6c0,0.9,0.7,1.6,1.6,1.6h13.6
				c0.9,0,1.6-0.7,1.6-1.6v-13.6c0-0.9-0.7-1.6-1.6-1.6H498.2z"/>
			<path class="st7" d="M469.3,509.8c0,1.2,1,2.2,2.2,2.2h13.6c1.2,0,2.2-1,2.2-2.2v-13.6c0-1.2-1-2.2-2.2-2.2h-13.6
				c-1.2,0-2.2,1-2.2,2.2V509.8z"/>
			<path class="st7" d="M485.1,512.6h-13.6c-1.5,0-2.8-1.3-2.8-2.8v-13.6c0-1.5,1.3-2.8,2.8-2.8h13.6c1.5,0,2.8,1.3,2.8,2.8v13.6
				C487.8,511.3,486.6,512.6,485.1,512.6z M471.5,494.7c-0.9,0-1.6,0.7-1.6,1.6v13.6c0,0.9,0.7,1.6,1.6,1.6h13.6
				c0.9,0,1.6-0.7,1.6-1.6v-13.6c0-0.9-0.7-1.6-1.6-1.6H471.5z"/>
			<path class="st7" d="M442.6,509.8c0,1.2,1,2.2,2.2,2.2h13.6c1.2,0,2.2-1,2.2-2.2v-13.6c0-1.2-1-2.2-2.2-2.2h-13.6
				c-1.2,0-2.2,1-2.2,2.2V509.8z"/>
			<path class="st7" d="M458.3,512.6h-13.6c-1.5,0-2.8-1.3-2.8-2.8v-13.6c0-1.5,1.3-2.8,2.8-2.8h13.6c1.5,0,2.8,1.3,2.8,2.8v13.6
				C461.1,511.3,459.9,512.6,458.3,512.6z M444.7,494.7c-0.9,0-1.6,0.7-1.6,1.6v13.6c0,0.9,0.7,1.6,1.6,1.6h13.6
				c0.9,0,1.6-0.7,1.6-1.6v-13.6c0-0.9-0.7-1.6-1.6-1.6H444.7z"/>
			<path class="st7" d="M494.3,534.6c0,1.2,1.2,2.2,2.6,2.2H513c1.4,0,2.6-1,2.6-2.2V521c0-1.2-1.2-2.2-2.6-2.2h-16.1
				c-1.4,0-2.6,1-2.6,2.2V534.6z"/>
			<path class="st7" d="M513,537.3h-16.1c-1.8,0-3.2-1.3-3.2-2.8V521c0-1.5,1.4-2.8,3.2-2.8H513c1.8,0,3.2,1.3,3.2,2.8v13.6
				C516.2,536.1,514.7,537.3,513,537.3z M496.9,519.4c-1.1,0-2,0.7-2,1.6v13.6c0,0.9,0.9,1.6,2,1.6H513c1.1,0,2-0.7,2-1.6V521
				c0-0.9-0.9-1.6-2-1.6H496.9z"/>
			<path class="st7" d="M467.6,534.6c0,1.2,1,2.2,2.2,2.2h13.6c1.2,0,2.2-1,2.2-2.2V521c0-1.2-1-2.2-2.2-2.2h-13.6
				c-1.2,0-2.2,1-2.2,2.2V534.6z"/>
			<path class="st7" d="M483.3,537.3h-13.6c-1.5,0-2.8-1.3-2.8-2.8V521c0-1.5,1.3-2.8,2.8-2.8h13.6c1.5,0,2.8,1.3,2.8,2.8v13.6
				C486.1,536.1,484.9,537.3,483.3,537.3z M469.7,519.4c-0.9,0-1.6,0.7-1.6,1.6v13.6c0,0.9,0.7,1.6,1.6,1.6h13.6
				c0.9,0,1.6-0.7,1.6-1.6V521c0-0.9-0.7-1.6-1.6-1.6H469.7z"/>
			<path class="st7" d="M681.9,534.6c0,1.2-1.2,2.2-2.6,2.2h-16.1c-1.4,0-2.6-1-2.6-2.2V521c0-1.2,1.2-2.2,2.6-2.2h16.1
				c1.4,0,2.6,1,2.6,2.2V534.6z"/>
			<path class="st7" d="M679.3,537.3h-16.1c-1.8,0-3.2-1.3-3.2-2.8V521c0-1.5,1.4-2.8,3.2-2.8h16.1c1.8,0,3.2,1.3,3.2,2.8v13.6
				C682.5,536.1,681,537.3,679.3,537.3z M663.2,519.4c-1.1,0-2,0.7-2,1.6v13.6c0,0.9,0.9,1.6,2,1.6h16.1c1.1,0,2-0.7,2-1.6V521
				c0-0.9-0.9-1.6-2-1.6H663.2z"/>
			<path class="st7" d="M708.6,534.6c0,1.2-1,2.2-2.2,2.2h-13.6c-1.2,0-2.2-1-2.2-2.2V521c0-1.2,1-2.2,2.2-2.2h13.6
				c1.2,0,2.2,1,2.2,2.2V534.6z"/>
			<path class="st7" d="M706.4,537.3h-13.6c-1.5,0-2.8-1.3-2.8-2.8V521c0-1.5,1.3-2.8,2.8-2.8h13.6c1.5,0,2.8,1.3,2.8,2.8v13.6
				C709.2,536.1,708,537.3,706.4,537.3z M692.8,519.4c-0.9,0-1.6,0.7-1.6,1.6v13.6c0,0.9,0.7,1.6,1.6,1.6h13.6
				c0.9,0,1.6-0.7,1.6-1.6V521c0-0.9-0.7-1.6-1.6-1.6H692.8z"/>
			<path class="st7" d="M440.8,534.6c0,1.2,1,2.2,2.2,2.2h13.6c1.2,0,2.2-1,2.2-2.2V521c0-1.2-1-2.2-2.2-2.2H443
				c-1.2,0-2.2,1-2.2,2.2V534.6z"/>
			<path class="st7" d="M456.6,537.3H443c-1.5,0-2.8-1.3-2.8-2.8V521c0-1.5,1.3-2.8,2.8-2.8h13.6c1.5,0,2.8,1.3,2.8,2.8v13.6
				C459.4,536.1,458.1,537.3,456.6,537.3z M443,519.4c-0.9,0-1.6,0.7-1.6,1.6v13.6c0,0.9,0.7,1.6,1.6,1.6h13.6
				c0.9,0,1.6-0.7,1.6-1.6V521c0-0.9-0.7-1.6-1.6-1.6H443z"/>
			<path class="st7" d="M414.1,534.6c0,1.2,1,2.2,2.2,2.2h13.6c1.2,0,2.2-1,2.2-2.2V521c0-1.2-1-2.2-2.2-2.2h-13.6
				c-1.2,0-2.2,1-2.2,2.2V534.6z"/>
			<path class="st7" d="M429.9,537.3h-13.6c-1.5,0-2.8-1.3-2.8-2.8V521c0-1.5,1.3-2.8,2.8-2.8h13.6c1.5,0,2.8,1.3,2.8,2.8v13.6
				C432.6,536.1,431.4,537.3,429.9,537.3z M416.3,519.4c-0.9,0-1.6,0.7-1.6,1.6v13.6c0,0.9,0.7,1.6,1.6,1.6h13.6
				c0.9,0,1.6-0.7,1.6-1.6V521c0-0.9-0.7-1.6-1.6-1.6H416.3z"/>
			<path class="st7" d="M413.7,509.8c0,1.2,1.1,2.2,2.5,2.2H432c1.4,0,2.5-1,2.5-2.2v-13.6c0-1.2-1.1-2.2-2.5-2.2h-15.8
				c-1.4,0-2.5,1-2.5,2.2V509.8z"/>
			<path class="st7" d="M431.9,512.6h-15.8c-1.7,0-3.1-1.3-3.1-2.8v-13.6c0-1.5,1.4-2.8,3.1-2.8h15.8c1.7,0,3.1,1.3,3.1,2.8v13.6
				C435.1,511.3,433.7,512.6,431.9,512.6z M416.2,494.7c-1,0-1.9,0.7-1.9,1.6v13.6c0,0.9,0.9,1.6,1.9,1.6H432c1,0,1.9-0.7,1.9-1.6
				v-13.6c0-0.9-0.9-1.6-1.9-1.6H416.2z"/>
			<path class="st7" d="M788.7,446.7c0-1.2-1-2.2-2.2-2.2H773c-1.2,0-2.2,1-2.2,2.2v13.6c0,1.2,1,2.2,2.2,2.2h3v21
				c0,2,0.7,3.7,1.5,3.7h9.5c0.8,0,1.5-1.7,1.5-3.7V461c0.1-0.2,0.1-0.4,0.1-0.6L788.7,446.7L788.7,446.7z"/>
			<path class="st7" d="M787.1,487.8h-9.5c-1.4,0-2.1-2.2-2.1-4.3v-20.4H773c-1.5,0-2.8-1.3-2.8-2.8v-13.6c0-1.5,1.3-2.8,2.8-2.8
				h13.6c1.5,0,2.8,1.3,2.8,2.8v13.6c0,0.2,0,0.5-0.1,0.7v22.4C789.3,485.6,788.5,487.8,787.1,487.8z M773,445.2
				c-0.9,0-1.6,0.7-1.6,1.6v13.6c0,0.9,0.7,1.6,1.6,1.6h3.7v21.6c0,2,0.7,3.1,0.9,3.1h9.5c0.2,0,0.9-1.1,0.9-3.1v-22.7
				c0.1-0.2,0.1-0.3,0.1-0.5v-13.6c0-0.9-0.7-1.6-1.6-1.6H773z"/>
			<path class="st7" d="M750.3,485c0,1.2,1,2.2,2.2,2.2H766c1.2,0,2.2-1,2.2-2.2v-13.6c0-1.2-1-2.2-2.2-2.2h-13.6
				c-1.2,0-2.2,1-2.2,2.2L750.3,485L750.3,485z"/>
			<path class="st7" d="M766,487.8h-13.6c-1.5,0-2.8-1.3-2.8-2.8v-13.6c0-1.5,1.3-2.8,2.8-2.8H766c1.5,0,2.8,1.3,2.8,2.8V485
				C768.8,486.6,767.6,487.8,766,487.8z M752.5,469.9c-0.9,0-1.6,0.7-1.6,1.6V485c0,0.9,0.7,1.6,1.6,1.6H766c0.9,0,1.6-0.7,1.6-1.6
				v-13.6c0-0.9-0.7-1.6-1.6-1.6h-13.5V469.9z"/>
			<path class="st7" d="M723.5,485c0,1.2,1,2.2,2.2,2.2h13.6c1.2,0,2.2-1,2.2-2.2v-13.6c0-1.2-1-2.2-2.2-2.2h-13.6
				c-1.2,0-2.2,1-2.2,2.2V485z"/>
			<path class="st7" d="M739.3,487.8h-13.6c-1.5,0-2.8-1.3-2.8-2.8v-13.6c0-1.5,1.3-2.8,2.8-2.8h13.6c1.5,0,2.8,1.3,2.8,2.8V485
				C742.1,486.6,740.8,487.8,739.3,487.8z M725.7,469.9c-0.9,0-1.6,0.7-1.6,1.6V485c0,0.9,0.7,1.6,1.6,1.6h13.6
				c0.9,0,1.6-0.7,1.6-1.6v-13.6c0-0.9-0.7-1.6-1.6-1.6h-13.6V469.9z"/>
			<path class="st7" d="M696.8,485c0,1.2,1,2.2,2.2,2.2h13.6c1.2,0,2.2-1,2.2-2.2v-13.6c0-1.2-1-2.2-2.2-2.2H699
				c-1.2,0-2.2,1-2.2,2.2V485z"/>
			<path class="st7" d="M712.6,487.8H699c-1.5,0-2.8-1.3-2.8-2.8v-13.6c0-1.5,1.3-2.8,2.8-2.8h13.6c1.5,0,2.8,1.3,2.8,2.8V485
				C715.3,486.6,714.1,487.8,712.6,487.8z M699,469.9c-0.9,0-1.6,0.7-1.6,1.6V485c0,0.9,0.7,1.6,1.6,1.6h13.6c0.9,0,1.6-0.7,1.6-1.6
				v-13.6c0-0.9-0.7-1.6-1.6-1.6H699V469.9z"/>
			<path class="st7" d="M670.1,485c0,1.2,1,2.2,2.2,2.2h13.6c1.2,0,2.2-1,2.2-2.2v-13.6c0-1.2-1-2.2-2.2-2.2h-13.6
				c-1.2,0-2.2,1-2.2,2.2V485z"/>
			<path class="st7" d="M685.8,487.8h-13.6c-1.5,0-2.8-1.3-2.8-2.8v-13.6c0-1.5,1.3-2.8,2.8-2.8h13.6c1.5,0,2.8,1.3,2.8,2.8V485
				C688.6,486.6,687.4,487.8,685.8,487.8z M672.2,469.9c-0.9,0-1.6,0.7-1.6,1.6V485c0,0.9,0.7,1.6,1.6,1.6h13.6
				c0.9,0,1.6-0.7,1.6-1.6v-13.6c0-0.9-0.7-1.6-1.6-1.6h-13.6V469.9z"/>
			<path class="st7" d="M643.3,485c0,1.2,1,2.2,2.2,2.2h13.6c1.2,0,2.2-1,2.2-2.2v-13.6c0-1.2-1-2.2-2.2-2.2h-13.6
				c-1.2,0-2.2,1-2.2,2.2V485z"/>
			<path class="st7" d="M659.1,487.8h-13.6c-1.5,0-2.8-1.3-2.8-2.8v-13.6c0-1.5,1.3-2.8,2.8-2.8h13.6c1.5,0,2.8,1.3,2.8,2.8V485
				C661.9,486.6,660.6,487.8,659.1,487.8z M645.5,469.9c-0.9,0-1.6,0.7-1.6,1.6V485c0,0.9,0.7,1.6,1.6,1.6h13.6
				c0.9,0,1.6-0.7,1.6-1.6v-13.6c0-0.9-0.7-1.6-1.6-1.6h-13.6V469.9z"/>
			<path class="st7" d="M616.6,485c0,1.2,1,2.2,2.2,2.2h13.6c1.2,0,2.2-1,2.2-2.2v-13.6c0-1.2-1-2.2-2.2-2.2h-13.6
				c-1.2,0-2.2,1-2.2,2.2V485z"/>
			<path class="st7" d="M632.3,487.8h-13.6c-1.5,0-2.8-1.3-2.8-2.8v-13.6c0-1.5,1.3-2.8,2.8-2.8h13.6c1.5,0,2.8,1.3,2.8,2.8V485
				C635.1,486.6,633.9,487.8,632.3,487.8z M618.8,469.9c-0.9,0-1.6,0.7-1.6,1.6V485c0,0.9,0.7,1.6,1.6,1.6h13.6
				c0.9,0,1.6-0.7,1.6-1.6v-13.6c0-0.9-0.7-1.6-1.6-1.6h-13.6V469.9z"/>
			<path class="st7" d="M589.9,485c0,1.2,1,2.2,2.2,2.2h13.6c1.2,0,2.2-1,2.2-2.2v-13.6c0-1.2-1-2.2-2.2-2.2H592
				c-1.2,0-2.2,1-2.2,2.2V485H589.9z"/>
			<path class="st7" d="M605.6,487.8H592c-1.5,0-2.8-1.3-2.8-2.8v-13.6c0-1.5,1.3-2.8,2.8-2.8h13.6c1.5,0,2.8,1.3,2.8,2.8V485
				C608.4,486.6,607.1,487.8,605.6,487.8z M592,469.9c-0.9,0-1.6,0.7-1.6,1.6V485c0,0.9,0.7,1.6,1.6,1.6h13.6c0.9,0,1.6-0.7,1.6-1.6
				v-13.6c0-0.9-0.7-1.6-1.6-1.6H592V469.9z"/>
			<path class="st7" d="M563.1,485c0,1.2,1,2.2,2.2,2.2h13.6c1.2,0,2.2-1,2.2-2.2v-13.6c0-1.2-1-2.2-2.2-2.2h-13.6
				c-1.2,0-2.2,1-2.2,2.2V485z"/>
			<path class="st7" d="M578.9,487.8h-13.6c-1.5,0-2.8-1.3-2.8-2.8v-13.6c0-1.5,1.3-2.8,2.8-2.8h13.6c1.5,0,2.8,1.3,2.8,2.8V485
				C581.7,486.6,580.4,487.8,578.9,487.8z M565.3,469.9c-0.9,0-1.6,0.7-1.6,1.6V485c0,0.9,0.7,1.6,1.6,1.6h13.6
				c0.9,0,1.6-0.7,1.6-1.6v-13.6c0-0.9-0.7-1.6-1.6-1.6h-13.6V469.9z"/>
			<path class="st7" d="M536.4,485c0,1.2,1,2.2,2.2,2.2h13.6c1.2,0,2.2-1,2.2-2.2v-13.6c0-1.2-1-2.2-2.2-2.2h-13.6
				c-1.2,0-2.2,1-2.2,2.2V485z"/>
			<path class="st7" d="M552.1,487.8h-13.6c-1.5,0-2.8-1.3-2.8-2.8v-13.6c0-1.5,1.3-2.8,2.8-2.8h13.6c1.5,0,2.8,1.3,2.8,2.8V485
				C554.9,486.6,553.7,487.8,552.1,487.8z M538.6,469.9c-0.9,0-1.6,0.7-1.6,1.6V485c0,0.9,0.7,1.6,1.6,1.6h13.6
				c0.9,0,1.6-0.7,1.6-1.6v-13.6c0-0.9-0.7-1.6-1.6-1.6h-13.6V469.9z"/>
			<path class="st7" d="M509.7,485c0,1.2,1,2.2,2.2,2.2h13.6c1.2,0,2.2-1,2.2-2.2v-13.6c0-1.2-1-2.2-2.2-2.2h-13.6
				c-1.2,0-2.2,1-2.2,2.2L509.7,485L509.7,485z"/>
			<path class="st7" d="M525.4,487.8h-13.6c-1.5,0-2.8-1.3-2.8-2.8v-13.6c0-1.5,1.3-2.8,2.8-2.8h13.6c1.5,0,2.8,1.3,2.8,2.8V485
				C528.2,486.6,526.9,487.8,525.4,487.8z M511.8,469.9c-0.9,0-1.6,0.7-1.6,1.6V485c0,0.9,0.7,1.6,1.6,1.6h13.6
				c0.9,0,1.6-0.7,1.6-1.6v-13.6c0-0.9-0.7-1.6-1.6-1.6h-13.6V469.9z"/>
			<path class="st7" d="M482.9,485c0,1.2,1,2.2,2.2,2.2h13.6c1.2,0,2.2-1,2.2-2.2v-13.6c0-1.2-1-2.2-2.2-2.2h-13.6
				c-1.2,0-2.2,1-2.2,2.2V485z"/>
			<path class="st7" d="M498.7,487.8h-13.6c-1.5,0-2.8-1.3-2.8-2.8v-13.6c0-1.5,1.3-2.8,2.8-2.8h13.6c1.5,0,2.8,1.3,2.8,2.8V485
				C501.5,486.6,500.2,487.8,498.7,487.8z M485.1,469.9c-0.9,0-1.6,0.7-1.6,1.6V485c0,0.9,0.7,1.6,1.6,1.6h13.6
				c0.9,0,1.6-0.7,1.6-1.6v-13.6c0-0.9-0.7-1.6-1.6-1.6h-13.6V469.9z"/>
			<path class="st7" d="M456.2,485c0,1.2,1,2.2,2.2,2.2H472c1.2,0,2.2-1,2.2-2.2v-13.6c0-1.2-1-2.2-2.2-2.2h-13.6
				c-1.2,0-2.2,1-2.2,2.2V485z"/>
			<path class="st7" d="M471.9,487.8h-13.6c-1.5,0-2.8-1.3-2.8-2.8v-13.6c0-1.5,1.3-2.8,2.8-2.8h13.6c1.5,0,2.8,1.3,2.8,2.8V485
				C474.7,486.6,473.5,487.8,471.9,487.8z M458.4,469.9c-0.9,0-1.6,0.7-1.6,1.6V485c0,0.9,0.7,1.6,1.6,1.6H472
				c0.9,0,1.6-0.7,1.6-1.6v-13.6c0-0.9-0.7-1.6-1.6-1.6h-13.6V469.9z"/>
			<path class="st7" d="M413.7,485c0,1.2,1.8,2.2,4.1,2.2h25.6c2.3,0,4.1-1,4.1-2.2v-13.6c0-1.2-1.8-2.2-4.1-2.2h-25.6
				c-2.3,0-4.1,1-4.1,2.2V485z"/>
			<path class="st7" d="M443.4,487.8h-25.6c-2.6,0-4.7-1.2-4.7-2.8v-13.6c0-1.6,2.1-2.8,4.7-2.8h25.6c2.6,0,4.7,1.2,4.7,2.8V485
				C448.1,486.6,446,487.8,443.4,487.8z M417.8,469.9c-2,0-3.5,0.8-3.5,1.6V485c0,0.7,1.5,1.6,3.5,1.6h25.6c2,0,3.5-0.8,3.5-1.6
				v-13.6c0-0.7-1.5-1.6-3.5-1.6h-25.6V469.9z"/>
			<path class="st7" d="M789.2,509.8c0,1.3-1.1,2.4-2.6,2.4H739c-1.4,0-2.6-1.1-2.6-2.4v-13.4c0-1.3,1.1-2.4,2.6-2.4h47.7
				c1.4,0,2.6,1.1,2.6,2.4L789.2,509.8L789.2,509.8z"/>
			<path class="st7" d="M786.6,512.8H739c-1.8,0-3.2-1.3-3.2-3v-13.4c0-1.6,1.4-3,3.2-3h47.7c1.8,0,3.2,1.3,3.2,3v13.4
				C789.8,511.5,788.4,512.8,786.6,512.8z M738.9,494.7c-1.1,0-1.9,0.8-1.9,1.7v13.4c0,1,0.9,1.7,1.9,1.7h47.7
				c1.1,0,1.9-0.8,1.9-1.7v-13.4c0-1-0.9-1.7-1.9-1.7H738.9z"/>
			<path class="st7" d="M652.2,534.6c0,1.3-1.1,2.4-2.5,2.4H526.8c-1.4,0-2.5-1.1-2.5-2.4v-13.4c0-1.3,1.1-2.4,2.5-2.4h122.9
				c1.4,0,2.5,1.1,2.5,2.4V534.6z"/>
			<path class="st7" d="M649.8,537.6h-123c-1.7,0-3.1-1.3-3.1-3v-13.4c0-1.6,1.4-3,3.1-3h122.9c1.7,0,3.1,1.3,3.1,3v13.4
				C652.9,536.2,651.5,537.6,649.8,537.6z M526.8,519.4c-1,0-1.9,0.8-1.9,1.7v13.4c0,1,0.8,1.7,1.9,1.7h122.9c1,0,1.9-0.8,1.9-1.7
				v-13.4c0-1-0.8-1.7-1.9-1.7H526.8z"/>
		</g>
		<g>
			<g>
				<g>
					<path class="st9" d="M430.9,407.1c0,1-0.7,1.8-1.6,1.8h-15.6c-0.9,0-1.6-0.8-1.6-1.8v-5.9c0-1,0.7-1.8,1.6-1.8h15.6
						c0.9,0,1.6,0.8,1.6,1.8V407.1z"/>
					<path class="st9" d="M429.4,409.5h-15.6c-1.2,0-2.2-1.1-2.2-2.4v-5.9c0-1.3,1-2.4,2.2-2.4h15.6c1.2,0,2.2,1.1,2.2,2.4v5.9
						C431.6,408.4,430.6,409.5,429.4,409.5z M413.8,400c-0.5,0-0.9,0.5-0.9,1.2v5.9c0,0.7,0.4,1.2,0.9,1.2h15.6
						c0.5,0,0.9-0.5,0.9-1.2v-5.9c0-0.7-0.4-1.2-0.9-1.2H413.8z"/>
				</g>
				<g>
					<path class="st9" d="M458.2,407.1c0,1-0.7,1.8-1.6,1.8H441c-0.9,0-1.6-0.8-1.6-1.8v-5.9c0-1,0.7-1.8,1.6-1.8h15.6
						c0.9,0,1.6,0.8,1.6,1.8V407.1z"/>
					<path class="st9" d="M456.7,409.5h-15.6c-1.2,0-2.2-1.1-2.2-2.4v-5.9c0-1.3,1-2.4,2.2-2.4h15.6c1.2,0,2.2,1.1,2.2,2.4v5.9
						C458.9,408.4,457.9,409.5,456.7,409.5z M441.1,400c-0.5,0-0.9,0.6-0.9,1.2v5.9c0,0.7,0.4,1.2,0.9,1.2h15.6
						c0.5,0,0.9-0.5,0.9-1.2v-5.9c0-0.7-0.4-1.2-0.9-1.2H441.1z"/>
				</g>
				<g>
					<path class="st9" d="M485.6,407.1c0,1-0.7,1.8-1.6,1.8h-15.6c-0.9,0-1.6-0.8-1.6-1.8v-5.9c0-1,0.7-1.8,1.6-1.8H484
						c0.9,0,1.6,0.8,1.6,1.8V407.1z"/>
					<path class="st9" d="M484,409.5h-15.6c-1.2,0-2.2-1.1-2.2-2.4v-5.9c0-1.3,1-2.4,2.2-2.4H484c1.2,0,2.2,1.1,2.2,2.4v5.9
						C486.2,408.4,485.2,409.5,484,409.5z M468.5,400c-0.5,0-0.9,0.5-0.9,1.2v5.9c0,0.7,0.4,1.2,0.9,1.2H484c0.5,0,0.9-0.5,0.9-1.2
						v-5.9c0-0.7-0.4-1.2-0.9-1.2H468.5z"/>
				</g>
				<g>
					<path class="st9" d="M734.7,534.8c0,0.8-0.7,1.4-1.6,1.4h-15.6c-0.9,0-1.6-0.6-1.6-1.4v-4.4c0-0.8,0.7-1.4,1.6-1.4h15.6
						c0.9,0,1.6,0.6,1.6,1.4V534.8z"/>
					<path class="st9" d="M733.2,536.8h-15.6c-1.2,0-2.2-0.9-2.2-2v-4.4c0-1.1,1-2,2.2-2h15.6c1.2,0,2.2,0.9,2.2,2v4.4
						C735.4,535.9,734.4,536.8,733.2,536.8z M717.6,529.6c-0.5,0-0.9,0.3-0.9,0.7v4.4c0,0.4,0.4,0.7,0.9,0.7h15.6
						c0.5,0,0.9-0.3,0.9-0.7v-4.4c0-0.4-0.4-0.7-0.9-0.7H717.6z"/>
				</g>
				<g>
					<path class="st9" d="M762.1,534.8c0,0.8-0.7,1.4-1.6,1.4h-15.6c-0.9,0-1.6-0.6-1.6-1.4v-4.4c0-0.8,0.7-1.4,1.6-1.4h15.6
						c0.9,0,1.6,0.6,1.6,1.4V534.8z"/>
					<path class="st9" d="M760.5,536.8h-15.6c-1.2,0-2.2-0.9-2.2-2v-4.4c0-1.1,1-2,2.2-2h15.6c1.2,0,2.2,0.9,2.2,2v4.4
						C762.7,535.9,761.7,536.8,760.5,536.8z M744.9,529.6c-0.5,0-0.9,0.3-0.9,0.7v4.4c0,0.4,0.4,0.7,0.9,0.7h15.6
						c0.5,0,0.9-0.3,0.9-0.7v-4.4c0-0.4-0.4-0.7-0.9-0.7H744.9z"/>
				</g>
				<g>
					<path class="st9" d="M762.1,527.4c0,0.8-0.7,1.4-1.6,1.4h-15.6c-0.9,0-1.6-0.6-1.6-1.4V523c0-0.8,0.7-1.4,1.6-1.4h15.6
						c0.9,0,1.6,0.6,1.6,1.4V527.4z"/>
					<path class="st9" d="M760.5,529.4h-15.6c-1.2,0-2.2-0.9-2.2-2V523c0-1.1,1-2,2.2-2h15.6c1.2,0,2.2,0.9,2.2,2v4.4
						C762.7,528.5,761.7,529.4,760.5,529.4z M744.9,522.2c-0.5,0-0.9,0.3-0.9,0.7v4.4c0,0.4,0.4,0.7,0.9,0.7h15.6
						c0.5,0,0.9-0.3,0.9-0.7v-4.4c0-0.4-0.4-0.7-0.9-0.7H744.9z"/>
				</g>
				<g>
					<path class="st9" d="M789.4,534.8c0,0.8-0.7,1.4-1.6,1.4h-15.6c-0.9,0-1.6-0.6-1.6-1.4v-4.4c0-0.8,0.7-1.4,1.6-1.4h15.6
						c0.9,0,1.6,0.6,1.6,1.4V534.8z"/>
					<path class="st9" d="M787.8,536.8h-15.6c-1.2,0-2.2-0.9-2.2-2v-4.4c0-1.1,1-2,2.2-2h15.6c1.2,0,2.2,0.9,2.2,2v4.4
						C790,535.9,789,536.8,787.8,536.8z M772.3,529.6c-0.5,0-0.9,0.3-0.9,0.7v4.4c0,0.4,0.4,0.7,0.9,0.7h15.6c0.5,0,0.9-0.3,0.9-0.7
						v-4.4c0-0.4-0.4-0.7-0.9-0.7H772.3z"/>
				</g>
				<g>
					<path class="st9" d="M512.9,407.1c0,1-0.7,1.8-1.6,1.8h-15.6c-0.9,0-1.6-0.8-1.6-1.8v-5.9c0-1,0.7-1.8,1.6-1.8h15.6
						c0.9,0,1.6,0.8,1.6,1.8V407.1z"/>
					<path class="st9" d="M511.3,409.5h-15.6c-1.2,0-2.2-1.1-2.2-2.4v-5.9c0-1.3,1-2.4,2.2-2.4h15.6c1.2,0,2.2,1.1,2.2,2.4v5.9
						C513.5,408.4,512.5,409.5,511.3,409.5z M495.8,400c-0.5,0-0.9,0.5-0.9,1.2v5.9c0,0.7,0.4,1.2,0.9,1.2h15.6
						c0.5,0,0.9-0.5,0.9-1.2v-5.9c0-0.7-0.4-1.2-0.9-1.2H495.8z"/>
				</g>
				<g>
					<path class="st9" d="M540.2,407.1c0,1-0.7,1.8-1.6,1.8H523c-0.9,0-1.6-0.8-1.6-1.8v-5.9c0-1,0.7-1.8,1.6-1.8h15.6
						c0.9,0,1.6,0.8,1.6,1.8V407.1z"/>
					<path class="st9" d="M538.6,409.5H523c-1.2,0-2.2-1.1-2.2-2.4v-5.9c0-1.3,1-2.4,2.2-2.4h15.6c1.2,0,2.2,1.1,2.2,2.4v5.9
						C540.8,408.4,539.8,409.5,538.6,409.5z M523.1,400c-0.5,0-0.9,0.6-0.9,1.2v5.9c0,0.7,0.4,1.2,0.9,1.2h15.6
						c0.5,0,0.9-0.5,0.9-1.2v-5.9c0-0.7-0.4-1.2-0.9-1.2H523.1z"/>
				</g>
				<g>
					<path class="st9" d="M567.5,407.1c0,1-0.7,1.8-1.6,1.8h-15.6c-0.9,0-1.6-0.8-1.6-1.8v-5.9c0-1,0.7-1.8,1.6-1.8H566
						c0.9,0,1.6,0.8,1.6,1.8L567.5,407.1L567.5,407.1z"/>
					<path class="st9" d="M566,409.5h-15.6c-1.2,0-2.2-1.1-2.2-2.4v-5.9c0-1.3,1-2.4,2.2-2.4H566c1.2,0,2.2,1.1,2.2,2.4v5.9
						C568.1,408.4,567.2,409.5,566,409.5z M550.4,400c-0.5,0-0.9,0.6-0.9,1.2v5.9c0,0.7,0.4,1.2,0.9,1.2H566c0.5,0,0.9-0.5,0.9-1.2
						v-5.9c0-0.7-0.4-1.2-0.9-1.2H550.4z"/>
				</g>
				<g>
					<path class="st9" d="M594.8,407.1c0,1-0.7,1.8-1.6,1.8h-15.6c-0.9,0-1.6-0.8-1.6-1.8v-5.9c0-1,0.7-1.8,1.6-1.8h15.6
						c0.9,0,1.6,0.8,1.6,1.8V407.1z"/>
					<path class="st9" d="M593.3,409.5h-15.6c-1.2,0-2.2-1.1-2.2-2.4v-5.9c0-1.3,1-2.4,2.2-2.4h15.6c1.2,0,2.2,1.1,2.2,2.4v5.9
						C595.5,408.4,594.5,409.5,593.3,409.5z M577.7,400c-0.5,0-0.9,0.5-0.9,1.2v5.9c0,0.7,0.4,1.2,0.9,1.2h15.6
						c0.5,0,0.9-0.6,0.9-1.2v-5.9c0-0.6-0.4-1.2-0.9-1.2H577.7z"/>
				</g>
				<g>
					<path class="st9" d="M622.2,407.1c0,1-0.7,1.8-1.6,1.8H605c-0.9,0-1.6-0.8-1.6-1.8v-5.9c0-1,0.7-1.8,1.6-1.8h15.6
						c0.9,0,1.6,0.8,1.6,1.8L622.2,407.1L622.2,407.1z"/>
					<path class="st9" d="M620.6,409.5H605c-1.2,0-2.2-1.1-2.2-2.4v-5.9c0-1.3,1-2.4,2.2-2.4h15.6c1.2,0,2.2,1.1,2.2,2.4v5.9
						C622.8,408.4,621.8,409.5,620.6,409.5z M605,400c-0.5,0-0.9,0.6-0.9,1.2v5.9c0,0.7,0.4,1.2,0.9,1.2h15.6c0.5,0,0.9-0.5,0.9-1.2
						v-5.9c0-0.7-0.4-1.2-0.9-1.2H605z"/>
				</g>
				<g>
					<path class="st9" d="M649.5,407.1c0,1-0.7,1.8-1.6,1.8h-15.6c-0.9,0-1.6-0.8-1.6-1.8v-5.9c0-1,0.7-1.8,1.6-1.8h15.6
						c0.9,0,1.6,0.8,1.6,1.8V407.1z"/>
					<path class="st9" d="M647.9,409.5h-15.6c-1.2,0-2.2-1.1-2.2-2.4v-5.9c0-1.3,1-2.4,2.2-2.4h15.6c1.2,0,2.2,1.1,2.2,2.4v5.9
						C650.1,408.4,649.1,409.5,647.9,409.5z M632.4,400c-0.5,0-0.9,0.6-0.9,1.2v5.9c0,0.7,0.4,1.2,0.9,1.2H648
						c0.5,0,0.9-0.6,0.9-1.2v-5.9c0-0.6-0.4-1.2-0.9-1.2H632.4z"/>
				</g>
				<g>
					<path class="st9" d="M676.8,407.1c0,1-0.7,1.8-1.6,1.8h-15.6c-0.9,0-1.6-0.8-1.6-1.8v-5.9c0-1,0.7-1.8,1.6-1.8h15.6
						c0.9,0,1.6,0.8,1.6,1.8V407.1z"/>
					<path class="st9" d="M675.2,409.5h-15.6c-1.2,0-2.2-1.1-2.2-2.4v-5.9c0-1.3,1-2.4,2.2-2.4h15.6c1.2,0,2.2,1.1,2.2,2.4v5.9
						C677.4,408.4,676.4,409.5,675.2,409.5z M659.7,400c-0.5,0-0.9,0.5-0.9,1.2v5.9c0,0.7,0.4,1.2,0.9,1.2h15.6
						c0.5,0,0.9-0.6,0.9-1.2v-5.9c0-0.6-0.4-1.2-0.9-1.2H659.7z"/>
				</g>
				<g>
					<path class="st9" d="M704.1,407.1c0,1-0.7,1.8-1.6,1.8H687c-0.9,0-1.6-0.8-1.6-1.8v-5.9c0-1,0.7-1.8,1.6-1.8h15.6
						c0.9,0,1.6,0.8,1.6,1.8L704.1,407.1L704.1,407.1z"/>
					<path class="st9" d="M702.5,409.5H687c-1.2,0-2.2-1.1-2.2-2.4v-5.9c0-1.3,1-2.4,2.2-2.4h15.6c1.2,0,2.2,1.1,2.2,2.4v5.9
						C704.7,408.4,703.7,409.5,702.5,409.5z M687,400c-0.5,0-0.9,0.5-0.9,1.2v5.9c0,0.7,0.4,1.2,0.9,1.2h15.6c0.5,0,0.9-0.6,0.9-1.2
						v-5.9c0-0.6-0.4-1.2-0.9-1.2H687z"/>
				</g>
				<g>
					<path class="st9" d="M731.4,407.1c0,1-0.7,1.8-1.6,1.8h-15.6c-0.9,0-1.6-0.8-1.6-1.8v-5.9c0-1,0.7-1.8,1.6-1.8h15.6
						c0.9,0,1.6,0.8,1.6,1.8V407.1z"/>
					<path class="st9" d="M729.9,409.5h-15.6c-1.2,0-2.2-1.1-2.2-2.4v-5.9c0-1.3,1-2.4,2.2-2.4h15.6c1.2,0,2.2,1.1,2.2,2.4v5.9
						C732,408.4,731.1,409.5,729.9,409.5z M714.3,400c-0.5,0-0.9,0.6-0.9,1.2v5.9c0,0.7,0.4,1.2,0.9,1.2h15.6c0.5,0,0.9-0.5,0.9-1.2
						v-5.9c0-0.7-0.4-1.2-0.9-1.2H714.3z"/>
				</g>
				<g>
					<path class="st9" d="M758.7,407.1c0,1-0.7,1.8-1.6,1.8h-15.6c-0.9,0-1.6-0.8-1.6-1.8v-5.9c0-1,0.7-1.8,1.6-1.8h15.6
						c0.9,0,1.6,0.8,1.6,1.8V407.1z"/>
					<path class="st9" d="M757.2,409.5h-15.6c-1.2,0-2.2-1.1-2.2-2.4v-5.9c0-1.3,1-2.4,2.2-2.4h15.6c1.2,0,2.2,1.1,2.2,2.4v5.9
						C759.4,408.4,758.4,409.5,757.2,409.5z M741.6,400c-0.5,0-0.9,0.6-0.9,1.2v5.9c0,0.7,0.4,1.2,0.9,1.2h15.6
						c0.5,0,0.9-0.6,0.9-1.2v-5.9c0-0.6-0.4-1.2-0.9-1.2H741.6z"/>
				</g>
				<g>
					<path class="st9" d="M786.1,407.1c0,1-0.7,1.8-1.6,1.8h-15.6c-0.9,0-1.6-0.8-1.6-1.8v-5.9c0-1,0.7-1.8,1.6-1.8h15.6
						c0.9,0,1.6,0.8,1.6,1.8V407.1z"/>
					<path class="st9" d="M784.5,409.5h-15.6c-1.2,0-2.2-1.1-2.2-2.4v-5.9c0-1.3,1-2.4,2.2-2.4h15.6c1.2,0,2.2,1.1,2.2,2.4v5.9
						C786.7,408.4,785.7,409.5,784.5,409.5z M768.9,400c-0.5,0-0.9,0.6-0.9,1.2v5.9c0,0.7,0.4,1.2,0.9,1.2h15.6
						c0.5,0,0.9-0.6,0.9-1.2v-5.9c0-0.6-0.4-1.2-0.9-1.2H768.9z"/>
				</g>
				<g>
					<g>
						<g>
							<path class="st9" d="M430.6,434.5c0,1.2-1,2.2-2.2,2.2h-13.6c-1.2,0-2.2-1-2.2-2.2V421c0-1.2,1-2.2,2.2-2.2h13.6
								c1.2,0,2.2,1,2.2,2.2V434.5z"/>
							<path class="st9" d="M428.4,437.3h-13.6c-1.5,0-2.8-1.3-2.8-2.8V421c0-1.5,1.3-2.8,2.8-2.8h13.6c1.5,0,2.8,1.3,2.8,2.8v13.6
								C431.2,436.1,429.9,437.3,428.4,437.3z M414.8,419.4c-0.9,0-1.6,0.7-1.6,1.6v13.6c0,0.9,0.7,1.6,1.6,1.6h13.6
								c0.9,0,1.6-0.7,1.6-1.6V421c0-0.9-0.7-1.6-1.6-1.6H414.8z"/>
						</g>
						<g>
							<path class="st9" d="M457.3,434.5c0,1.2-1,2.2-2.2,2.2h-13.6c-1.2,0-2.2-1-2.2-2.2V421c0-1.2,1-2.2,2.2-2.2h13.6
								c1.2,0,2.2,1,2.2,2.2V434.5z"/>
							<path class="st9" d="M455.1,437.3h-13.6c-1.5,0-2.8-1.3-2.8-2.8V421c0-1.5,1.3-2.8,2.8-2.8h13.6c1.5,0,2.8,1.3,2.8,2.8v13.6
								C457.9,436.1,456.7,437.3,455.1,437.3z M441.6,419.4c-0.9,0-1.6,0.7-1.6,1.6v13.6c0,0.9,0.7,1.6,1.6,1.6h13.6
								c0.9,0,1.6-0.7,1.6-1.6V421c0-0.9-0.7-1.6-1.6-1.6H441.6z"/>
						</g>
						<g>
							<path class="st9" d="M484,434.5c0,1.2-1,2.2-2.2,2.2h-13.6c-1.2,0-2.2-1-2.2-2.2V421c0-1.2,1-2.2,2.2-2.2h13.6
								c1.2,0,2.2,1,2.2,2.2V434.5z"/>
							<path class="st9" d="M481.9,437.3h-13.6c-1.5,0-2.8-1.3-2.8-2.8V421c0-1.5,1.3-2.8,2.8-2.8h13.6c1.5,0,2.8,1.3,2.8,2.8v13.6
								C484.7,436.1,483.4,437.3,481.9,437.3z M468.3,419.4c-0.9,0-1.6,0.7-1.6,1.6v13.6c0,0.9,0.7,1.6,1.6,1.6h13.6
								c0.9,0,1.6-0.7,1.6-1.6V421c0-0.9-0.7-1.6-1.6-1.6H468.3z"/>
						</g>
						<g>
							<path class="st9" d="M510.8,434.5c0,1.2-1,2.2-2.2,2.2H495c-1.2,0-2.2-1-2.2-2.2V421c0-1.2,1-2.2,2.2-2.2h13.6
								c1.2,0,2.2,1,2.2,2.2L510.8,434.5L510.8,434.5z"/>
							<path class="st9" d="M508.6,437.3H495c-1.5,0-2.8-1.3-2.8-2.8V421c0-1.5,1.3-2.8,2.8-2.8h13.6c1.5,0,2.8,1.3,2.8,2.8v13.6
								C511.4,436.1,510.2,437.3,508.6,437.3z M495,419.4c-0.9,0-1.6,0.7-1.6,1.6v13.6c0,0.9,0.7,1.6,1.6,1.6h13.6
								c0.9,0,1.6-0.7,1.6-1.6V421c0-0.9-0.7-1.6-1.6-1.6H495z"/>
						</g>
						<g>
							<path class="st9" d="M537.5,434.5c0,1.2-1,2.2-2.2,2.2h-13.6c-1.2,0-2.2-1-2.2-2.2V421c0-1.2,1-2.2,2.2-2.2h13.6
								c1.2,0,2.2,1,2.2,2.2V434.5z"/>
							<path class="st9" d="M535.3,437.3h-13.6c-1.5,0-2.8-1.3-2.8-2.8V421c0-1.5,1.3-2.8,2.8-2.8h13.6c1.5,0,2.8,1.3,2.8,2.8v13.6
								C538.1,436.1,536.9,437.3,535.3,437.3z M521.8,419.4c-0.9,0-1.6,0.7-1.6,1.6v13.6c0,0.9,0.7,1.6,1.6,1.6h13.6
								c0.9,0,1.6-0.7,1.6-1.6V421c0-0.9-0.7-1.6-1.6-1.6H521.8z"/>
						</g>
						<g>
							<path class="st9" d="M564.3,434.5c0,1.2-1,2.2-2.2,2.2h-13.6c-1.2,0-2.2-1-2.2-2.2V421c0-1.2,1-2.2,2.2-2.2h13.6
								c1.2,0,2.2,1,2.2,2.2V434.5z"/>
							<path class="st9" d="M562.1,437.3h-13.6c-1.5,0-2.8-1.3-2.8-2.8V421c0-1.5,1.3-2.8,2.8-2.8h13.6c1.5,0,2.8,1.3,2.8,2.8v13.6
								C564.9,436.1,563.6,437.3,562.1,437.3z M548.5,419.4c-0.9,0-1.6,0.7-1.6,1.6v13.6c0,0.9,0.7,1.6,1.6,1.6h13.6
								c0.9,0,1.6-0.7,1.6-1.6V421c0-0.9-0.7-1.6-1.6-1.6H548.5z"/>
						</g>
						<g>
							<path class="st9" d="M591,434.5c0,1.2-1,2.2-2.2,2.2h-13.6c-1.2,0-2.2-1-2.2-2.2V421c0-1.2,1-2.2,2.2-2.2h13.6
								c1.2,0,2.2,1,2.2,2.2V434.5z"/>
							<path class="st9" d="M588.8,437.3h-13.6c-1.5,0-2.8-1.3-2.8-2.8V421c0-1.5,1.3-2.8,2.8-2.8h13.6c1.5,0,2.8,1.3,2.8,2.8v13.6
								C591.6,436.1,590.4,437.3,588.8,437.3z M575.2,419.4c-0.9,0-1.6,0.7-1.6,1.6v13.6c0,0.9,0.7,1.6,1.6,1.6h13.6
								c0.9,0,1.6-0.7,1.6-1.6V421c0-0.9-0.7-1.6-1.6-1.6H575.2z"/>
						</g>
					</g>
					<g>
						<path class="st9" d="M617.7,434.5c0,1.2-1,2.2-2.2,2.2H602c-1.2,0-2.2-1-2.2-2.2V421c0-1.2,1-2.2,2.2-2.2h13.6
							c1.2,0,2.2,1,2.2,2.2L617.7,434.5L617.7,434.5z"/>
						<path class="st9" d="M615.6,437.3H602c-1.5,0-2.8-1.3-2.8-2.8V421c0-1.5,1.3-2.8,2.8-2.8h13.6c1.5,0,2.8,1.3,2.8,2.8v13.6
							C618.3,436.1,617.1,437.3,615.6,437.3z M602,419.4c-0.9,0-1.6,0.7-1.6,1.6v13.6c0,0.9,0.7,1.6,1.6,1.6h13.6
							c0.9,0,1.6-0.7,1.6-1.6V421c0-0.9-0.7-1.6-1.6-1.6H602z"/>
					</g>
					<g>
						<path class="st9" d="M644.5,434.5c0,1.2-1,2.2-2.2,2.2h-13.6c-1.2,0-2.2-1-2.2-2.2V421c0-1.2,1-2.2,2.2-2.2h13.6
							c1.2,0,2.2,1,2.2,2.2V434.5z"/>
						<path class="st9" d="M642.3,437.3h-13.6c-1.5,0-2.8-1.3-2.8-2.8V421c0-1.5,1.3-2.8,2.8-2.8h13.6c1.5,0,2.8,1.3,2.8,2.8v13.6
							C645.1,436.1,643.8,437.3,642.3,437.3z M628.7,419.4c-0.9,0-1.6,0.7-1.6,1.6v13.6c0,0.9,0.7,1.6,1.6,1.6h13.6
							c0.9,0,1.6-0.7,1.6-1.6V421c0-0.9-0.7-1.6-1.6-1.6H628.7z"/>
					</g>
					<g>
						<path class="st9" d="M671.2,434.5c0,1.2-1,2.2-2.2,2.2h-13.6c-1.2,0-2.2-1-2.2-2.2V421c0-1.2,1-2.2,2.2-2.2H669
							c1.2,0,2.2,1,2.2,2.2V434.5z"/>
						<path class="st9" d="M669,437.3h-13.6c-1.5,0-2.8-1.3-2.8-2.8V421c0-1.5,1.3-2.8,2.8-2.8H669c1.5,0,2.8,1.3,2.8,2.8v13.6
							C671.8,436.1,670.6,437.3,669,437.3z M655.5,419.4c-0.9,0-1.5,0.7-1.5,1.6v13.6c0,0.9,0.7,1.6,1.5,1.6H669
							c0.9,0,1.6-0.7,1.6-1.6V421c0-0.9-0.7-1.6-1.6-1.6H655.5z"/>
					</g>
					<g>
						<path class="st9" d="M697.9,434.5c0,1.2-1,2.2-2.2,2.2h-13.6c-1.2,0-2.2-1-2.2-2.2V421c0-1.2,1-2.2,2.2-2.2h13.6
							c1.2,0,2.2,1,2.2,2.2V434.5z"/>
						<path class="st9" d="M695.8,437.3h-13.6c-1.5,0-2.8-1.3-2.8-2.8V421c0-1.5,1.3-2.8,2.8-2.8h13.6c1.5,0,2.8,1.3,2.8,2.8v13.6
							C698.6,436.1,697.3,437.3,695.8,437.3z M682.2,419.4c-0.9,0-1.6,0.7-1.6,1.6v13.6c0,0.9,0.7,1.6,1.6,1.6h13.6
							c0.9,0,1.6-0.7,1.6-1.6V421c0-0.9-0.7-1.6-1.6-1.6H682.2z"/>
					</g>
					<g>
						<path class="st9" d="M724.7,434.5c0,1.2-1,2.2-2.2,2.2h-13.6c-1.2,0-2.2-1-2.2-2.2V421c0-1.2,1-2.2,2.2-2.2h13.6
							c1.2,0,2.2,1,2.2,2.2V434.5z"/>
						<path class="st9" d="M722.5,437.3h-13.6c-1.5,0-2.8-1.3-2.8-2.8V421c0-1.5,1.3-2.8,2.8-2.8h13.6c1.5,0,2.8,1.3,2.8,2.8v13.6
							C725.3,436.1,724,437.3,722.5,437.3z M708.9,419.4c-0.9,0-1.6,0.7-1.6,1.6v13.6c0,0.9,0.7,1.6,1.6,1.6h13.6
							c0.9,0,1.6-0.7,1.6-1.6V421c0-0.9-0.7-1.6-1.6-1.6H708.9z"/>
					</g>
					<g>
						<path class="st9" d="M751.4,434.5c0,1.2-1,2.2-2.2,2.2h-13.6c-1.2,0-2.2-1-2.2-2.2V421c0-1.2,1-2.2,2.2-2.2h13.6
							c1.2,0,2.2,1,2.2,2.2V434.5z"/>
						<path class="st9" d="M749.2,437.3h-13.6c-1.5,0-2.8-1.3-2.8-2.8V421c0-1.5,1.3-2.8,2.8-2.8h13.6c1.5,0,2.8,1.3,2.8,2.8v13.6
							C752,436.1,750.8,437.3,749.2,437.3z M735.7,419.4c-0.9,0-1.6,0.7-1.6,1.6v13.6c0,0.9,0.7,1.6,1.6,1.6h13.6
							c0.9,0,1.6-0.7,1.6-1.6V421c0-0.9-0.7-1.6-1.6-1.6H735.7z"/>
					</g>
					<g>
						<path class="st9" d="M787.7,434.5c0,1.2-1.4,2.2-3.1,2.2h-19.5c-1.7,0-3.1-1-3.1-2.2V421c0-1.2,1.4-2.2,3.1-2.2h19.5
							c1.7,0,3.1,1,3.1,2.2V434.5z"/>
						<path class="st9" d="M784.6,437.3h-19.5c-2.1,0-3.7-1.2-3.7-2.8V421c0-1.6,1.6-2.8,3.7-2.8h19.5c2.1,0,3.7,1.2,3.7,2.8v13.6
							C788.4,436.1,786.7,437.3,784.6,437.3z M765.1,419.4c-1.4,0-2.5,0.7-2.5,1.6v13.6c0,0.8,1.1,1.6,2.5,1.6h19.5
							c1.4,0,2.5-0.7,2.5-1.6V421c0-0.8-1.1-1.6-2.5-1.6H765.1z"/>
					</g>
				</g>
				<g>
					<g>
						<path class="st9" d="M743.1,459.3c0,1.2,1,2.2,2.2,2.2h13.6c1.2,0,2.2-1,2.2-2.2v-13.6c0-1.2-1-2.2-2.2-2.2h-13.6
							c-1.2,0-2.2,1-2.2,2.2V459.3z"/>
						<path class="st9" d="M758.8,462.1h-13.6c-1.5,0-2.8-1.3-2.8-2.8v-13.6c0-1.5,1.3-2.8,2.8-2.8h13.6c1.5,0,2.8,1.3,2.8,2.8v13.6
							C761.6,460.8,760.4,462.1,758.8,462.1z M745.3,444.2c-0.9,0-1.6,0.7-1.6,1.6v13.6c0,0.9,0.7,1.6,1.6,1.6h13.6
							c0.9,0,1.6-0.7,1.6-1.6v-13.6c0-0.9-0.7-1.6-1.6-1.6H745.3z"/>
					</g>
					<g>
						<path class="st9" d="M716.4,459.3c0,1.2,1,2.2,2.2,2.2h13.6c1.2,0,2.2-1,2.2-2.2v-13.6c0-1.2-1-2.2-2.2-2.2h-13.6
							c-1.2,0-2.2,1-2.2,2.2V459.3z"/>
						<path class="st9" d="M732.1,462.1h-13.6c-1.5,0-2.8-1.3-2.8-2.8v-13.6c0-1.5,1.3-2.8,2.8-2.8h13.6c1.5,0,2.8,1.3,2.8,2.8v13.6
							C734.9,460.8,733.6,462.1,732.1,462.1z M718.5,444.2c-0.9,0-1.6,0.7-1.6,1.6v13.6c0,0.9,0.7,1.6,1.6,1.6h13.6
							c0.9,0,1.6-0.7,1.6-1.6v-13.6c0-0.9-0.7-1.6-1.6-1.6H718.5z"/>
					</g>
					<g>
						<path class="st9" d="M689.6,459.3c0,1.2,1,2.2,2.2,2.2h13.6c1.2,0,2.2-1,2.2-2.2v-13.6c0-1.2-1-2.2-2.2-2.2h-13.6
							c-1.2,0-2.2,1-2.2,2.2V459.3z"/>
						<path class="st9" d="M705.4,462.1h-13.6c-1.5,0-2.8-1.3-2.8-2.8v-13.6c0-1.5,1.3-2.8,2.8-2.8h13.6c1.5,0,2.8,1.3,2.8,2.8v13.6
							C708.2,460.8,706.9,462.1,705.4,462.1z M691.8,444.2c-0.9,0-1.6,0.7-1.6,1.6v13.6c0,0.9,0.7,1.6,1.6,1.6h13.6
							c0.9,0,1.6-0.7,1.6-1.6v-13.6c0-0.9-0.7-1.6-1.6-1.6H691.8z"/>
					</g>
					<g>
						<path class="st9" d="M662.9,459.3c0,1.2,1,2.2,2.2,2.2h13.6c1.2,0,2.2-1,2.2-2.2v-13.6c0-1.2-1-2.2-2.2-2.2h-13.6
							c-1.2,0-2.2,1-2.2,2.2V459.3z"/>
						<path class="st9" d="M678.6,462.1H665c-1.5,0-2.8-1.3-2.8-2.8v-13.6c0-1.5,1.3-2.8,2.8-2.8h13.6c1.5,0,2.8,1.3,2.8,2.8v13.6
							C681.4,460.8,680.2,462.1,678.6,462.1z M665.1,444.2c-0.9,0-1.6,0.7-1.6,1.6v13.6c0,0.9,0.7,1.6,1.6,1.6h13.6
							c0.9,0,1.6-0.7,1.6-1.6v-13.6c0-0.9-0.7-1.6-1.6-1.6H665.1z"/>
					</g>
					<g>
						<path class="st9" d="M636.1,459.3c0,1.2,1,2.2,2.2,2.2h13.6c1.2,0,2.2-1,2.2-2.2v-13.6c0-1.2-1-2.2-2.2-2.2h-13.6
							c-1.2,0-2.2,1-2.2,2.2V459.3z"/>
						<path class="st9" d="M651.9,462.1h-13.6c-1.5,0-2.8-1.3-2.8-2.8v-13.6c0-1.5,1.3-2.8,2.8-2.8h13.6c1.5,0,2.8,1.3,2.8,2.8v13.6
							C654.7,460.8,653.4,462.1,651.9,462.1z M638.3,444.2c-0.9,0-1.6,0.7-1.6,1.6v13.6c0,0.9,0.7,1.6,1.6,1.6h13.6
							c0.9,0,1.6-0.7,1.6-1.6v-13.6c0-0.9-0.7-1.6-1.6-1.6H638.3z"/>
					</g>
					<g>
						<path class="st9" d="M609.4,459.3c0,1.2,1,2.2,2.2,2.2h13.6c1.2,0,2.2-1,2.2-2.2v-13.6c0-1.2-1-2.2-2.2-2.2h-13.6
							c-1.2,0-2.2,1-2.2,2.2V459.3z"/>
						<path class="st9" d="M625.2,462.1h-13.6c-1.5,0-2.8-1.3-2.8-2.8v-13.6c0-1.5,1.3-2.8,2.8-2.8h13.6c1.5,0,2.8,1.3,2.8,2.8v13.6
							C627.9,460.8,626.7,462.1,625.2,462.1z M611.6,444.2c-0.9,0-1.6,0.7-1.6,1.6v13.6c0,0.9,0.7,1.6,1.6,1.6h13.6
							c0.9,0,1.6-0.7,1.6-1.6v-13.6c0-0.9-0.7-1.6-1.6-1.6H611.6z"/>
					</g>
					<g>
						<path class="st9" d="M582.7,459.3c0,1.2,1,2.2,2.2,2.2h13.6c1.2,0,2.2-1,2.2-2.2v-13.6c0-1.2-1-2.2-2.2-2.2h-13.6
							c-1.2,0-2.2,1-2.2,2.2V459.3z"/>
						<path class="st9" d="M598.4,462.1h-13.6c-1.5,0-2.8-1.3-2.8-2.8v-13.6c0-1.5,1.3-2.8,2.8-2.8h13.6c1.5,0,2.8,1.3,2.8,2.8v13.6
							C601.2,460.8,600,462.1,598.4,462.1z M584.8,444.2c-0.9,0-1.6,0.7-1.6,1.6v13.6c0,0.9,0.7,1.6,1.6,1.6h13.6
							c0.9,0,1.6-0.7,1.6-1.6v-13.6c0-0.9-0.7-1.6-1.6-1.6H584.8z"/>
					</g>
					<g>
						<path class="st9" d="M555.9,459.3c0,1.2,1,2.2,2.2,2.2h13.6c1.2,0,2.2-1,2.2-2.2v-13.6c0-1.2-1-2.2-2.2-2.2h-13.6
							c-1.2,0-2.2,1-2.2,2.2V459.3z"/>
						<path class="st9" d="M571.7,462.1h-13.6c-1.5,0-2.8-1.3-2.8-2.8v-13.6c0-1.5,1.3-2.8,2.8-2.8h13.6c1.5,0,2.8,1.3,2.8,2.8v13.6
							C574.5,460.8,573.2,462.1,571.7,462.1z M558.1,444.2c-0.9,0-1.6,0.7-1.6,1.6v13.6c0,0.9,0.7,1.6,1.6,1.6h13.6
							c0.9,0,1.6-0.7,1.6-1.6v-13.6c0-0.9-0.7-1.6-1.6-1.6H558.1z"/>
					</g>
					<g>
						<path class="st9" d="M529.2,459.3c0,1.2,1,2.2,2.2,2.2H545c1.2,0,2.2-1,2.2-2.2v-13.6c0-1.2-1-2.2-2.2-2.2h-13.6
							c-1.2,0-2.2,1-2.2,2.2V459.3z"/>
						<path class="st9" d="M544.9,462.1h-13.6c-1.5,0-2.8-1.3-2.8-2.8v-13.6c0-1.5,1.3-2.8,2.8-2.8h13.6c1.5,0,2.8,1.3,2.8,2.8v13.6
							C547.7,460.8,546.5,462.1,544.9,462.1z M531.4,444.2c-0.9,0-1.6,0.7-1.6,1.6v13.6c0,0.9,0.7,1.6,1.6,1.6H545
							c0.9,0,1.6-0.7,1.6-1.6v-13.6c0-0.9-0.7-1.6-1.6-1.6H531.4z"/>
					</g>
					<g>
						<path class="st9" d="M502.5,459.3c0,1.2,1,2.2,2.2,2.2h13.6c1.2,0,2.2-1,2.2-2.2v-13.6c0-1.2-1-2.2-2.2-2.2h-13.6
							c-1.2,0-2.2,1-2.2,2.2L502.5,459.3L502.5,459.3z"/>
						<path class="st9" d="M518.2,462.1h-13.6c-1.5,0-2.8-1.3-2.8-2.8v-13.6c0-1.5,1.3-2.8,2.8-2.8h13.6c1.5,0,2.8,1.3,2.8,2.8v13.6
							C521,460.8,519.8,462.1,518.2,462.1z M504.6,444.2c-0.9,0-1.6,0.7-1.6,1.6v13.6c0,0.9,0.7,1.6,1.6,1.6h13.6
							c0.9,0,1.6-0.7,1.6-1.6v-13.6c0-0.9-0.7-1.6-1.6-1.6H504.6z"/>
					</g>
					<g>
						<path class="st9" d="M475.7,459.3c0,1.2,1,2.2,2.2,2.2h13.6c1.2,0,2.2-1,2.2-2.2v-13.6c0-1.2-1-2.2-2.2-2.2h-13.6
							c-1.2,0-2.2,1-2.2,2.2V459.3L475.7,459.3z"/>
						<path class="st9" d="M491.5,462.1h-13.6c-1.5,0-2.8-1.3-2.8-2.8v-13.6c0-1.5,1.3-2.8,2.8-2.8h13.6c1.5,0,2.8,1.3,2.8,2.8v13.6
							C494.3,460.8,493,462.1,491.5,462.1z M477.9,444.2c-0.9,0-1.6,0.7-1.6,1.6v13.6c0,0.9,0.7,1.6,1.6,1.6h13.6
							c0.9,0,1.6-0.7,1.6-1.6v-13.6c0-0.9-0.7-1.6-1.6-1.6H477.9z"/>
					</g>
					<g>
						<path class="st9" d="M449,459.3c0,1.2,1,2.2,2.2,2.2h13.6c1.2,0,2.2-1,2.2-2.2v-13.6c0-1.2-1-2.2-2.2-2.2h-13.6
							c-1.2,0-2.2,1-2.2,2.2V459.3z"/>
						<path class="st9" d="M464.7,462.1h-13.6c-1.5,0-2.8-1.3-2.8-2.8v-13.6c0-1.5,1.3-2.8,2.8-2.8h13.6c1.5,0,2.8,1.3,2.8,2.8v13.6
							C467.5,460.8,466.3,462.1,464.7,462.1z M451.2,444.2c-0.9,0-1.6,0.7-1.6,1.6v13.6c0,0.9,0.7,1.6,1.6,1.6h13.6
							c0.9,0,1.6-0.7,1.6-1.6v-13.6c0-0.9-0.7-1.6-1.6-1.6H451.2z"/>
					</g>
					<g>
						<path class="st9" d="M412.7,459.3c0,1.2,1.4,2.2,3.1,2.2h19.5c1.7,0,3.1-1,3.1-2.2v-13.6c0-1.2-1.4-2.2-3.1-2.2h-19.5
							c-1.7,0-3.1,1-3.1,2.2V459.3z"/>
						<path class="st9" d="M435.3,462.1h-19.5c-2.1,0-3.7-1.2-3.7-2.8v-13.6c0-1.6,1.6-2.8,3.7-2.8h19.5c2.1,0,3.7,1.2,3.7,2.8v13.6
							C439,460.9,437.4,462.1,435.3,462.1z M415.8,444.2c-1.4,0-2.5,0.7-2.5,1.6v13.6c0,0.8,1.1,1.6,2.5,1.6h19.5
							c1.4,0,2.5-0.7,2.5-1.6v-13.6c0-0.8-1.1-1.6-2.5-1.6H415.8z"/>
					</g>
				</g>
				<g>
					<path class="st9" d="M708.9,508.8c0,1.2,1,2.2,2.2,2.2h13.6c1.2,0,2.2-1,2.2-2.2v-13.6c0-1.2-1-2.2-2.2-2.2h-13.6
						c-1.2,0-2.2,1-2.2,2.2V508.8z"/>
					<path class="st9" d="M724.7,511.6h-13.6c-1.5,0-2.8-1.3-2.8-2.8v-13.6c0-1.5,1.3-2.8,2.8-2.8h13.6c1.5,0,2.8,1.3,2.8,2.8v13.6
						C727.5,510.3,726.2,511.6,724.7,511.6z M711.1,493.7c-0.9,0-1.6,0.7-1.6,1.6v13.6c0,0.9,0.7,1.6,1.6,1.6h13.6
						c0.9,0,1.6-0.7,1.6-1.6v-13.6c0-0.9-0.7-1.6-1.6-1.6H711.1z"/>
				</g>
				<g>
					<path class="st9" d="M682.2,508.8c0,1.2,1,2.2,2.2,2.2H698c1.2,0,2.2-1,2.2-2.2v-13.6c0-1.2-1-2.2-2.2-2.2h-13.6
						c-1.2,0-2.2,1-2.2,2.2V508.8z"/>
					<path class="st9" d="M697.9,511.6h-13.6c-1.5,0-2.8-1.3-2.8-2.8v-13.6c0-1.5,1.3-2.8,2.8-2.8h13.6c1.5,0,2.8,1.3,2.8,2.8v13.6
						C700.7,510.3,699.5,511.6,697.9,511.6z M684.4,493.7c-0.9,0-1.6,0.7-1.6,1.6v13.6c0,0.9,0.7,1.6,1.6,1.6H698
						c0.9,0,1.6-0.7,1.6-1.6v-13.6c0-0.9-0.7-1.6-1.6-1.6H684.4z"/>
				</g>
				<g>
					<path class="st9" d="M655.5,508.8c0,1.2,1,2.2,2.2,2.2h13.6c1.2,0,2.2-1,2.2-2.2v-13.6c0-1.2-1-2.2-2.2-2.2h-13.6
						c-1.2,0-2.2,1-2.2,2.2V508.8z"/>
					<path class="st9" d="M671.2,511.6h-13.6c-1.5,0-2.8-1.3-2.8-2.8v-13.6c0-1.5,1.3-2.8,2.8-2.8h13.6c1.5,0,2.8,1.3,2.8,2.8v13.6
						C674,510.3,672.7,511.6,671.2,511.6z M657.6,493.7c-0.9,0-1.6,0.7-1.6,1.6v13.6c0,0.9,0.7,1.6,1.6,1.6h13.6
						c0.9,0,1.6-0.7,1.6-1.6v-13.6c0-0.9-0.7-1.6-1.6-1.6H657.6z"/>
				</g>
				<g>
					<path class="st9" d="M628.7,508.8c0,1.2,1,2.2,2.2,2.2h13.6c1.2,0,2.2-1,2.2-2.2v-13.6c0-1.2-1-2.2-2.2-2.2h-13.6
						c-1.2,0-2.2,1-2.2,2.2V508.8z"/>
					<path class="st9" d="M644.5,511.6h-13.6c-1.5,0-2.8-1.3-2.8-2.8v-13.6c0-1.5,1.3-2.8,2.8-2.8h13.6c1.5,0,2.8,1.3,2.8,2.8v13.6
						C647.3,510.3,646,511.6,644.5,511.6z M630.9,493.7c-0.9,0-1.6,0.7-1.6,1.6v13.6c0,0.9,0.7,1.6,1.6,1.6h13.6
						c0.9,0,1.6-0.7,1.6-1.6v-13.6c0-0.9-0.7-1.6-1.6-1.6H630.9z"/>
				</g>
				<g>
					<path class="st9" d="M602,508.8c0,1.2,1,2.2,2.2,2.2h13.6c1.2,0,2.2-1,2.2-2.2v-13.6c0-1.2-1-2.2-2.2-2.2h-13.6
						c-1.2,0-2.2,1-2.2,2.2V508.8z"/>
					<path class="st9" d="M617.7,511.6h-13.6c-1.5,0-2.8-1.3-2.8-2.8v-13.6c0-1.5,1.3-2.8,2.8-2.8h13.6c1.5,0,2.8,1.3,2.8,2.8v13.6
						C620.5,510.3,619.3,511.6,617.7,511.6z M604.2,493.7c-0.9,0-1.6,0.7-1.6,1.6v13.6c0,0.9,0.7,1.6,1.6,1.6h13.6
						c0.9,0,1.6-0.7,1.6-1.6v-13.6c0-0.9-0.7-1.6-1.6-1.6H604.2z"/>
				</g>
				<g>
					<path class="st9" d="M575.2,508.8c0,1.2,1,2.2,2.2,2.2H591c1.2,0,2.2-1,2.2-2.2v-13.6c0-1.2-1-2.2-2.2-2.2h-13.6
						c-1.2,0-2.2,1-2.2,2.2V508.8z"/>
					<path class="st9" d="M591,511.6h-13.6c-1.5,0-2.8-1.3-2.8-2.8v-13.6c0-1.5,1.3-2.8,2.8-2.8H591c1.5,0,2.8,1.3,2.8,2.8v13.6
						C593.8,510.3,592.5,511.6,591,511.6z M577.4,493.7c-0.9,0-1.6,0.7-1.6,1.6v13.6c0,0.9,0.7,1.6,1.6,1.6H591
						c0.9,0,1.6-0.7,1.6-1.6v-13.6c0-0.9-0.7-1.6-1.6-1.6H577.4z"/>
				</g>
				<g>
					<path class="st9" d="M548.5,508.8c0,1.2,1,2.2,2.2,2.2h13.6c1.2,0,2.2-1,2.2-2.2v-13.6c0-1.2-1-2.2-2.2-2.2h-13.6
						c-1.2,0-2.2,1-2.2,2.2V508.8z"/>
					<path class="st9" d="M564.3,511.6h-13.6c-1.5,0-2.8-1.3-2.8-2.8v-13.6c0-1.5,1.3-2.8,2.8-2.8h13.6c1.5,0,2.8,1.3,2.8,2.8v13.6
						C567.1,510.3,565.8,511.6,564.3,511.6z M550.7,493.7c-0.9,0-1.6,0.7-1.6,1.6v13.6c0,0.9,0.7,1.6,1.6,1.6h13.6
						c0.9,0,1.6-0.7,1.6-1.6v-13.6c0-0.9-0.7-1.6-1.6-1.6H550.7z"/>
				</g>
				<g>
					<g>
						<path class="st9" d="M521.8,508.8c0,1.2,1,2.2,2.2,2.2h13.6c1.2,0,2.2-1,2.2-2.2v-13.6c0-1.2-1-2.2-2.2-2.2H524
							c-1.2,0-2.2,1-2.2,2.2V508.8z"/>
						<path class="st9" d="M537.5,511.6h-13.6c-1.5,0-2.8-1.3-2.8-2.8v-13.6c0-1.5,1.3-2.8,2.8-2.8h13.6c1.5,0,2.8,1.3,2.8,2.8v13.6
							C540.3,510.3,539.1,511.6,537.5,511.6z M523.9,493.7c-0.9,0-1.6,0.7-1.6,1.6v13.6c0,0.9,0.7,1.6,1.6,1.6h13.6
							c0.9,0,1.6-0.7,1.6-1.6v-13.6c0-0.9-0.7-1.6-1.6-1.6H523.9z"/>
					</g>
					<g>
						<path class="st9" d="M495,508.8c0,1.2,1,2.2,2.2,2.2h13.6c1.2,0,2.2-1,2.2-2.2v-13.6c0-1.2-1-2.2-2.2-2.2h-13.6
							c-1.2,0-2.2,1-2.2,2.2L495,508.8L495,508.8z"/>
						<path class="st9" d="M510.8,511.6h-13.6c-1.5,0-2.8-1.3-2.8-2.8v-13.6c0-1.5,1.3-2.8,2.8-2.8h13.6c1.5,0,2.8,1.3,2.8,2.8v13.6
							C513.6,510.3,512.3,511.6,510.8,511.6z M497.2,493.7c-0.9,0-1.6,0.7-1.6,1.6v13.6c0,0.9,0.7,1.6,1.6,1.6h13.6
							c0.9,0,1.6-0.7,1.6-1.6v-13.6c0-0.9-0.7-1.6-1.6-1.6H497.2z"/>
					</g>
					<g>
						<path class="st9" d="M468.3,508.8c0,1.2,1,2.2,2.2,2.2h13.6c1.2,0,2.2-1,2.2-2.2v-13.6c0-1.2-1-2.2-2.2-2.2h-13.6
							c-1.2,0-2.2,1-2.2,2.2V508.8z"/>
						<path class="st9" d="M484.1,511.6h-13.6c-1.5,0-2.8-1.3-2.8-2.8v-13.6c0-1.5,1.3-2.8,2.8-2.8h13.6c1.5,0,2.8,1.3,2.8,2.8v13.6
							C486.8,510.3,485.6,511.6,484.1,511.6z M470.5,493.7c-0.9,0-1.6,0.7-1.6,1.6v13.6c0,0.9,0.7,1.6,1.6,1.6h13.6
							c0.9,0,1.6-0.7,1.6-1.6v-13.6c0-0.9-0.7-1.6-1.6-1.6H470.5z"/>
					</g>
					<g>
						<path class="st9" d="M441.6,508.8c0,1.2,1,2.2,2.2,2.2h13.6c1.2,0,2.2-1,2.2-2.2v-13.6c0-1.2-1-2.2-2.2-2.2h-13.6
							c-1.2,0-2.2,1-2.2,2.2V508.8z"/>
						<path class="st9" d="M457.3,511.6h-13.6c-1.5,0-2.8-1.3-2.8-2.8v-13.6c0-1.5,1.3-2.8,2.8-2.8h13.6c1.5,0,2.8,1.3,2.8,2.8v13.6
							C460.1,510.3,458.9,511.6,457.3,511.6z M443.7,493.7c-0.9,0-1.6,0.7-1.6,1.6v13.6c0,0.9,0.7,1.6,1.6,1.6h13.6
							c0.9,0,1.6-0.7,1.6-1.6v-13.6c0-0.9-0.7-1.6-1.6-1.6H443.7z"/>
					</g>
				</g>
				<g>
					<path class="st9" d="M493.3,533.6c0,1.2,1.2,2.2,2.6,2.2H512c1.4,0,2.6-1,2.6-2.2V520c0-1.2-1.2-2.2-2.6-2.2h-16.1
						c-1.4,0-2.6,1-2.6,2.2L493.3,533.6L493.3,533.6z"/>
					<path class="st9" d="M512,536.3h-16.1c-1.8,0-3.2-1.3-3.2-2.8V520c0-1.5,1.4-2.8,3.2-2.8H512c1.8,0,3.2,1.3,3.2,2.8v13.6
						C515.2,535.1,513.7,536.3,512,536.3z M495.9,518.4c-1.1,0-2,0.7-2,1.6v13.6c0,0.9,0.9,1.6,2,1.6H512c1.1,0,2-0.7,2-1.6V520
						c0-0.9-0.9-1.6-2-1.6H495.9z"/>
				</g>
				<g>
					<path class="st9" d="M466.6,533.6c0,1.2,1,2.2,2.2,2.2h13.6c1.2,0,2.2-1,2.2-2.2V520c0-1.2-1-2.2-2.2-2.2h-13.6
						c-1.2,0-2.2,1-2.2,2.2V533.6z"/>
					<path class="st9" d="M482.3,536.3h-13.6c-1.5,0-2.8-1.3-2.8-2.8V520c0-1.5,1.3-2.8,2.8-2.8h13.6c1.5,0,2.8,1.3,2.8,2.8v13.6
						C485.1,535.1,483.9,536.3,482.3,536.3z M468.7,518.4c-0.9,0-1.6,0.7-1.6,1.6v13.6c0,0.9,0.7,1.6,1.6,1.6h13.6
						c0.9,0,1.6-0.7,1.6-1.6V520c0-0.9-0.7-1.6-1.6-1.6H468.7z"/>
				</g>
				<g>
					<path class="st9" d="M680.9,533.6c0,1.2-1.2,2.2-2.6,2.2h-16.1c-1.4,0-2.6-1-2.6-2.2V520c0-1.2,1.2-2.2,2.6-2.2h16.1
						c1.4,0,2.6,1,2.6,2.2V533.6z"/>
					<path class="st9" d="M678.3,536.3h-16.1c-1.8,0-3.2-1.3-3.2-2.8V520c0-1.5,1.4-2.8,3.2-2.8h16.1c1.8,0,3.2,1.3,3.2,2.8v13.6
						C681.5,535.1,680,536.3,678.3,536.3z M662.2,518.4c-1.1,0-2,0.7-2,1.6v13.6c0,0.9,0.9,1.6,2,1.6h16.1c1.1,0,2-0.7,2-1.6V520
						c0-0.9-0.9-1.6-2-1.6H662.2z"/>
				</g>
				<g>
					<path class="st9" d="M707.6,533.6c0,1.2-1,2.2-2.2,2.2h-13.6c-1.2,0-2.2-1-2.2-2.2V520c0-1.2,1-2.2,2.2-2.2h13.6
						c1.2,0,2.2,1,2.2,2.2V533.6z"/>
					<path class="st9" d="M705.4,536.3h-13.6c-1.5,0-2.8-1.3-2.8-2.8V520c0-1.5,1.3-2.8,2.8-2.8h13.6c1.5,0,2.8,1.3,2.8,2.8v13.6
						C708.2,535.1,707,536.3,705.4,536.3z M691.8,518.4c-0.9,0-1.6,0.7-1.6,1.6v13.6c0,0.9,0.7,1.6,1.6,1.6h13.6
						c0.9,0,1.6-0.7,1.6-1.6V520c0-0.9-0.7-1.6-1.6-1.6H691.8z"/>
				</g>
				<g>
					<path class="st9" d="M439.8,533.6c0,1.2,1,2.2,2.2,2.2h13.6c1.2,0,2.2-1,2.2-2.2V520c0-1.2-1-2.2-2.2-2.2H442
						c-1.2,0-2.2,1-2.2,2.2V533.6z"/>
					<path class="st9" d="M455.6,536.3H442c-1.5,0-2.8-1.3-2.8-2.8V520c0-1.5,1.3-2.8,2.8-2.8h13.6c1.5,0,2.8,1.3,2.8,2.8v13.6
						C458.4,535.1,457.1,536.3,455.6,536.3z M442,518.4c-0.9,0-1.6,0.7-1.6,1.6v13.6c0,0.9,0.7,1.6,1.6,1.6h13.6
						c0.9,0,1.6-0.7,1.6-1.6V520c0-0.9-0.7-1.6-1.6-1.6H442z"/>
				</g>
				<g>
					<path class="st9" d="M413.1,533.6c0,1.2,1,2.2,2.2,2.2h13.6c1.2,0,2.2-1,2.2-2.2V520c0-1.2-1-2.2-2.2-2.2h-13.6
						c-1.2,0-2.2,1-2.2,2.2V533.6z"/>
					<path class="st9" d="M428.9,536.3h-13.6c-1.5,0-2.8-1.3-2.8-2.8V520c0-1.5,1.3-2.8,2.8-2.8h13.6c1.5,0,2.8,1.3,2.8,2.8v13.6
						C431.6,535.1,430.4,536.3,428.9,536.3z M415.3,518.4c-0.9,0-1.6,0.7-1.6,1.6v13.6c0,0.9,0.7,1.6,1.6,1.6h13.6
						c0.9,0,1.6-0.7,1.6-1.6V520c0-0.9-0.7-1.6-1.6-1.6H415.3z"/>
				</g>
				<g>
					<path class="st9" d="M412.7,508.8c0,1.2,1.1,2.2,2.5,2.2H431c1.4,0,2.5-1,2.5-2.2v-13.6c0-1.2-1.1-2.2-2.5-2.2h-15.8
						c-1.4,0-2.5,1-2.5,2.2V508.8z"/>
					<path class="st9" d="M430.9,511.6h-15.8c-1.7,0-3.1-1.3-3.1-2.8v-13.6c0-1.5,1.4-2.8,3.1-2.8h15.8c1.7,0,3.1,1.3,3.1,2.8v13.6
						C434.1,510.3,432.7,511.6,430.9,511.6z M415.2,493.7c-1,0-1.9,0.7-1.9,1.6v13.6c0,0.9,0.9,1.6,1.9,1.6H431c1,0,1.9-0.7,1.9-1.6
						v-13.6c0-0.9-0.9-1.6-1.9-1.6H415.2z"/>
				</g>
				<g>
					<path class="st9" d="M787.7,445.7c0-1.2-1-2.2-2.2-2.2H772c-1.2,0-2.2,1-2.2,2.2v13.6c0,1.2,1,2.2,2.2,2.2h3v21
						c0,2,0.7,3.7,1.5,3.7h9.5c0.8,0,1.5-1.7,1.5-3.7V460c0.1-0.2,0.1-0.4,0.1-0.6L787.7,445.7L787.7,445.7z"/>
					<path class="st9" d="M786.1,486.8h-9.5c-1.4,0-2.1-2.2-2.1-4.3v-20.4H772c-1.5,0-2.8-1.3-2.8-2.8v-13.6c0-1.5,1.3-2.8,2.8-2.8
						h13.6c1.5,0,2.8,1.3,2.8,2.8v13.6c0,0.2,0,0.5-0.1,0.7v22.4C788.3,484.6,787.5,486.8,786.1,486.8z M772,444.2
						c-0.9,0-1.6,0.7-1.6,1.6v13.6c0,0.9,0.7,1.6,1.6,1.6h3.7v21.6c0,2,0.7,3.1,0.9,3.1h9.5c0.2,0,0.9-1.1,0.9-3.1v-22.7
						c0.1-0.2,0.1-0.3,0.1-0.5v-13.6c0-0.9-0.7-1.6-1.6-1.6H772z"/>
				</g>
				<g>
					<path class="st9" d="M749.3,484c0,1.2,1,2.2,2.2,2.2H765c1.2,0,2.2-1,2.2-2.2v-13.6c0-1.2-1-2.2-2.2-2.2h-13.6
						c-1.2,0-2.2,1-2.2,2.2L749.3,484L749.3,484z"/>
					<path class="st9" d="M765,486.8h-13.6c-1.5,0-2.8-1.3-2.8-2.8v-13.6c0-1.5,1.3-2.8,2.8-2.8H765c1.5,0,2.8,1.3,2.8,2.8V484
						C767.8,485.6,766.6,486.8,765,486.8z M751.5,468.9c-0.9,0-1.6,0.7-1.6,1.6V484c0,0.9,0.7,1.6,1.6,1.6H765
						c0.9,0,1.6-0.7,1.6-1.6v-13.6c0-0.9-0.7-1.6-1.6-1.6h-13.5V468.9z"/>
				</g>
				<g>
					<path class="st9" d="M722.5,484c0,1.2,1,2.2,2.2,2.2h13.6c1.2,0,2.2-1,2.2-2.2v-13.6c0-1.2-1-2.2-2.2-2.2h-13.6
						c-1.2,0-2.2,1-2.2,2.2V484z"/>
					<path class="st9" d="M738.3,486.8h-13.6c-1.5,0-2.8-1.3-2.8-2.8v-13.6c0-1.5,1.3-2.8,2.8-2.8h13.6c1.5,0,2.8,1.3,2.8,2.8V484
						C741.1,485.6,739.8,486.8,738.3,486.8z M724.7,468.9c-0.9,0-1.6,0.7-1.6,1.6V484c0,0.9,0.7,1.6,1.6,1.6h13.6
						c0.9,0,1.6-0.7,1.6-1.6v-13.6c0-0.9-0.7-1.6-1.6-1.6h-13.6V468.9z"/>
				</g>
				<g>
					<path class="st9" d="M695.8,484c0,1.2,1,2.2,2.2,2.2h13.6c1.2,0,2.2-1,2.2-2.2v-13.6c0-1.2-1-2.2-2.2-2.2H698
						c-1.2,0-2.2,1-2.2,2.2V484z"/>
					<path class="st9" d="M711.6,486.8H698c-1.5,0-2.8-1.3-2.8-2.8v-13.6c0-1.5,1.3-2.8,2.8-2.8h13.6c1.5,0,2.8,1.3,2.8,2.8V484
						C714.3,485.6,713.1,486.8,711.6,486.8z M698,468.9c-0.9,0-1.6,0.7-1.6,1.6V484c0,0.9,0.7,1.6,1.6,1.6h13.6
						c0.9,0,1.6-0.7,1.6-1.6v-13.6c0-0.9-0.7-1.6-1.6-1.6H698V468.9z"/>
				</g>
				<g>
					<path class="st9" d="M669.1,484c0,1.2,1,2.2,2.2,2.2h13.6c1.2,0,2.2-1,2.2-2.2v-13.6c0-1.2-1-2.2-2.2-2.2h-13.6
						c-1.2,0-2.2,1-2.2,2.2V484z"/>
					<path class="st9" d="M684.8,486.8h-13.6c-1.5,0-2.8-1.3-2.8-2.8v-13.6c0-1.5,1.3-2.8,2.8-2.8h13.6c1.5,0,2.8,1.3,2.8,2.8V484
						C687.6,485.6,686.4,486.8,684.8,486.8z M671.2,468.9c-0.9,0-1.6,0.7-1.6,1.6V484c0,0.9,0.7,1.6,1.6,1.6h13.6
						c0.9,0,1.6-0.7,1.6-1.6v-13.6c0-0.9-0.7-1.6-1.6-1.6h-13.6V468.9z"/>
				</g>
				<g>
					<path class="st9" d="M642.3,484c0,1.2,1,2.2,2.2,2.2h13.6c1.2,0,2.2-1,2.2-2.2v-13.6c0-1.2-1-2.2-2.2-2.2h-13.6
						c-1.2,0-2.2,1-2.2,2.2V484z"/>
					<path class="st9" d="M658.1,486.8h-13.6c-1.5,0-2.8-1.3-2.8-2.8v-13.6c0-1.5,1.3-2.8,2.8-2.8h13.6c1.5,0,2.8,1.3,2.8,2.8V484
						C660.9,485.6,659.6,486.8,658.1,486.8z M644.5,468.9c-0.9,0-1.6,0.7-1.6,1.6V484c0,0.9,0.7,1.6,1.6,1.6h13.6
						c0.9,0,1.6-0.7,1.6-1.6v-13.6c0-0.9-0.7-1.6-1.6-1.6h-13.6V468.9z"/>
				</g>
				<g>
					<path class="st9" d="M615.6,484c0,1.2,1,2.2,2.2,2.2h13.6c1.2,0,2.2-1,2.2-2.2v-13.6c0-1.2-1-2.2-2.2-2.2h-13.6
						c-1.2,0-2.2,1-2.2,2.2V484z"/>
					<path class="st9" d="M631.3,486.8h-13.6c-1.5,0-2.8-1.3-2.8-2.8v-13.6c0-1.5,1.3-2.8,2.8-2.8h13.6c1.5,0,2.8,1.3,2.8,2.8V484
						C634.1,485.6,632.9,486.8,631.3,486.8z M617.8,468.9c-0.9,0-1.6,0.7-1.6,1.6V484c0,0.9,0.7,1.6,1.6,1.6h13.6
						c0.9,0,1.6-0.7,1.6-1.6v-13.6c0-0.9-0.7-1.6-1.6-1.6h-13.6V468.9z"/>
				</g>
				<g>
					<path class="st9" d="M588.9,484c0,1.2,1,2.2,2.2,2.2h13.6c1.2,0,2.2-1,2.2-2.2v-13.6c0-1.2-1-2.2-2.2-2.2H591
						c-1.2,0-2.2,1-2.2,2.2V484H588.9z"/>
					<path class="st9" d="M604.6,486.8H591c-1.5,0-2.8-1.3-2.8-2.8v-13.6c0-1.5,1.3-2.8,2.8-2.8h13.6c1.5,0,2.8,1.3,2.8,2.8V484
						C607.4,485.6,606.1,486.8,604.6,486.8z M591,468.9c-0.9,0-1.6,0.7-1.6,1.6V484c0,0.9,0.7,1.6,1.6,1.6h13.6
						c0.9,0,1.6-0.7,1.6-1.6v-13.6c0-0.9-0.7-1.6-1.6-1.6H591V468.9z"/>
				</g>
				<g>
					<path class="st9" d="M562.1,484c0,1.2,1,2.2,2.2,2.2h13.6c1.2,0,2.2-1,2.2-2.2v-13.6c0-1.2-1-2.2-2.2-2.2h-13.6
						c-1.2,0-2.2,1-2.2,2.2V484z"/>
					<path class="st9" d="M577.9,486.8h-13.6c-1.5,0-2.8-1.3-2.8-2.8v-13.6c0-1.5,1.3-2.8,2.8-2.8h13.6c1.5,0,2.8,1.3,2.8,2.8V484
						C580.7,485.6,579.4,486.8,577.9,486.8z M564.3,468.9c-0.9,0-1.6,0.7-1.6,1.6V484c0,0.9,0.7,1.6,1.6,1.6h13.6
						c0.9,0,1.6-0.7,1.6-1.6v-13.6c0-0.9-0.7-1.6-1.6-1.6h-13.6V468.9z"/>
				</g>
				<g>
					<path class="st9" d="M535.4,484c0,1.2,1,2.2,2.2,2.2h13.6c1.2,0,2.2-1,2.2-2.2v-13.6c0-1.2-1-2.2-2.2-2.2h-13.6
						c-1.2,0-2.2,1-2.2,2.2V484z"/>
					<path class="st9" d="M551.1,486.8h-13.6c-1.5,0-2.8-1.3-2.8-2.8v-13.6c0-1.5,1.3-2.8,2.8-2.8h13.6c1.5,0,2.8,1.3,2.8,2.8V484
						C553.9,485.6,552.7,486.8,551.1,486.8z M537.6,468.9c-0.9,0-1.6,0.7-1.6,1.6V484c0,0.9,0.7,1.6,1.6,1.6h13.6
						c0.9,0,1.6-0.7,1.6-1.6v-13.6c0-0.9-0.7-1.6-1.6-1.6h-13.6V468.9z"/>
				</g>
				<g>
					<path class="st9" d="M508.7,484c0,1.2,1,2.2,2.2,2.2h13.6c1.2,0,2.2-1,2.2-2.2v-13.6c0-1.2-1-2.2-2.2-2.2h-13.6
						c-1.2,0-2.2,1-2.2,2.2L508.7,484L508.7,484z"/>
					<path class="st9" d="M524.4,486.8h-13.6c-1.5,0-2.8-1.3-2.8-2.8v-13.6c0-1.5,1.3-2.8,2.8-2.8h13.6c1.5,0,2.8,1.3,2.8,2.8V484
						C527.2,485.6,525.9,486.8,524.4,486.8z M510.8,468.9c-0.9,0-1.6,0.7-1.6,1.6V484c0,0.9,0.7,1.6,1.6,1.6h13.6
						c0.9,0,1.6-0.7,1.6-1.6v-13.6c0-0.9-0.7-1.6-1.6-1.6h-13.6V468.9z"/>
				</g>
				<g>
					<path class="st9" d="M481.9,484c0,1.2,1,2.2,2.2,2.2h13.6c1.2,0,2.2-1,2.2-2.2v-13.6c0-1.2-1-2.2-2.2-2.2h-13.6
						c-1.2,0-2.2,1-2.2,2.2V484z"/>
					<path class="st9" d="M497.7,486.8h-13.6c-1.5,0-2.8-1.3-2.8-2.8v-13.6c0-1.5,1.3-2.8,2.8-2.8h13.6c1.5,0,2.8,1.3,2.8,2.8V484
						C500.5,485.6,499.2,486.8,497.7,486.8z M484.1,468.9c-0.9,0-1.6,0.7-1.6,1.6V484c0,0.9,0.7,1.6,1.6,1.6h13.6
						c0.9,0,1.6-0.7,1.6-1.6v-13.6c0-0.9-0.7-1.6-1.6-1.6h-13.6V468.9z"/>
				</g>
				<g>
					<path class="st9" d="M455.2,484c0,1.2,1,2.2,2.2,2.2H471c1.2,0,2.2-1,2.2-2.2v-13.6c0-1.2-1-2.2-2.2-2.2h-13.6
						c-1.2,0-2.2,1-2.2,2.2V484z"/>
					<path class="st9" d="M470.9,486.8h-13.6c-1.5,0-2.8-1.3-2.8-2.8v-13.6c0-1.5,1.3-2.8,2.8-2.8h13.6c1.5,0,2.8,1.3,2.8,2.8V484
						C473.7,485.6,472.5,486.8,470.9,486.8z M457.4,468.9c-0.9,0-1.6,0.7-1.6,1.6V484c0,0.9,0.7,1.6,1.6,1.6H471
						c0.9,0,1.6-0.7,1.6-1.6v-13.6c0-0.9-0.7-1.6-1.6-1.6h-13.6V468.9z"/>
				</g>
				<g>
					<path class="st9" d="M412.7,484c0,1.2,1.8,2.2,4.1,2.2h25.6c2.3,0,4.1-1,4.1-2.2v-13.6c0-1.2-1.8-2.2-4.1-2.2h-25.6
						c-2.3,0-4.1,1-4.1,2.2V484z"/>
					<path class="st9" d="M442.4,486.8h-25.6c-2.6,0-4.7-1.2-4.7-2.8v-13.6c0-1.6,2.1-2.8,4.7-2.8h25.6c2.6,0,4.7,1.2,4.7,2.8V484
						C447.1,485.6,445,486.8,442.4,486.8z M416.8,468.9c-2,0-3.5,0.8-3.5,1.6V484c0,0.7,1.5,1.6,3.5,1.6h25.6c2,0,3.5-0.8,3.5-1.6
						v-13.6c0-0.7-1.5-1.6-3.5-1.6h-25.6V468.9z"/>
				</g>
				<g>
					<path class="st9" d="M788.2,508.8c0,1.3-1.1,2.4-2.6,2.4H738c-1.4,0-2.6-1.1-2.6-2.4v-13.4c0-1.3,1.1-2.4,2.6-2.4h47.7
						c1.4,0,2.6,1.1,2.6,2.4L788.2,508.8L788.2,508.8z"/>
					<path class="st9" d="M785.6,511.8H738c-1.8,0-3.2-1.3-3.2-3v-13.4c0-1.6,1.4-3,3.2-3h47.7c1.8,0,3.2,1.3,3.2,3v13.4
						C788.8,510.5,787.4,511.8,785.6,511.8z M737.9,493.7c-1.1,0-1.9,0.8-1.9,1.7v13.4c0,1,0.9,1.7,1.9,1.7h47.7
						c1.1,0,1.9-0.8,1.9-1.7v-13.4c0-1-0.9-1.7-1.9-1.7H737.9z"/>
				</g>
				<g>
					<path class="st9" d="M651.2,533.6c0,1.3-1.1,2.4-2.5,2.4H525.8c-1.4,0-2.5-1.1-2.5-2.4v-13.4c0-1.3,1.1-2.4,2.5-2.4h122.9
						c1.4,0,2.5,1.1,2.5,2.4V533.6z"/>
					<path class="st9" d="M648.8,536.6h-123c-1.7,0-3.1-1.3-3.1-3v-13.4c0-1.6,1.4-3,3.1-3h122.9c1.7,0,3.1,1.3,3.1,3v13.4
						C651.9,535.2,650.5,536.6,648.8,536.6z M525.8,518.4c-1,0-1.9,0.8-1.9,1.7v13.4c0,1,0.8,1.7,1.9,1.7h122.9c1,0,1.9-0.8,1.9-1.7
						v-13.4c0-1-0.8-1.7-1.9-1.7H525.8z"/>
				</g>
			</g>
		</g>
	</g>
	<g>
		<circle class="st18" cx="685.9" cy="643.7" r="3.1"/>
		<circle class="st18" cx="896.8" cy="569.5" r="1.7"/>
		<g>
			<g class="st19">
				<circle class="st18" cx="1018.8" cy="509.1" r="4.5"/>
				<circle class="st20" cx="1018.8" cy="509.1" r="11.2"/>
				<circle class="st20" cx="1018.8" cy="509.1" r="16.2"/>
				
					<ellipse transform="matrix(0.3827 -0.9239 0.9239 0.3827 158.5747 1255.5239)" class="st20" cx="1018.8" cy="509.1" rx="9.1" ry="9.1"/>
				<circle class="st18" cx="787.2" cy="488.5" r="4.5"/>
				<circle class="st20" cx="787.2" cy="488.5" r="6.5"/>
				<polyline class="st20" points="909.9,450.7 1018.8,509.1 1008.2,600.1 896.9,569.5 787.2,488.5 896.5,520.6 				"/>
				<polyline class="st20" points="896.5,520.6 909.9,450.7 787.2,488.5 682.8,644 896.9,569.5 896.5,520.6 1008.2,600.1 				"/>
				<polyline class="st20" points="682.8,644 896.5,520.6 909.9,450.7 787.2,488.5 				"/>
				
					<rect x="793.2" y="441.4" transform="matrix(0.9956 -9.414268e-02 9.414268e-02 0.9956 -47.4824 90.0622)" class="st21" width="275.1" height="213.7"/>
			</g>
			<polyline class="st22" points="682.8,644 717.3,675.7 685.9,643.7 682.8,644 859.7,649.3 931.5,607.3 896.8,569.5 859.7,649.3 
				829.3,581.2 787.2,488.5 			"/>
		</g>
		<circle class="st23" cx="829.1" cy="580.7" r="3.4"/>
		<circle class="st23" cx="829.1" cy="580.7" r="4.9"/>
		<circle class="st18" cx="829.1" cy="580.7" r="1.7"/>
	</g>
	<g>
		
			<rect x="224.8" y="492.1" transform="matrix(0.2328 -0.9725 0.9725 0.2328 -247.9265 683.7334)" class="st9" width="169.2" height="13.9"/>
		<g>
			<path class="st15" d="M297.8,584.6l-16.2-3.9l40-167.2l16.2,3.9L297.8,584.6z M284.9,578.7l10.9,2.6l38.7-161.9l-10.9-2.6
				L284.9,578.7z"/>
		</g>
		<path class="st14" d="M324.3,468.2l11.9-49.8l-6.7-1.6l-6.8-1.6l-12,49.8C315.1,466,319.7,467.1,324.3,468.2z"/>
		<path class="st15" d="M309.1,466l12.6-52.5l16.2,3.9l-12.6,52.5l-1.3-0.3c-4.6-1.1-9.2-2.2-13.6-3.2L309.1,466z M323.7,416.8
			L312.4,464c3.5,0.8,7.2,1.7,10.9,2.6l11.3-47.2L323.7,416.8z"/>
		<g>
			
				<rect x="316.1" y="416.5" transform="matrix(0.2328 -0.9725 0.9725 0.2328 -164.2255 630.3324)" class="st15" width="2.7" height="5.6"/>
		</g>
		<g>
			
				<rect x="306.2" y="457.5" transform="matrix(0.2328 -0.9725 0.9725 0.2328 -211.6504 652.2191)" class="st15" width="2.7" height="5.6"/>
		</g>
		<g>
			
				<rect x="287.7" y="437.8" transform="matrix(0.2328 -0.9725 0.9725 0.2328 -189.1581 638.6007)" class="st15" width="44.9" height="2.7"/>
		</g>
	</g>
	<polygon class="st24" points="769.4,708.9 751.5,708.9 751.5,726.8 	"/>
	<polygon class="st25" points="754.6,710.9 736.7,710.9 736.7,728.9 	"/>
	<g>
		<g>
			<line class="st22" x1="531.2" y1="581.2" x2="686.4" y2="642.1"/>
			<polygon class="st20" points="531.2,581.2 455.4,634.3 547.6,760 			"/>
			<polyline class="st20" points="531.2,581.2 479.3,762.1 547.6,760 			"/>
			<polygon class="st20" points="479.3,762.1 455.4,634.3 253.5,746.9 			"/>
			<circle class="st18" cx="498.9" cy="693.7" r="3.9"/>
			<circle class="st18" cx="547.6" cy="760" r="3.9"/>
			<circle class="st18" cx="531.2" cy="581.2" r="3.9"/>
			<polyline class="st20" points="574.9,824.6 621.9,811.6 547.6,760 686.4,642.1 498.9,693.7 326.4,636.9 			"/>
			<polygon class="st20" points="574.9,824.6 547.6,760 531,836.7 			"/>
		</g>
		<polyline class="st20" points="253.5,746.9 326.4,636.9 479.3,762.1 		"/>
	</g>
	<circle class="st20" cx="498.9" cy="693.7" r="6.6"/>
	<circle class="st18" cx="326.4" cy="636.9" r="2.8"/>
	<g>
		<polygon class="st26" points="915.6,186.2 917,194.4 909.9,192.9 		"/>
		<g>
			<g class="st17">
				<path class="st7" d="M667.7,368.2H540.1c-8,0-14.5-6.3-14.5-14l0.1-0.5l13-48.8h130.5l13.1,49.2
					C682.2,361.9,675.7,368.2,667.7,368.2z"/>
			</g>
			<g>
				<path class="st2" d="M666.7,367.1H539.1c-8,0-14.5-6.3-14.5-14l0.1-0.5l13-48.8h130.5l13.1,49.2
					C681.2,360.9,674.7,367.1,666.7,367.1z"/>
			</g>
		</g>
		<polygon class="st27" points="672,318.7 533.7,318.7 527.5,342.2 678.3,342.2 		"/>
		<path class="st2" d="M295.8,182.4c-2.2,0-3.9,0.8-4.9,2.2s-1.1,3.4-0.4,5.4l58,120.7c1.6,4.3,6.6,7.8,11.2,7.8H846
			c4.6,0,9.6-3.5,11.2-7.8l0.2,0.1l-0.2-0.1l58-120.7c0.8-2,0.6-3.9-0.4-5.4c-1-1.4-2.7-2.2-4.9-2.2H295.8z"/>
		<polygon class="st2" points="290.1,186.5 288.7,194.8 295.8,193.3 		"/>
		<g>
			<path class="st28" d="M858.1,319.2c-2,4.2-7.4,7.6-12.1,7.6H359.7c-4.6,0-10.1-3.4-12.1-7.6l-58-121.3c-2-4.2,0.2-7.6,4.8-7.6
				h616.8c4.6,0,6.8,3.4,4.8,7.6L858.1,319.2z"/>
		</g>
		
			<linearGradient id="SVGID_5_" gradientUnits="userSpaceOnUse" x1="442.2251" y1="780.125" x2="762.075" y2="460.275" gradientTransform="matrix(1 0 0 -1 0 852)">
			<stop  offset="5.076142e-03" style="stop-color:#BC79B3"/>
			<stop  offset="1" style="stop-color:#7379BA"/>
		</linearGradient>
		<polygon class="st29" points="851.1,302.7 353.2,302.7 309.9,204.2 894.4,204.2 		"/>
		<g>
			<polygon class="st2" points="351.3,326.8 854.5,326.8 862.3,310.3 343.4,310.3 			"/>
		</g>
		<polygon class="st30" points="746.4,190.3 714,190.3 558.7,300.7 591.1,300.7 		"/>
		<polygon class="st30" points="707,190.3 696.9,190.3 541.6,300.7 551.7,300.7 		"/>
	</g>
	<g>
		<g>
			<path class="st24" d="M371.1,223.7c-1.1,0-1.7,0.8-1.2,1.9l20.8,45.4c0.5,1,1.8,1.9,2.9,1.8l113.2-2.1c1.1,0,1.9-1,1.7-2.1
				l-7.2-42.9c-0.2-1.1-1.3-2-2.4-2L371.1,223.7L371.1,223.7z"/>
		</g>
		<g>
			<path class="st25" d="M365.1,236.7c-1.1,0-1.7,0.9-1.3,1.9l16.7,38.7c0.5,1,1.8,1.9,2.9,1.9h117.4c1.1,0,1.9-0.9,1.7-2l-7.1-38.4
				c-0.2-1.1-1.3-2-2.4-2L365.1,236.7L365.1,236.7z"/>
		</g>
		<polygon class="st25" points="438.5,279.2 460.2,289.6 457.2,279.2 		"/>
	</g>
	<line class="st31" x1="468.3" y1="137.8" x2="503.8" y2="207.6"/>
	<g>
		<path class="st9" d="M946.6,365.7c1.2,4.2-1.2,8.7-5.4,9.9l-13.2,3.9c-4.2,1.2-8.7-1.2-9.9-5.4l-1.2-4c-1.2-4.2,1.2-8.7,5.4-9.9
			l13.2-3.9c4.2-1.2,8.7,1.2,9.9,5.4L946.6,365.7z"/>
	</g>
	<g>
		<circle class="st18" cx="67.9" cy="306.8" r="5.1"/>
		<circle class="st18" cx="62.2" cy="291.2" r="2.3"/>
		<circle class="st18" cx="93.2" cy="314.3" r="2.3"/>
		<g>
			<g class="st19">
				<circle class="st18" cx="603.5" cy="111.1" r="7.4"/>
				<circle class="st20" cx="603.5" cy="111.1" r="18.5"/>
				<circle class="st20" cx="603.5" cy="111.1" r="26.7"/>
				<circle class="st20" cx="603.5" cy="111.1" r="15"/>
				<circle class="st18" cx="80.1" cy="195" r="7.4"/>
				<circle class="st20" cx="80.1" cy="195" r="10.7"/>
				<polyline class="st20" points="468.3,137.8 599.8,168.7 603.5,111.1 468.3,137.8 373.8,242 80.1,195 197.3,162.7 				"/>
				<polyline class="st20" points="197.3,162.7 75.4,111.1 80.1,195 67.9,306.8 373.8,242 197.3,162.7 				"/>
				<polyline class="st20" points="67.9,306.8 197.3,163.7 162.2,131.1 80.1,195 				"/>
			</g>
			<polyline class="st22" points="603.5,111.1 503.8,207.6 373.6,242 260.8,365.6 218.1,276.5 80.1,195 			"/>
			<line class="st22" x1="67.9" y1="306.8" x2="260.8" y2="365.6"/>
		</g>
		<circle class="st32" cx="217.7" cy="275.8" r="8.7"/>
		<circle class="st32" cx="217.7" cy="275.8" r="12.5"/>
		<circle class="st18" cx="217.7" cy="275.8" r="2.9"/>
		<circle class="st24" cx="373.6" cy="242" r="2.8"/>
	</g>
	<circle class="st20" cx="372.9" cy="239.4" r="18.5"/>
	<circle class="st20" cx="372.9" cy="239.4" r="26.7"/>
	<circle class="st20" cx="372.9" cy="239.4" r="15"/>
	<polygon class="st33" points="652,782.5 652,754.9 776.1,622.7 776.1,650.3 	"/>
	<polygon class="st33" points="652,801.7 652,792.3 776.1,660.2 776.1,669.5 	"/>
	<g>
		<path class="st24" d="M687.4,717.8c0,1.1,0.9,2,2,2h124.1c1.1,0,2-0.9,2-2v-68.6c0-1.1-0.9-2-2-2H689.4c-1.1,0-2,0.9-2,2V717.8z"
			/>
	</g>
	<g>
		<path class="st25" d="M681.6,710.8c0,1.1,0.9,2,2,2h124.1c1.1,0,2-0.9,2-2v-68.6c0-1.1-0.9-2-2-2H683.6c-1.1,0-2,0.9-2,2V710.8z"
			/>
	</g>
	<g>
		<line class="st4" x1="702.7" y1="661" x2="788.5" y2="661"/>
		<line class="st4" x1="702.7" y1="672" x2="788.5" y2="672"/>
		<line class="st4" x1="702.7" y1="683.1" x2="788.5" y2="683.1"/>
		<line class="st4" x1="702.7" y1="694.1" x2="788.5" y2="694.1"/>
	</g>
	<path class="st4" d="M681.6,710.9c0,1.2,0,1.9,3.5,1.9h51.6v16l16-16h57v-72.6"/>
	<g>
		<g>
			<circle class="st34" cx="683.9" cy="645.3" r="28"/>
			<circle class="st34" cx="683.9" cy="645.3" r="40.4"/>
			<circle class="st34" cx="683.9" cy="645.3" r="22.7"/>
			<circle class="st24" cx="683.9" cy="645.3" r="9.1"/>
		</g>
		<g>
			<circle class="st20" cx="683.9" cy="645.3" r="28"/>
			<circle class="st20" cx="683.9" cy="645.3" r="40.4"/>
			<circle class="st20" cx="683.9" cy="645.3" r="22.7"/>
			<circle class="st20" cx="683.9" cy="645.3" r="9.1"/>
		</g>
	</g>
	<line class="st4" x1="382.1" y1="250.5" x2="485" y2="250.5"/>
	<line class="st4" x1="385.5" y1="258.6" x2="486.7" y2="258.6"/>
	<line class="st4" x1="388.9" y1="266.7" x2="489.6" y2="266.7"/>
</g>
</svg>
