<?xml version="1.0" encoding="utf-8"?>
<!-- Generator: Adobe Illustrator 23.0.3, SVG Export Plug-In . SVG Version: 6.00 Build 0)  -->
<svg version="1.1" id="レイヤー_1" xmlns="http://www.w3.org/2000/svg" xmlns:xlink="http://www.w3.org/1999/xlink" x="0px"
	 y="0px" viewBox="0 0 1046.3 851.8" style="enable-background:new 0 0 1046.3 851.8;" xml:space="preserve">
<style type="text/css">
	.st0{opacity:5.000000e-02;fill:#1C3ED3;enable-background:new    ;}
	.st1{fill:#271F3E;}
	.st2{fill:#CDD0E0;}
	.st3{fill:url(#SVGID_1_);}
	.st4{fill:#FFFFFF;}
	.st5{opacity:0.5;}
	.st6{fill:#1C3ED3;}
	.st7{opacity:0.3;}
	.st8{fill:url(#SVGID_2_);}
	.st9{opacity:0.25;enable-background:new    ;}
	.st10{fill:#FFC987;}
	.st11{fill:url(#SVGID_3_);}
	.st12{fill:#FFD037;}
	.st13{fill:#FFE2B8;}
	.st14{fill:url(#SVGID_4_);}
	.st15{fill:url(#SVGID_5_);}
	.st16{opacity:0.42;fill:#9D438F;enable-background:new    ;}
	.st17{opacity:0.42;fill:#AE4E93;enable-background:new    ;}
	.st18{fill:#422570;}
	.st19{fill:none;stroke:#FFFFFF;stroke-width:2;stroke-linecap:round;stroke-linejoin:round;stroke-miterlimit:10;}
	.st20{opacity:0.1;enable-background:new    ;}
	
		.st21{opacity:0.2;fill:none;stroke:#1C3ED3;stroke-width:2.573;stroke-linecap:round;stroke-linejoin:round;enable-background:new    ;}
	.st22{fill:#5D4A89;}
	.st23{opacity:0.8;}
	.st24{fill:none;stroke:#5D4A89;stroke-width:0.4118;stroke-miterlimit:10;}
	.st25{fill:none;}
	.st26{opacity:0.64;fill:none;stroke:#5D4A89;stroke-width:0.4118;stroke-miterlimit:10;enable-background:new    ;}
	.st27{opacity:0.64;fill:none;stroke:#5D4A89;stroke-width:0.3081;stroke-miterlimit:10;enable-background:new    ;}
	.st28{fill:none;stroke:#5D4A89;stroke-width:0.3236;stroke-miterlimit:10;}
	.st29{fill:none;stroke:#5D4A89;stroke-width:0.3179;stroke-miterlimit:10;}
	.st30{opacity:0.64;fill:none;stroke:#5D4A89;stroke-width:0.3179;stroke-miterlimit:10;enable-background:new    ;}
	.st31{opacity:0.64;fill:none;stroke:#5D4A89;stroke-width:0.2378;stroke-miterlimit:10;enable-background:new    ;}
	.st32{opacity:0.5;fill:#1C3ED3;enable-background:new    ;}
	.st33{opacity:0.7;fill:none;stroke:#FFFFFF;stroke-width:0.5;stroke-miterlimit:10;enable-background:new    ;}
	.st34{fill:none;stroke:#FFFFFF;stroke-linecap:round;stroke-linejoin:round;stroke-miterlimit:10;}
</style>
<g id="HOMEのコピー_2">
</g>
<g id="deails">
	<path class="st0" d="M717.4,746.1c-25.2,27.6-55,49.4-88.7,64.9c-32.4,15-67.1,23.4-103,25.1c-35.9,1.7-71.2-3.4-104.8-15.2
		c-34.9-12.2-66.6-31.1-94.2-56.2c-27.6-25.1-49.4-54.8-64.7-88.3c-15-32.4-23.2-67-25-102.7c-1.6-35.9,3.7-71.1,15.5-104.7
		c12.3-34.8,31.4-66.5,56.6-94c25.2-27.6,55-49.4,88.7-64.9c32-14.7,66.2-23.1,101.5-25c39-2.1,74.7-19.6,99.9-47.3
		c13.9-15.2,24.8-33.8,31.3-54.2c0.9-2.8,1.7-5.1,2.4-7c9.2-26,23.4-49.6,42.2-70.1c18.8-20.6,41-36.8,66.2-48.3
		c24.3-11.2,50-17.5,76.8-18.6c26.8-1.3,53.1,2.6,78.3,11.4c26,9.2,49.6,23.2,70.3,41.9s36.8,40.8,48.3,65.9
		c11.2,24.2,17.3,49.9,18.5,76.7c1.2,26.7-2.8,52.9-11.6,78.1c-9.2,26-23.4,49.6-42.2,70.1c-18.8,20.6-41,36.8-66.2,48.3
		c-7.6,3.5-15.4,6.6-23.2,9.1c-24.7,8-46.2,22.1-62.9,40.5c-22.5,24.6-36.4,56.7-38,91.4c-1.2,27.1-6.4,53.8-15.5,79.5
		C761.5,686.9,742.5,718.5,717.4,746.1z"/>
	<g>
		<path class="st1" d="M640.9,634.5c0.2,18-14.2,32.7-32.2,32.9l-123.8,1.4c-18,0.2-32.7-14.2-32.9-32.2l-3.5-319.3
			c-0.2-18,14.2-32.7,32.2-32.9l123.8-1.4c18-0.2,32.7,14.2,32.9,32.2L640.9,634.5z"/>
		<g>
			<path class="st2" d="M608.7,671.1l-123.8,1.4c-20,0.2-36.4-15.8-36.6-35.8l-3.5-319.3c-0.2-20,15.8-36.4,35.8-36.6l123.8-1.4
				c20-0.2,36.4,15.8,36.6,35.8l3.5,319.3C644.7,654.5,628.7,670.9,608.7,671.1z M480.7,288c-16,0.2-28.8,13.3-28.7,29.3l3.5,319.3
				c0.2,16,13.3,28.8,29.3,28.7l123.8-1.4c16-0.2,28.8-13.3,28.7-29.3l-3.5-319.3c-0.2-16-13.3-28.8-29.3-28.7L480.7,288z"/>
		</g>
		
			<linearGradient id="SVGID_1_" gradientUnits="userSpaceOnUse" x1="423.0905" y1="498.2595" x2="666.2095" y2="255.1405" gradientTransform="matrix(1 0 0 -1 0 852)">
			<stop  offset="0" style="stop-color:#BC79B3"/>
			<stop  offset="1" style="stop-color:#7379BA"/>
		</linearGradient>
		<path class="st3" d="M624.2,630.2c0.1,11.8-9.9,21.4-22.4,21.5l-110.4,1.2c-12.5,0.1-22.7-9.3-22.9-21l-3.4-311.5
			c-0.1-11.8,9.9-21.4,22.4-21.5l110.4-1.2c12.5-0.1,22.7,9.3,22.9,21L624.2,630.2z"/>
		<path class="st1" d="M584.3,300c0.1,4.7-3.7,8.5-8.3,8.5l-66.1,0.7c-4.7,0.1-8.5-3.7-8.5-8.3l0,0c-0.1-4.7,3.7-8.5,8.3-8.5
			l66.1-0.7C580.4,291.7,584.2,295.4,584.3,300L584.3,300z"/>
	</g>
	<g>
		<path class="st4" d="M616.6,551.5c0,4.9-4,8.9-8.9,8.9H488.1c-4.9,0-8.9-4-8.9-8.9v-28.8c0-4.9,4-8.9,8.9-8.9h119.6
			c4.9,0,8.9,4,8.9,8.9L616.6,551.5L616.6,551.5z"/>
	</g>
	<g>
		<path class="st4" d="M616.6,482.5c0,4.9-4,8.9-8.9,8.9H488.1c-4.9,0-8.9-4-8.9-8.9v-28.8c0-4.9,4-8.9,8.9-8.9h119.6
			c4.9,0,8.9,4,8.9,8.9L616.6,482.5L616.6,482.5z"/>
	</g>
	<g class="st5">
		<path class="st6" d="M607.9,399.3c0,4.9-4,8.9-8.9,8.9H407.8c-4.9,0-8.9-4-8.9-8.9V333c0-4.9,4-8.9,8.9-8.9h191.3
			c4.9,0,8.9,4,8.9,8.9L607.9,399.3L607.9,399.3z"/>
	</g>
	<g class="st7">
		
			<linearGradient id="SVGID_2_" gradientUnits="userSpaceOnUse" x1="551.225" y1="95.925" x2="617.575" y2="29.575" gradientTransform="matrix(1 0 0 -1 0 852)">
			<stop  offset="0" style="stop-color:#BC79B3"/>
			<stop  offset="1" style="stop-color:#7379BA"/>
		</linearGradient>
		<path class="st8" d="M544.8,762.5v74c36.6-6.2,70.5-20.5,99.7-41v-33H544.8z"/>
		<path class="st9" d="M544.8,762.5v74c6.7-1.1,13.3-2.5,19.8-4.2v-69.8H544.8z"/>
		<path class="st10" d="M564.9,721.5L516.4,673c-5.8-5.8-5.8-15.4,0-21.2l2-2c0.2-0.2,0.5-0.4,0.7-0.6c-5.9-5.2-14.9-5-20.5,0.6
			l-2,2c-5.8,5.8-5.8,15.4,0,21.2l48.5,48.5H564.9z"/>
		
			<linearGradient id="SVGID_3_" gradientUnits="userSpaceOnUse" x1="555.4001" y1="149.3" x2="633.9999" y2="70.7" gradientTransform="matrix(1 0 0 -1 0 852)">
			<stop  offset="0" style="stop-color:#BC79B3"/>
			<stop  offset="1" style="stop-color:#7379BA"/>
		</linearGradient>
		<path class="st11" d="M654.7,758.5c0,2.8-2.2,5-5,5h-110c-2.8,0-5-2.2-5-5v-33c0-2.8,2.2-5,5-5h110c2.8,0,5,2.2,5,5V758.5z"/>
		<path class="st9" d="M554.5,758.5v-33c0-2.8,2.2-5,5-5h-19.8c-2.8,0-5,2.2-5,5v33c0,2.8,2.2,5,5,5h19.8
			C556.8,763.5,554.5,761.2,554.5,758.5z"/>
		<circle class="st12" cx="632.7" cy="742" r="9.3"/>
		<path class="st13" d="M646.3,721.5V617.6c0-8.2-6.8-15-15-15h-0.4c-6.1,0-11.4,3.7-13.7,9c-2.3-5.3-7.6-9-13.7-9H603
			c-6.1,0-11.4,3.7-13.7,9c-2.3-5.3-7.6-9-13.7-9h-0.4c-5.2,0-9.8,2.7-12.5,6.7v-48.6c0-8.2-6.8-15-15-15h-0.4c-8.2,0-15,6.8-15,15
			v101.6l-12.5-12.5c-5.8-5.8-15.4-5.8-21.2,0l-2,2c-5.8,5.8-5.8,15.4,0,21.2l48.5,48.5H646.3z"/>
	</g>
	<g>
		
			<linearGradient id="SVGID_4_" gradientUnits="userSpaceOnUse" x1="571.175" y1="97.175" x2="635.025" y2="33.325" gradientTransform="matrix(1 0 0 -1 0 852)">
			<stop  offset="0" style="stop-color:#BC79B3"/>
			<stop  offset="1" style="stop-color:#7379BA"/>
		</linearGradient>
		<path class="st14" d="M563.5,762.5v69c36.6-6.2,70.5-20.5,99.7-41v-28H563.5z"/>
		<path class="st9" d="M563.5,762.5v69c6.7-1.1,13.3-2.5,19.8-4.2v-64.8H563.5z"/>
		<path class="st10" d="M583.6,721.5L535.1,673c-5.8-5.8-5.8-15.4,0-21.2l2-2c0.2-0.2,0.5-0.4,0.7-0.6c-5.9-5.2-14.9-5-20.5,0.6
			l-2,2c-5.8,5.8-5.8,15.4,0,21.2l48.5,48.5H583.6z"/>
		
			<linearGradient id="SVGID_5_" gradientUnits="userSpaceOnUse" x1="574" y1="149.3" x2="652.6" y2="70.7" gradientTransform="matrix(1 0 0 -1 0 852)">
			<stop  offset="0" style="stop-color:#BC79B3"/>
			<stop  offset="1" style="stop-color:#7379BA"/>
		</linearGradient>
		<path class="st15" d="M673.3,758.5c0,2.8-2.2,5-5,5h-110c-2.8,0-5-2.2-5-5v-33c0-2.8,2.2-5,5-5h110c2.8,0,5,2.2,5,5V758.5z"/>
		<path class="st9" d="M573.2,758.5v-33c0-2.8,2.2-5,5-5h-19.8c-2.8,0-5,2.2-5,5v33c0,2.8,2.2,5,5,5h19.8
			C575.5,763.5,573.2,761.2,573.2,758.5z"/>
		<circle class="st12" cx="651.4" cy="742" r="9.3"/>
		<path class="st13" d="M664.9,721.5V617.6c0-8.2-6.8-15-15-15h-0.4c-6.1,0-11.4,3.7-13.7,9c-2.3-5.3-7.6-9-13.7-9h-0.4
			c-6.1,0-11.4,3.7-13.7,9c-2.3-5.3-7.6-9-13.7-9h-0.4c-5.2,0-9.8,2.7-12.5,6.7v-48.6c0-8.2-6.8-15-15-15H566c-8.2,0-15,6.8-15,15
			v101.6l-12.5-12.5c-5.8-5.8-15.4-5.8-21.2,0l-2,2c-5.8,5.8-5.8,15.4,0,21.2l48.5,48.5H664.9z"/>
	</g>
	<circle class="st16" cx="467.5" cy="537.1" r="59.8"/>
	<circle class="st17" cx="467.5" cy="537.1" r="42.1"/>
	<circle class="st18" cx="467.5" cy="537.1" r="34"/>
	<path class="st4" d="M467.5,551.8l-1-0.8c-6.2-4.8-10-7.7-12.1-11.4c-1.6-2.8-2-5.5-1.2-7.9c0.7-2,2.1-3.6,4.1-4.5
		c1-0.5,2.2-0.7,3.4-0.7c2.8,0,5.5,1.4,6.9,3.6c1.4-2.2,4.1-3.6,6.9-3.6c1.2,0,2.3,0.2,3.4,0.7c2,0.9,3.5,2.5,4.1,4.5
		c0.8,2.4,0.3,5.1-1.2,7.9c-2.2,3.8-5.9,6.7-12.1,11.4L467.5,551.8z M460.6,527.5c-1,0-2,0.2-2.9,0.6c-1.7,0.8-3,2.2-3.5,3.9
		c-0.7,2.1-0.3,4.5,1.2,7c2,3.6,5.7,6.4,11.9,11.1l0.4,0.3l0.3-0.3c6.1-4.7,9.8-7.6,11.9-11.2c1.4-2.5,1.8-4.9,1.2-7
		c-0.6-1.7-1.8-3.1-3.5-3.9c-0.9-0.4-1.9-0.6-2.9-0.6c-2.8,0-5.4,1.5-6.4,3.8l-0.5,1.1l-0.5-1.1C465.9,529,463.3,527.5,460.6,527.5z
		"/>
	<circle class="st16" cx="628.4" cy="468.1" r="59.8"/>
	<circle class="st17" cx="628.4" cy="468.1" r="42.1"/>
	<circle class="st18" cx="628.4" cy="468.1" r="34"/>
	<polyline class="st19" points="615.2,465.1 626.2,475.9 646.3,460.5 	"/>
	<g class="st20">
		<g>
			<path class="st6" d="M164.1,641.9h-21c-0.8-3-3.5-5.2-6.7-5.2s-5.9,2.2-6.7,5.2h-21c-4.8,0-8.7,3.9-8.7,8.7v72.8
				c0,4.8,3.9,8.7,8.7,8.7h55.5c4.8,0,8.7-3.9,8.7-8.7v-72.8C172.8,645.8,168.9,641.9,164.1,641.9z M136.4,640.2
				c1.9,0,3.5,1.6,3.5,3.5s-1.6,3.5-3.5,3.5s-3.5-1.6-3.5-3.5C132.9,641.7,134.5,640.2,136.4,640.2z M169.3,723.4
				c0,2.9-2.3,5.2-5.2,5.2h-55.4c-2.9,0-5.2-2.3-5.2-5.2v-72.8c0-2.9,2.3-5.2,5.2-5.2h21c0.2,0.6,0.4,1.2,0.7,1.7h-7.9
				c-1,0-1.7,0.8-1.7,1.7c0,1,0.8,1.7,1.7,1.7h27.7c1,0,1.7-0.8,1.7-1.7c0-1-0.8-1.7-1.7-1.7h-7.9c0.3-0.5,0.6-1.1,0.7-1.7h21
				c2.9,0,5.2,2.3,5.2,5.2L169.3,723.4L169.3,723.4z M150.3,655.8c1,0,1.7-0.8,1.7-1.7c0-1-0.8-1.7-1.7-1.7h-27.8
				c-1,0-1.7,0.8-1.7,1.7c0,1,0.8,1.7,1.7,1.7H150.3z M161.8,667.9h-37.6c-1,0-1.7,0.8-1.7,1.7c0,1,0.8,1.7,1.7,1.7h37.6
				c1,0,1.7-0.8,1.7-1.7C163.6,668.7,162.8,667.9,161.8,667.9z M114.2,666.2h-0.7c-1.7,0-3.1,1.4-3.1,3.1v0.7c0,1.7,1.4,3.1,3.1,3.1
				h0.7c1.7,0,3.1-1.4,3.1-3.1v-0.7C117.3,667.6,115.9,666.2,114.2,666.2z M114.2,680h-0.7c-1.7,0-3.1,1.4-3.1,3.1v0.7
				c0,1.7,1.4,3.1,3.1,3.1h0.7c1.7,0,3.1-1.4,3.1-3.1v-0.7C117.3,681.5,115.9,680,114.2,680z M114.2,693.9h-0.7
				c-1.7,0-3.1,1.4-3.1,3.1v0.7c0,1.7,1.4,3.1,3.1,3.1h0.7c1.7,0,3.1-1.4,3.1-3.1V697C117.3,695.3,115.9,693.9,114.2,693.9z
				 M114.2,707.8h-0.7c-1.7,0-3.1,1.4-3.1,3.1v0.7c0,1.7,1.4,3.1,3.1,3.1h0.7c1.7,0,3.1-1.4,3.1-3.1v-0.7
				C117.3,709.2,115.9,707.8,114.2,707.8z M161.8,681.8h-37.6c-1,0-1.7,0.8-1.7,1.7c0,1,0.8,1.7,1.7,1.7h37.6c1,0,1.7-0.8,1.7-1.7
				C163.6,682.6,162.8,681.8,161.8,681.8z M161.8,695.6h-37.6c-1,0-1.7,0.8-1.7,1.7c0,1,0.8,1.7,1.7,1.7h37.6c1,0,1.7-0.8,1.7-1.7
				C163.6,696.4,162.8,695.6,161.8,695.6z M161.8,709.5h-37.6c-1,0-1.7,0.8-1.7,1.7c0,1,0.8,1.7,1.7,1.7h37.6c1,0,1.7-0.8,1.7-1.7
				C163.6,710.3,162.8,709.5,161.8,709.5z"/>
		</g>
	</g>
	<g class="st20">
		<g>
			<path class="st6" d="M804,521.3C804,521.4,803.9,521.4,804,521.3c-0.1-0.2-0.2-0.4-0.4-0.6l-3.5-3.5v-14.3h-14l-5.1-4.7
				c-0.5-0.5-1.5-0.4-1.9,0l-5,4.7h-14v14.3l-3.6,3.6c-0.3,0.3-0.3,0.7-0.2,1c-0.1-0.1-0.1-0.1-0.2-0.2v28.9c0,2.4,2,4.4,4.4,4.4
				h39.2c2.4,0,4.4-2,4.4-4.4v-29.2C804.1,521.3,804,521.3,804,521.3z M780.1,500.1l3,2.8h-6L780.1,500.1z M762.1,504.9h36v21.5
				l-18,18l-18-17.9V504.9z M758,522l2.1-2.1v4.5l-2-2L758,522L758,522L758,522z M758.1,550.5v-25.2l13.6,13.5l-13.1,13.1
				C758.3,551.5,758.1,551,758.1,550.5z M799.7,552.9h-39.2c-0.1,0-0.1,0-0.2,0l12.7-12.7l6,6c0.2,0.2,0.5,0.3,0.7,0.3
				c0.1,0,0.2,0,0.2,0c0.1,0,0.2,0,0.2,0c0.3,0,0.5-0.1,0.7-0.3l6.1-6L799.7,552.9C799.8,552.9,799.7,552.9,799.7,552.9z
				 M802.1,550.5c0,0.5-0.2,1-0.4,1.4l-13.2-13.1l13.6-13.6L802.1,550.5L802.1,550.5z M802.1,522.4l-2,2v-4.3l2,2V522.4z
				 M776.1,510.9h8c0.6,0,1-0.4,1-1s-0.4-1-1-1h-8c-0.6,0-1,0.4-1,1S775.5,510.9,776.1,510.9z M769.1,517.9h22c0.6,0,1-0.4,1-1
				c0-0.5-0.4-1-1-1h-22c-0.6,0-1,0.4-1,1S768.5,517.9,769.1,517.9z M792.1,523.9c0-0.5-0.4-1-1-1h-22c-0.6,0-1,0.4-1,1s0.4,1,1,1
				h22C791.7,524.9,792.1,524.5,792.1,523.9z M790.1,530.9c0-0.6-0.4-1-1-1h-18c-0.6,0-1,0.5-1,1.1s0.4,0.9,1,0.9h18
				C789.7,531.9,790.1,531.5,790.1,530.9z"/>
		</g>
	</g>
	<g class="st20">
		<g>
			<path class="st6" d="M92.9,129.4l-61.6,22.9l19.8,14.8v9.7c0,0.2,0.1,0.4,0.2,0.6c0,0.1,0,0.2,0.1,0.3c0.2,0.4,0.6,0.6,1.1,0.6
				c0.2,0,0.4-0.1,0.6-0.2l7-4.3L76.5,186L92.9,129.4z M86.2,134.6L53,165.4L36.5,153L86.2,134.6z M53.6,175v-6l4.4,3.3L53.6,175z
				 M55,166.9l33.5-31.1L75.1,182L55,166.9z"/>
		</g>
	</g>
	<g class="st20">
		<g>
			<path class="st6" d="M122.3,453c-1.3-1.3-2.6-1.8-4.4-1.8H92c-1.7,0-5.3-1.6-6.4-2.7l-1.9-2.2c-2.1-2.3-6.1-4.2-9.3-4.2H60.1
				c-3.9,0-7,3.1-7,7v43.1c0,3.8,2.6,7,6.5,7H118c3.9,0,6.5-2.7,6.5-6.5v-35C124.4,455.7,123.6,454.3,122.3,453z M121.8,492.6
				c0,2.3-1.4,3.9-3.9,3.9H59.5c-2.5,0-3.9-2.1-3.9-4.4V449c0-2.5,1.9-4.4,4.4-4.4h14.3c2.5,0,5.7,1.4,7.3,3.2l1.9,2.2
				c1.6,1.8,6,3.6,8.3,3.6h25.9c1.2,0,1.8,0.3,2.6,1.2c0.8,0.8,1.3,1.6,1.3,2.7v35L121.8,492.6L121.8,492.6z M115.3,477h-11.7
				c-0.8,0-1.3,0.5-1.3,1.3s0.5,1.3,1.3,1.3h11.7c0.8,0,1.3-0.6,1.3-1.3C116.6,477.6,116,477,115.3,477z M115.3,482.2H97.2
				c-0.8,0-1.3,0.6-1.3,1.3c0,0.8,0.5,1.3,1.3,1.3h18.2c0.8,0,1.3-0.6,1.3-1.3C116.6,482.7,116,482.2,115.3,482.2z M115.3,487.4
				H97.2c-0.8,0-1.3,0.5-1.3,1.3c0,0.6,0.5,1.3,1.3,1.3h18.2c0.8,0,1.3-0.5,1.3-1.3C116.6,488,116,487.4,115.3,487.4z"/>
		</g>
	</g>
	<g class="st20">
		<g>
			<path class="st6" d="M374,607.8c-1.3-1.3-2.6-1.8-4.4-1.8h-25.9c-1.7,0-5.3-1.6-6.4-2.7l-1.9-2.2c-2.1-2.3-6.1-4.2-9.3-4.2h-14.3
				c-3.9,0-7,3.1-7,7V647c0,3.8,2.6,7,6.5,7h58.4c3.9,0,6.5-2.7,6.5-6.5v-35C376,610.5,375.3,609.1,374,607.8z M373.4,647.4
				c0,2.3-1.4,3.9-3.9,3.9h-58.4c-2.5,0-3.9-2.1-3.9-4.4v-43.1c0-2.5,1.9-4.4,4.4-4.4H326c2.5,0,5.7,1.4,7.3,3.2l1.9,2.2
				c1.6,1.8,6,3.6,8.3,3.6h25.9c1.2,0,1.8,0.3,2.6,1.2c0.8,0.8,1.3,1.6,1.3,2.7v35L373.4,647.4L373.4,647.4z M367,631.8h-11.7
				c-0.8,0-1.3,0.5-1.3,1.3s0.5,1.3,1.3,1.3H367c0.8,0,1.3-0.6,1.3-1.3C368.3,632.4,367.6,631.8,367,631.8z M367,637h-18.2
				c-0.8,0-1.3,0.6-1.3,1.3c0,0.8,0.5,1.3,1.3,1.3H367c0.8,0,1.3-0.6,1.3-1.3C368.3,637.5,367.6,637,367,637z M367,642.2h-18.2
				c-0.8,0-1.3,0.5-1.3,1.3c0,0.6,0.5,1.3,1.3,1.3H367c0.8,0,1.3-0.5,1.3-1.3C368.3,642.8,367.6,642.2,367,642.2z"/>
		</g>
	</g>
	<g class="st20">
		<g>
			<path class="st6" d="M316.9,145.8v-10.2c0-0.6-0.4-1-1-1s-1,0.4-1,1v10.1c-1.7,0.4-3,1.9-3,3.8v0.2c0,1.8,1.3,3.4,3,3.8v32.1
				c0,0.6,0.4,1,1,1s1-0.4,1-1v-32.1c1.7-0.4,3-1.9,3-3.8v-0.2C319.9,147.7,318.7,146.2,316.9,145.8z M317.9,149.8
				c0,1-0.8,1.9-1.9,1.9h-0.3c-1,0-1.9-0.8-1.9-1.9v-0.2c0-1,0.8-1.9,1.9-1.9h0.3c1,0,1.9,0.8,1.9,1.9V149.8z M332.9,155.8v-20.2
				c0-0.6-0.4-1-1-1s-1,0.4-1,1v20.1c-1.7,0.4-3,1.9-3,3.8v0.2c0,1.8,1.3,3.4,3,3.8v22.1c0,0.6,0.4,1,1,1s1-0.4,1-1v-22.1
				c1.7-0.4,3-1.9,3-3.8v-0.2C335.9,157.7,334.7,156.2,332.9,155.8z M333.9,159.8c0,1-0.8,1.9-1.9,1.9h-0.3c-1,0-1.9-0.8-1.9-1.9
				v-0.2c0-1,0.8-1.9,1.9-1.9h0.3c1,0,1.9,0.8,1.9,1.9V159.8z M348.9,165.8v-30.2c0-0.6-0.4-1-1-1s-1,0.4-1,1v30.1
				c-1.7,0.4-3,1.9-3,3.8v0.2c0,1.8,1.3,3.4,3,3.8v12.1c0,0.6,0.4,1,1,1s1-0.4,1-1v-12.1c1.7-0.4,3-1.9,3-3.8v-0.2
				C351.9,167.7,350.7,166.2,348.9,165.8z M349.9,169.8c0,1-0.8,1.9-1.9,1.9h-0.3c-1,0-1.9-0.8-1.9-1.9v-0.2c0-1,0.8-1.9,1.9-1.9
				h0.3c1,0,1.9,0.8,1.9,1.9V169.8z"/>
		</g>
	</g>
	<g class="st20">
		<g>
			<path class="st6" d="M908.8,786.2c0-0.4,0-0.8,0-1.2l0,0c0-11.6-9.5-21-21-21h-0.1c-9.8,0-18.3,6.8-20.5,16.4
				c-6.8,0.5-12.2,6.2-12.2,13.2v0.5c0,7.3,5.9,13.3,13.3,13.3h9V805h-9c-6,0-10.9-4.9-10.9-10.9v-0.5c0-5.9,4.9-10.8,10.8-10.9h1
				l0.2-1c1.6-9,9.3-15.4,18.3-15.4h0.1c10.2,0,18.6,8.4,18.6,18.6v0.1c0,0.7,0,1.4-0.1,2.1l-0.2,1.3h1.8c4.4,0,7.9,3.5,7.9,7.9v0.6
				c0,4.4-3.5,7.9-7.9,7.9h-9.7v2.3h9.7c5.7,0,10.2-4.6,10.2-10.2v-0.6C918.2,791,914.1,786.6,908.8,786.2z M888.8,792.3
				c-0.1-0.1-0.3-0.2-0.5-0.3c-0.5-0.3-1-0.2-1.4,0.2l-7,6.8c-0.5,0.5-0.5,1.2,0,1.7c0.2,0.2,0.5,0.4,0.9,0.4c0.3,0,0.6-0.1,0.8-0.3
				l5-4.9v21.8c0,0.7,0.5,1.2,1.2,1.2s1.2-0.5,1.2-1.2v-22l5.1,5.2c0.2,0.2,0.5,0.4,0.9,0.4c0.3,0,0.6-0.1,0.8-0.3
				c0.5-0.5,0.5-1.2,0-1.7L888.8,792.3z"/>
		</g>
	</g>
	<g class="st20">
		<g>
			<path class="st6" d="M662.7,83.2v63h47.2v-40.7l-21-22.3H662.7z M707.2,143.5h-42V85.8h21v22.3h21V143.5z M688.9,105.5V87.2
				l17.2,18.2h-17.2V105.5z M665.3,79.2v2.6h45.9v61.6h2.6V79.2H665.3z"/>
		</g>
	</g>
	<g class="st5">
		<path class="st21" d="M937.5,217.7v20.6c0,2.8-2.3,5.1-5.1,5.1H899c-2.8,0-5.1-2.3-5.1-5.1v-66.9c0-2.8,2.3-5.1,5.1-5.1h28.3
			 M893.7,176.5h30.9 M893.7,225.4h43.7"/>
		<circle class="st21" cx="915.6" cy="234.4" r="1.3"/>
		<path class="st21" d="M965,166.2h-37c-1.8,0-3.3,1.5-3.3,3.3l0,0v24.2c0,1.8,1.5,3.3,3.3,3.3l0,0h9.5v9l9-9H965
			c1.8,0,3.3-1.5,3.3-3.3v-24.2C968.4,167.7,966.9,166.2,965,166.2z"/>
		<circle class="st21" cx="946.5" cy="181.7" r="1.3"/>
		<circle class="st21" cx="936.2" cy="181.7" r="1.3"/>
		<circle class="st21" cx="956.8" cy="181.7" r="1.3"/>
	</g>
	<g class="st20">
		<g>
			<g>
				<path class="st6" d="M736.6,333.9c-0.5,0.6-0.5,1.5,0.1,2s1.5,0.5,2-0.1c8.2-8.8,22.5-8.8,31.9,0.1c0.3,0.3,0.7,0.4,1,0.4
					c0.4,0,0.7-0.2,1-0.5c0.5-0.6,0.5-1.5-0.1-2C762,324,745.9,324,736.6,333.9z M753.4,312.6c-10.9,0-20.9,4.3-28.1,12
					c-0.5,0.6-0.5,1.5,0.1,2s1.5,0.5,2-0.1c6.7-7.2,15.9-11.1,26.1-11.1s20,4,27.7,11.3c0.3,0.3,0.7,0.4,1,0.4c0.4,0,0.7-0.2,1-0.5
					c0.5-0.6,0.5-1.5-0.1-2C774.8,316.9,764.3,312.6,753.4,312.6z M794.3,315.3c-23.7-22.4-59.9-22.4-80.7,0c-0.5,0.6-0.5,1.5,0.1,2
					s1.5,0.5,2-0.1c19.7-21.2,54.1-21.1,76.7,0.2c0.3,0.3,0.7,0.4,1,0.4c0.4,0,0.7-0.2,1-0.5C794.9,316.8,794.9,315.9,794.3,315.3z
					 M753.3,338.1c-4.1,0-7.5,3.4-7.5,7.6s3.4,7.6,7.5,7.6s7.5-3.4,7.5-7.6S757.5,338.1,753.3,338.1z M753.3,350.3
					c-2.6,0-4.6-2.1-4.6-4.7s2.1-4.7,4.6-4.7c2.6,0,4.6,2.1,4.6,4.7C758,348.2,755.9,350.3,753.3,350.3z"/>
			</g>
		</g>
	</g>
	<g>
		<circle class="st22" cx="55.6" cy="270.6" r="6.5"/>
		<circle class="st22" cx="319.3" cy="341" r="3.5"/>
		<g>
			<g class="st23">
				<circle class="st22" cx="520.9" cy="170.1" r="9.5"/>
				
					<ellipse transform="matrix(0.1602 -0.9871 0.9871 0.1602 269.5575 657.0269)" class="st24" cx="520.9" cy="170.1" rx="23.6" ry="23.6"/>
				
					<ellipse transform="matrix(0.1602 -0.9871 0.9871 0.1602 269.5575 657.0269)" class="st24" cx="520.9" cy="170.1" rx="33.9" ry="33.9"/>
				
					<ellipse transform="matrix(0.1602 -0.9871 0.9871 0.1602 269.5575 657.0269)" class="st24" cx="520.9" cy="170.1" rx="19.1" ry="19.1"/>
				<circle class="st22" cx="115" cy="198.5" r="9.5"/>
				<circle class="st24" cx="115" cy="198.5" r="13.6"/>
				<polyline class="st24" points="241,205.4 109.1,91.8 115,198.5 25.8,444.7 319.5,341 241,205.4 406.1,221.3 478.8,16.2 
					520.9,170.1 406.1,221.3 319.5,341 115,198.5 241,205.4 				"/>
				<polyline class="st24" points="25.8,444.7 241.1,206.6 219.5,117.2 115,198.5 				"/>
				
					<rect x="93.2" y="60.6" transform="matrix(0.9645 -0.264 0.264 0.9645 -61.6386 110.9251)" class="st25" width="577.4" height="448.4"/>
			</g>
			<polyline class="st26" points="115,198.5 184,389.6 271.3,519.5 319.3,341 			"/>
			<line class="st26" x1="25.8" y1="444.7" x2="271.3" y2="519.5"/>
		</g>
		<circle class="st27" cx="183.4" cy="388.7" r="7.1"/>
		<circle class="st27" cx="183.4" cy="388.7" r="10.2"/>
		<circle class="st22" cx="183.4" cy="388.7" r="3.6"/>
	</g>
	<line class="st28" x1="219.5" y1="117.2" x2="109.1" y2="91.8"/>
	<g>
		<circle class="st22" cx="874.7" cy="561.7" r="2.7"/>
		<g>
			<g class="st23">
				<circle class="st22" cx="739.2" cy="714.2" r="7.3"/>
				<circle class="st29" cx="739.2" cy="714.2" r="18.2"/>
				<circle class="st29" cx="739.2" cy="714.2" r="26.2"/>
				<circle class="st29" cx="739.2" cy="714.2" r="14.7"/>
				<circle class="st22" cx="1046.3" cy="648.4" r="7.3"/>
				<circle class="st29" cx="1046.3" cy="648.4" r="10.5"/>
				<polyline class="st29" points="949.3,656.9 1062.5,729.3 1046.3,648.4 1087.8,450.5 874.6,561.7 949.3,656.9 821.4,662.6 
					788.2,827.3 739.2,714.2 821.4,662.6 874.6,561.7 1046.3,648.4 949.3,656.9 				"/>
				<polyline class="st29" points="1087.8,450.5 949.1,655.9 975.3,721.9 1046.3,648.4 				"/>
				
					<rect x="610.1" y="438.3" transform="matrix(0.9177 -0.3973 0.3973 0.9177 -174.3636 381.2713)" class="st25" width="445.7" height="346.2"/>
			</g>
			<polyline class="st30" points="1046.3,648.4 972.9,509.9 892,420.1 874.7,561.7 			"/>
			<line class="st30" x1="1087.8" y1="450.5" x2="892" y2="420.1"/>
		</g>
		<circle class="st31" cx="973.4" cy="510.5" r="5.5"/>
		<circle class="st31" cx="973.4" cy="510.5" r="7.9"/>
		<circle class="st22" cx="973.4" cy="510.5" r="2.8"/>
	</g>
	<polygon class="st32" points="503.4,425.9 496,408.2 452.4,408.2 	"/>
	<circle class="st33" cx="584.7" cy="383.8" r="17.7"/>
	<g>
		<polygon class="st34" points="585,372.4 576.3,392.7 585,388 		"/>
		<polygon class="st34" points="585,372.4 593.8,392.7 585,388 		"/>
	</g>
</g>
</svg>
