<?xml version="1.0" encoding="utf-8"?>
<!-- Generator: Adobe Illustrator 23.0.3, SVG Export Plug-In . SVG Version: 6.00 Build 0)  -->
<svg version="1.1" id="レイヤー_1" xmlns="http://www.w3.org/2000/svg" xmlns:xlink="http://www.w3.org/1999/xlink" x="0px"
	 y="0px" viewBox="0 0 100 100" style="enable-background:new 0 0 100 100;" xml:space="preserve">
<style type="text/css">
	.st0{fill:none;stroke:#1C3ED3;stroke-linecap:round;stroke-linejoin:round;stroke-miterlimit:10;}
</style>
<g>
	<path class="st0" d="M90,28.6c-3.3-4.8-9.5-11.9-18.9-11.9c-5.2,0-10.2,0-10.2,0c-1.2,0-2.2,0.4-2.2,1.5l0,0c0,0.5-0.4,0.9-0.9,0.9
		l-2.7,0c-0.5,0-0.9-0.4-0.9-0.9v-0.7c0-0.5-0.4-0.9-0.9-0.9l-6.7,0c-0.9,0-1.7,0.8-1.7,1.7v8.5c0,0.9,0.8,1.7,1.7,1.7l6.7,0
		c0.5,0,0.9-0.4,0.9-0.9v-0.4c0-0.5,0.4-0.9,0.9-0.9h1.3c1.8,0,2.2,1.2,2.2,2.1l0,0l0,7h12.1V32c0-1.9,1.5-3.4,3.4-3.4
		c0,0,0.9,0,1,0c6.3,0,9.7,1.4,12.8,2.7C90.1,32.2,91.7,30.4,90,28.6z"/>
	<path class="st0" d="M69.6,88.3c1.1,0,2-0.9,2-2l0-27.7c0-1.1-0.9-2-2-2h-9.9c-1.1,0-2,0.9-2,2l0,27.7c0,1.1,0.9,2,2,2L69.6,88.3z"
		/>
	<polygon class="st0" points="69.2,53.5 69.2,38.7 60.5,38.7 60.5,53.5 	"/>
</g>
<path class="st0" d="M32.5,16.6c-0.9-0.6-1.4-0.7-1.4-0.7c-0.3-0.1-0.6-0.1-0.8,0.1c-0.2,0.2-0.4,0.5-0.3,0.7l0.2,1.3l1.2,7.3
	c0.2,1.4-0.8,2.8-2.3,3l-8.8,1.5c-1.5,0.3-3-0.7-3.2-2.1l-1.3-7.5l-0.2-1.2c0-0.3-0.3-0.5-0.5-0.6c-0.3-0.1-0.6,0-0.8,0.2
	c0,0-0.6,0.4-1.2,1.3c-1.7,2.2-2.8,4.9-3,7.9c-0.3,4.2,1.3,8.1,3.9,10.9c0.8,0.8,5.2,3.7,5.2,7.6s0,37,0,37c0,3.4,2.7,6.1,6.1,6.1
	c3.4,0,6.1-2.7,6.1-6.1c0,0,0-33.9,0-37c0-3.1,3.8-7.9,4.6-8.8c1.7-2.2,2.7-4.8,2.9-7.8C39.3,24.2,36.7,19.4,32.5,16.6z M25.3,85.9
	c-1.6,0-2.9-1.3-2.9-2.9c0-1.6,1.3-2.9,2.9-2.9c1.6,0,2.9,1.3,2.9,2.9C28.3,84.6,27,85.9,25.3,85.9z"/>
</svg>
