<?xml version="1.0" encoding="utf-8"?>
<!-- Generator: Adobe Illustrator 23.0.3, SVG Export Plug-In . SVG Version: 6.00 Build 0)  -->
<svg version="1.1" id="レイヤー_1" xmlns="http://www.w3.org/2000/svg" xmlns:xlink="http://www.w3.org/1999/xlink" x="0px"
	 y="0px" viewBox="0 0 100 100" style="enable-background:new 0 0 100 100;" xml:space="preserve">
<style type="text/css">
	.st0{fill:none;stroke:#1C3ED3;stroke-miterlimit:10;}
	.st1{fill:#1C3ED3;}
	.st2{fill:#FFFFFF;stroke:#1C3ED3;stroke-linecap:round;stroke-linejoin:round;stroke-miterlimit:10;}
</style>
<path class="st0" d="M45.4,62.9l0.1,22.2c0,3.2-3.1,6.3-7,6.4l-26.7,0.1c-3.9,0-7-3.1-7-7L4.5,15.9c0-3.9,3.1-7,7-7l26.7-0.1
	c3.9,0,7,3.1,7,7l0,11"/>
<path class="st0" d="M41.8,64.4l0.1,19.1c0,2.5-2.2,4.6-4.9,4.6l-23.8,0.1c-2.7,0-4.9-2-4.9-4.6L8.1,16.6C8.1,14,10.3,12,13,12
	l23.8-0.1c2.7,0,4.9,2,4.9,4.6l0,10.2"/>
<path class="st1" d="M33.8,12.4L33.8,12.4c0,1-0.8,1.8-1.8,1.8l-14.2,0c-1,0-1.8-0.8-1.8-1.8l0,0"/>
<path class="st2" d="M80.2,47.3v12c0,1.1-0.9,2-2,2l-28.9,0l-17.5,7.4l5.4-7.3H24c-1.1,0-2-0.9-2-2V28.7c0-1.1,0.9-2,2-2h38.3"/>
<line class="st2" x1="28" y1="34.7" x2="62.2" y2="34.7"/>
<line class="st2" x1="28" y1="39.5" x2="64.2" y2="39.5"/>
<line class="st2" x1="28" y1="44.3" x2="68.6" y2="44.3"/>
<line class="st2" x1="28" y1="49.1" x2="74" y2="49.1"/>
<line class="st2" x1="28" y1="53.9" x2="74.1" y2="53.9"/>
<circle class="st2" cx="78.3" cy="30.9" r="16.5"/>
<polygon class="st2" points="79.1,19.3 70.5,39.1 79.1,34.6 "/>
<polygon class="st2" points="79.1,19.3 87.7,39.1 79.1,34.6 "/>
</svg>
