<?xml version="1.0" encoding="utf-8"?>
<!-- Generator: Adobe Illustrator 23.0.3, SVG Export Plug-In . SVG Version: 6.00 Build 0)  -->
<svg version="1.1" id="レイヤー_1" xmlns="http://www.w3.org/2000/svg" xmlns:xlink="http://www.w3.org/1999/xlink" x="0px"
	 y="0px" viewBox="0 0 100 100" style="enable-background:new 0 0 100 100;" xml:space="preserve">
<style type="text/css">
	.st0{fill:#1C3ED3;}
	.st1{fill:#FFFFFF;}
	.st2{fill:none;stroke:#1C3ED3;stroke-linecap:round;stroke-linejoin:round;}
	.st3{fill:none;stroke:#1C3ED3;stroke-linecap:round;stroke-linejoin:round;stroke-dasharray:2.012,2.012;}
	.st4{fill:none;stroke:#1C3ED3;stroke-linecap:round;stroke-linejoin:round;stroke-dasharray:1.8805,1.8805;}
	.st5{fill:none;stroke:#1C3ED3;stroke-linecap:round;stroke-linejoin:round;stroke-dasharray:2.1052,2.1052;}
	.st6{fill:#FFFFFF;stroke:#1C3ED3;stroke-miterlimit:10;}
</style>
<g>
	<path class="st0" d="M72.7,38.6H48.9v-1h23.8c0.8,0,1.5-0.7,1.5-1.5v-25c0-0.8-0.7-1.5-1.5-1.5H27.8c-0.8,0-1.5,0.7-1.5,1.5v25
		c0,0.8,0.7,1.5,1.5,1.5h10.8v1H27.8c-1.4,0-2.5-1.1-2.5-2.5v-25c0-1.4,1.1-2.5,2.5-2.5h44.9c1.4,0,2.5,1.1,2.5,2.5v25
		C75.2,37.5,74.1,38.6,72.7,38.6z"/>
</g>
<path class="st0" d="M34.1,44.8c-0.1,0-0.3-0.1-0.4-0.2c-0.1-0.2-0.1-0.4,0-0.6l4-5.4h-9.8c-1.4,0-2.5-1.1-2.5-2.5v-25
	c0-1.4,1.1-2.5,2.5-2.5h44.9c1.4,0,2.5,1.1,2.5,2.5v25c0,1.4-1.1,2.5-2.5,2.5H49l-14.7,6.2C34.2,44.8,34.2,44.8,34.1,44.8z
	 M27.8,9.6c-0.8,0-1.5,0.7-1.5,1.5v25c0,0.8,0.7,1.5,1.5,1.5h10.8c0.2,0,0.4,0.1,0.4,0.3c0.1,0.2,0.1,0.4,0,0.5l-3.5,4.7l13.1-5.5
	c0.1,0,0.1,0,0.2,0h23.8c0.8,0,1.5-0.7,1.5-1.5v-25c0-0.8-0.7-1.5-1.5-1.5C72.6,9.6,27.8,9.6,27.8,9.6z"/>
<rect x="30.9" y="15.3" class="st0" width="28.7" height="1"/>
<rect x="30.9" y="19.3" class="st0" width="30.4" height="1"/>
<rect x="30.9" y="23.3" class="st0" width="35.5" height="1"/>
<rect x="30.9" y="27.4" class="st0" width="38.6" height="1"/>
<rect x="30.9" y="31.4" class="st0" width="38.7" height="1"/>
<g>
	<line class="st1" x1="50" y1="38.5" x2="50" y2="75.3"/>
	<g>
		<line class="st2" x1="50" y1="38.5" x2="50" y2="39.5"/>
		<polyline class="st3" points="50,41.5 50,75.3 41.4,84.6 		"/>
	</g>
</g>
<g>
	<g>
		<polyline class="st4" points="7.4,76.3 14.1,68.4 14.1,57.7 86.6,57.7 86.6,60.6 86.6,68.4 76,82.3 		"/>
	</g>
</g>
<g>
	<polyline class="st4" points="14.1,83 14.1,68.4 20.6,74.9 	"/>
	<g>
		<polyline class="st2" points="14.1,69.4 14.1,68.4 14.8,69.1 		"/>
	</g>
</g>
<g>
	<line class="st3" x1="50" y1="75.3" x2="59.2" y2="85"/>
	<g>
		<line class="st5" x1="50" y1="88.9" x2="50" y2="75.3"/>
	</g>
</g>
<g>
	<polyline class="st3" points="86.6,78.6 86.6,68.4 95.4,82.1 	"/>
	<g>
		<path class="st2" d="M96,83.1"/>
	</g>
</g>
<circle class="st6" cx="5.4" cy="78.6" r="2.1"/>
<circle class="st6" cx="14.1" cy="85.1" r="2.1"/>
<circle class="st6" cx="22.1" cy="76.4" r="2.1"/>
<circle class="st6" cx="39.4" cy="86.6" r="2.8"/>
<circle class="st6" cx="50" cy="92" r="2.8"/>
<circle class="st6" cx="61.4" cy="86.7" r="2.8"/>
<circle class="st6" cx="74.7" cy="83.9" r="2.1"/>
<circle class="st6" cx="86.6" cy="80.7" r="2.1"/>
<circle class="st6" cx="96.5" cy="83.9" r="2.1"/>
</svg>
