<?xml version="1.0" encoding="utf-8"?>
<!-- Generator: Adobe Illustrator 23.0.3, SVG Export Plug-In . SVG Version: 6.00 Build 0)  -->
<svg version="1.1" id="レイヤー_1" xmlns="http://www.w3.org/2000/svg" xmlns:xlink="http://www.w3.org/1999/xlink" x="0px"
	 y="0px" viewBox="0 0 172 31" style="enable-background:new 0 0 172 31;" xml:space="preserve">
<style type="text/css">
	.st0{fill:#E50012;}
	.st1{fill:#231815;}
</style>
<g>
	<path class="st0" d="M68.5,2.3C56.3-4.9,22,13.4,0.2,30l0.2,0.3C27.8,12,51,6.2,56.9,11.4c0.1,0.1,0.3,0.2,0.4,0.4
		c-4,0.6-8.6,1.5-13.3,2.8C28.7,18.7,17,24.7,17.9,28c0.9,3.3,14,2.7,29.3-1.4c2.5-0.7,5-1.4,7.2-2.2c-1.7,2.4-3.5,4.5-4.5,5.7h18.5
		C73.2,19.5,76.6,7.1,68.5,2.3z M55.2,24c1.5-2.3,2.6-4.4,3.2-6.2c0.3-1,0.4-1.9,0.4-2.7c0-1.2-0.3-2.2-0.9-3.1
		c4.2-0.6,7.8-0.8,10.5-0.6c2.7,0.2,4.3,0.9,4.6,1.9c0,0.1,0,0.2,0,0.3C73,15.8,67.1,19.9,55.2,24z"/>
	<g>
		<path class="st1" d="M93.7,20.5h-6.2l6.4-11.7H94L93.7,20.5z M73.4,30.2h8.8l2.7-5h8.6l-0.1,5h8.8L100.8,4H90.2L73.4,30.2z"/>
		<path class="st1" d="M112.1,4h8.5L113,30.2h-8.5L112.1,4z"/>
		<path class="st1" d="M126.1,22.2l-0.3,0.9c-0.6,2-0.3,3.5,2.7,3.5c3,0,4.3-1.6,4.7-3.1c1.7-5.7-14.8-2.5-11.9-12.3
			c1.2-4.2,5.3-7.7,14.1-7.7c8.5,0,10.6,3.1,9.4,7.2l-0.2,0.6h-8.2c0.4-1.2,0.4-2.2,0.1-2.8c-0.3-0.6-1-0.9-2.3-0.9
			c-2.1,0-3.6,0.9-4.2,2.8c-1.6,5.5,14.7,2.7,12,12c-1.7,5.9-7,8.3-14.8,8.3c-6.2,0-11.5-1.4-9.9-6.8l0.5-1.7H126.1z"/>
		<path class="st1" d="M154.5,9h-7.6l1.5-5H172l-1.5,5h-7.6l-6.2,21.2h-8.5L154.5,9z"/>
	</g>
</g>
</svg>
