<?xml version="1.0" encoding="utf-8"?>
<!-- Generator: Adobe Illustrator 22.1.0, SVG Export Plug-In . SVG Version: 6.00 Build 0)  -->
<svg version="1.1" id="レイヤー_1" xmlns="http://www.w3.org/2000/svg" xmlns:xlink="http://www.w3.org/1999/xlink" x="0px"
	 y="0px" viewBox="0 0 241.9 44" style="enable-background:new 0 0 241.9 44;" xml:space="preserve">
<style type="text/css">
	.st0{enable-background:new    ;}
	.st1{fill:#45454A;}
	.st2{fill:#1C3ED3;}
</style>
<title>logo</title>
<desc>Created with Sketch.</desc>
<g class="st0">
	<path class="st1" d="M0,16.2h8.2v1.2c-1.1,0-1.8,0.1-2.1,0.3c-0.3,0.2-0.5,0.4-0.5,0.7c0,0.3,0.1,0.5,0.2,0.8l4.4,9.9l4-9.6
		c0.2-0.2,0.2-0.3,0.2-0.5c0-0.9-0.9-1.4-2.6-1.6v-1.2h6.9v1.2C18,17.5,17.4,17.7,17,18c-0.4,0.3-0.7,0.7-1,1.2L9.9,33.4h-1
		L2.5,18.8c-0.2-0.5-0.5-0.9-0.9-1.1c-0.3-0.2-0.9-0.3-1.6-0.3C0,17.4,0,16.2,0,16.2z"/>
	<path class="st1" d="M28.3,15.7c2.2,0,4.1,0.8,5.7,2.4c1.5,1.6,2.3,3.8,2.3,6.4c0,1.8-0.3,3.4-1,4.7c-0.7,1.3-1.7,2.3-2.9,3.1
		c-1.2,0.8-2.6,1.1-4.1,1.1c-2.2,0-4-0.8-5.5-2.5c-1.5-1.6-2.3-3.8-2.3-6.4s0.8-4.8,2.3-6.4S26.1,15.7,28.3,15.7z M28.3,16.9
		c-1.3,0-2.4,0.6-3.3,1.8c-0.9,1.2-1.3,3.1-1.3,5.7c0,2.7,0.4,4.6,1.3,5.8c0.9,1.2,1.9,1.8,3.3,1.8s2.5-0.6,3.4-1.8
		c0.9-1.2,1.3-3.2,1.3-6c0-2.6-0.4-4.5-1.3-5.6C30.8,17.5,29.7,16.9,28.3,16.9z"/>
	<path class="st1" d="M43.1,9.4h1.2v6.8h5.4v1.6h-5.4v10.7c0,0.9,0.2,1.6,0.7,2.1s1,0.7,1.7,0.7c0.8,0,1.5-0.4,2.1-1.1s0.9-2,1-3.7
		H51c-0.1,2.2-0.6,3.9-1.5,5c-0.9,1.1-2.2,1.6-3.7,1.6c-1.4,0-2.5-0.4-3.2-1.1s-1.2-1.7-1.2-3V17.8h-3v-1.2c1.3-0.2,2.3-0.8,3-1.7
		C42.4,13.6,43,11.7,43.1,9.4z"/>
	<path class="st1" d="M68.6,24.7h-12c0.1,2.5,0.5,4.3,1.4,5.4c1,1.2,2.3,1.8,3.9,1.8c2.3,0,4.2-1.3,5.6-4l1.2,0.5
		c-1.7,3.4-4.2,5.1-7.5,5.1c-2.2,0-4.1-0.8-5.7-2.4c-1.5-1.6-2.3-3.7-2.3-6.2c0-2.7,0.8-4.9,2.3-6.6s3.4-2.5,5.6-2.5
		c1.6,0,3,0.4,4.2,1.2c1.2,0.8,2.1,2,2.7,3.6C68.3,21.6,68.6,23,68.6,24.7z M56.6,23.4h7.2c0.4,0,0.8-0.1,1-0.4s0.4-0.8,0.4-1.5
		c0-1.3-0.4-2.4-1.2-3.3c-0.8-0.9-1.8-1.4-2.9-1.4c-1.2,0-2.3,0.6-3.2,1.7C57.1,19.5,56.6,21.2,56.6,23.4z"/>
</g>
<g class="st0">
	<path class="st2" d="M86.1,27.9l1.2,0.3c-0.9,3.4-3,5.1-6.1,5.1c-2.3,0-4.2-0.8-5.7-2.3s-2.2-3.6-2.2-6.1c0-3,0.8-5.2,2.4-6.9
		c1.6-1.6,3.5-2.4,5.7-2.4c1.6,0,3,0.5,4.1,1.4s1.6,1.9,1.6,3c0,0.7-0.2,1.2-0.6,1.7s-0.9,0.7-1.4,0.7s-1-0.2-1.4-0.6
		s-0.6-0.8-0.6-1.3s0.2-1,0.6-1.5c0.2-0.2,0.3-0.4,0.3-0.5c0-0.3-0.2-0.7-0.7-1S82.2,17,81.4,17c-1.5,0-2.6,0.5-3.3,1.6
		c-1.1,1.5-1.6,3.6-1.6,6.1c0,2.4,0.5,4.2,1.4,5.4s2.2,1.8,3.6,1.8C83.6,31.9,85.1,30.6,86.1,27.9z"/>
	<path class="st2" d="M95.9,6.2v24.2c0,0.3,0.1,0.6,0.3,0.8c0.3,0.2,0.7,0.4,1.1,0.4h1.8v1.3h-9.5v-1.3h1.7c0.5,0,1-0.1,1.2-0.4
		c0.3-0.3,0.4-0.6,0.4-1.1V9.7c0-0.6-0.2-1-0.5-1.3c-0.4-0.4-1-0.6-1.6-0.6h-1.5V6.5L95.9,6.2z"/>
	<path class="st2" d="M106.8,15.9V27c0,1.4,0.3,2.4,1,3.1s1.6,1.1,2.6,1.1c1.3,0,2.5-0.5,3.4-1.6s1.4-2.4,1.4-4v-6.3
		c0-0.6-0.2-1-0.6-1.3s-1.2-0.5-2.4-0.5v-1.2l5.9-0.3v13.7c0,0.6,0.2,1.1,0.5,1.5c0.4,0.3,0.9,0.5,1.5,0.5h1.1v1.2l-5.6,0.1
		l-0.4-3.3c-1,1.2-2,2.1-3,2.7c-1,0.6-2,0.9-3.1,0.9c-1.5,0-2.8-0.5-3.8-1.5s-1.6-2.7-1.6-5.1v-7.3c0-0.6-0.3-1.1-0.8-1.5
		c-0.4-0.2-1.1-0.4-2.2-0.4v-1.2L106.8,15.9z"/>
	<path class="st2" d="M125.4,26.6c0.7,2.1,1.6,3.5,2.5,4.3c1,0.8,2.1,1.2,3.5,1.2c1.3,0,2.3-0.3,3-0.8s1-1.3,1-2.2
		c0-0.5-0.1-0.9-0.4-1.3s-0.6-0.7-1.1-0.8s-1.6-0.5-3.5-0.8c-1.8-0.4-3.1-0.7-3.8-1.1s-1.3-0.9-1.7-1.6s-0.6-1.4-0.6-2.2
		c0-1.2,0.4-2.3,1.2-3.3c1.1-1.3,2.5-1.9,4.5-1.9c1.5,0,2.8,0.5,4,1.4l1.4-1.5h0.7l0.5,6h-1.2c-0.5-1.7-1.2-2.9-2.1-3.7
		s-2-1.1-3.3-1.1c-1.1,0-2,0.3-2.7,0.8c-0.6,0.6-1,1.2-1,2c0,0.7,0.3,1.3,0.9,1.8c0.6,0.5,1.7,0.9,3.4,1.1c2,0.3,3.3,0.6,3.9,0.8
		c1,0.4,1.7,0.9,2.3,1.7c0.5,0.7,0.8,1.7,0.8,2.7c0,1.5-0.6,2.7-1.7,3.7c-1.2,1-2.6,1.5-4.4,1.5c-1.7,0-3.2-0.5-4.6-1.6l-1.3,1.5
		h-0.9l-0.4-6.7h1.1V26.6z"/>
	<path class="st2" d="M144.8,9.4h1.2v6.8h5.4v1.6H146v10.7c0,0.9,0.2,1.6,0.7,2.1s1,0.7,1.7,0.7c0.8,0,1.5-0.4,2.1-1.1s0.9-2,1-3.7
		h1.2c-0.1,2.2-0.6,3.9-1.5,5c-0.9,1.1-2.2,1.6-3.7,1.6c-1.4,0-2.5-0.4-3.2-1.1c-0.8-0.8-1.2-1.7-1.2-3V17.8h-2.9v-1.2
		c1.3-0.2,2.3-0.8,3-1.7C144.1,13.6,144.7,11.7,144.8,9.4z"/>
	<path class="st2" d="M170.3,24.7h-12c0.1,2.5,0.5,4.3,1.4,5.4c1,1.2,2.3,1.8,3.9,1.8c2.3,0,4.2-1.3,5.6-4l1.2,0.5
		c-1.7,3.4-4.2,5.1-7.5,5.1c-2.2,0-4.1-0.8-5.7-2.4c-1.5-1.6-2.3-3.7-2.3-6.2c0-2.7,0.8-4.9,2.3-6.6s3.4-2.5,5.6-2.5
		c1.6,0,3,0.4,4.2,1.2c1.2,0.8,2.1,2,2.7,3.6C170,21.6,170.2,23,170.3,24.7z M158.3,23.4h7.2c0.4,0,0.8-0.1,1-0.4s0.4-0.8,0.4-1.5
		c0-1.3-0.4-2.4-1.2-3.3s-1.8-1.4-2.9-1.4c-1.2,0-2.3,0.6-3.2,1.7C158.8,19.5,158.3,21.2,158.3,23.4z"/>
	<path class="st2" d="M172.6,16.2l6-0.3v6.8c0.6-2.2,1.4-3.9,2.3-5.1c0.9-1.1,2-1.7,3.4-1.7c0.9,0,1.6,0.3,2.2,0.8
		c0.5,0.6,0.8,1.3,0.8,2.2c0,0.8-0.2,1.3-0.5,1.8c-0.4,0.4-0.8,0.6-1.4,0.6c-0.5,0-1-0.2-1.3-0.5c-0.3-0.4-0.5-0.8-0.5-1.4
		c0-0.4,0.1-0.8,0.3-1.1c0.2-0.3,0.3-0.5,0.3-0.6c0-0.2-0.1-0.3-0.3-0.3c-0.5,0-1,0.3-1.7,0.9c-0.9,0.8-1.5,1.9-2,3.3
		c-0.7,2.2-1.1,3.9-1.1,5.2v3.6c0,0.4,0.1,0.7,0.4,0.9c0.3,0.2,0.8,0.3,1.5,0.3h2.1v1.3h-10.4v-1.3h1.7c0.6,0,1-0.1,1.3-0.3
		c0.3-0.2,0.4-0.5,0.4-0.8V19.8c0-0.8-0.2-1.4-0.5-1.8s-0.8-0.6-1.5-0.6h-1.5V16.2z"/>
	<path class="st2" d="M188.8,16.2l6.6-0.2v14.4c0,0.4,0.1,0.7,0.3,0.8c0.3,0.2,0.6,0.4,1,0.4h1.9v1.3h-9.5v-1.3h1.8
		c0.5,0,0.9-0.1,1.2-0.4s0.4-0.6,0.4-1.1V19.5c0-0.7-0.2-1.2-0.6-1.5c-0.4-0.3-0.9-0.5-1.7-0.5h-1.4V16.2z M193.4,6.2
		c0.5,0,1,0.2,1.4,0.6s0.6,0.9,0.6,1.4s-0.2,1-0.6,1.4c-0.4,0.4-0.9,0.6-1.4,0.6s-1-0.2-1.4-0.6c-0.4-0.4-0.6-0.9-0.6-1.4
		s0.2-1,0.6-1.4C192.4,6.4,192.9,6.2,193.4,6.2z"/>
	<path class="st2" d="M200.6,16.2l5.6-0.3c0.2,1,0.4,2.3,0.5,3.7c0.8-1.2,1.6-2.1,2.7-2.7c1-0.6,2.2-0.9,3.5-0.9
		c1.1,0,2,0.2,2.8,0.7c0.8,0.4,1.4,1.1,1.8,2.1s0.7,2,0.7,3.2v8.1c0,0.6,0.1,1,0.4,1.3c0.3,0.3,0.7,0.4,1.4,0.4h1.2v1.3h-8.8v-1.3
		h0.8c0.8,0,1.3-0.1,1.6-0.4s0.5-0.6,0.5-1.1v-7.2c0-1.6-0.2-2.7-0.7-3.5c-0.7-1.1-1.7-1.6-3-1.6s-2.5,0.5-3.4,1.6s-1.3,2.5-1.3,4.2
		V30c0,0.6,0.1,1,0.4,1.3c0.3,0.3,0.7,0.4,1.4,0.4h1.2V33H201v-1.3h1.2c0.6,0,1-0.1,1.3-0.4c0.3-0.2,0.5-0.5,0.5-0.9V19.5
		c0-0.7-0.2-1.3-0.6-1.6s-0.9-0.6-1.7-0.6h-0.9v-1.1H200.6z"/>
	<path class="st2" d="M235.8,17.1c1.2-1.2,2.3-1.8,3.3-1.8c0.6,0,1.1,0.2,1.5,0.6c0.4,0.4,0.6,0.8,0.6,1.4c0,0.4-0.1,0.8-0.4,1.1
		c-0.3,0.3-0.6,0.4-0.9,0.4c-0.7,0-1.1-0.4-1.4-1.2c-0.1-0.4-0.3-0.5-0.5-0.5c-0.4,0-0.8,0.3-1.3,0.8c0.5,0.7,0.9,1.3,1.1,1.8
		s0.3,1.1,0.3,1.7c0,1-0.2,1.9-0.8,2.7s-1.3,1.5-2.5,2.1s-2.3,0.9-3.3,0.9h-2.1c-1.4,0-2.3,0.1-2.8,0.4s-0.7,0.7-0.7,1.3
		c0,0.5,0.2,0.8,0.6,1.1s1.1,0.4,2.1,0.4l4.4-0.1c2.2,0,3.8,0.4,4.8,1.1s1.5,1.8,1.5,3.1c0,1.4-0.6,2.6-1.7,3.6
		c-1.6,1.4-3.9,2.1-7,2.1c-2.6,0-4.5-0.5-5.7-1.4c-1-0.7-1.5-1.6-1.5-2.5c0-0.7,0.3-1.3,0.9-1.9c0.6-0.6,1.7-1,3.2-1.3
		c-1.2-0.3-2.1-0.7-2.7-1.3c-0.6-0.6-0.9-1.2-0.9-2.1c0-0.8,0.2-1.4,0.7-2s1.3-1.1,2.5-1.5c-1-0.6-1.8-1.2-2.3-2s-0.8-1.7-0.8-2.7
		c0-1.6,0.6-3,1.9-4.1c1.3-1.1,2.9-1.6,5-1.6c0.8,0,1.6,0.1,2.4,0.4C234.3,16.3,235,16.6,235.8,17.1z M232.1,32.9
		c-2.2,0-3.8,0.3-4.7,0.9c-0.9,0.6-1.4,1.3-1.4,2.2c0,0.8,0.4,1.4,1.1,1.9c0.9,0.6,2.2,0.9,4,0.9c2,0,3.6-0.3,4.6-1s1.6-1.4,1.6-2.3
		c0-0.5-0.2-0.9-0.5-1.4c-0.3-0.4-0.8-0.7-1.5-1C234.5,33,233.5,32.9,232.1,32.9z M231.1,16.8c-1.1,0-1.9,0.4-2.6,1.2
		c-0.7,0.8-1,1.9-1,3.3c0,1.5,0.3,2.7,1,3.5s1.6,1.2,2.6,1.2s1.9-0.4,2.6-1.2s1-2,1-3.5c0-1.4-0.3-2.5-1-3.3S232.1,16.8,231.1,16.8z
		"/>
</g>
</svg>
