<?xml version="1.0" encoding="utf-8"?>
<!-- Generator: Adobe Illustrator 23.0.3, SVG Export Plug-In . SVG Version: 6.00 Build 0)  -->
<svg version="1.1" id="レイヤー_1" xmlns="http://www.w3.org/2000/svg" xmlns:xlink="http://www.w3.org/1999/xlink" x="0px"
	 y="0px" viewBox="0 0 100 78.8" style="enable-background:new 0 0 100 78.8;" xml:space="preserve">
<style type="text/css">
	.st0{opacity:5.000000e-02;fill:#1C3ED3;enable-background:new    ;}
	.st1{fill:none;stroke:#1C3ED3;stroke-width:0.75;stroke-linecap:round;stroke-linejoin:round;stroke-miterlimit:10;}
	.st2{fill:#1C3ED3;}
	.st3{fill:#FFFFFF;stroke:#1C3ED3;stroke-linecap:round;stroke-linejoin:round;stroke-miterlimit:10;}
	.st4{fill:#FFFFFF;stroke:#1C3ED3;stroke-width:0.75;stroke-miterlimit:10;}
</style>
<g>
	<circle class="st0" cx="50" cy="37.1" r="33.4"/>
</g>
<polygon class="st1" points="60.3,38.1 37.6,38.1 35.2,48.1 61.9,48.1 "/>
<circle class="st2" cx="47.9" cy="34.8" r="7.5"/>
<path class="st3" d="M48.3,33.4c-0.6-0.7-1.3-1.3-2.1-1.3c-0.3,0-0.6,0.1-0.9,0.2c-0.5,0.2-0.9,0.7-1,1.2c-0.2,0.6-0.1,1.3,0.4,2.1
	c0.6,1.1,1.7,1.9,3.6,3.3l0.1,0.1l0.1-0.1c1.8-1.4,2.9-2.3,3.6-3.3c0.4-0.7,0.5-1.5,0.4-2.1c-0.2-0.5-0.5-0.9-1-1.2
	c-0.3-0.1-0.6-0.2-0.9-0.2C49.5,32.1,48.7,32.8,48.3,33.4z"/>
<polyline class="st1" points="61.9,55.5 61.9,48.1 35.2,48.1 35.2,55.5 "/>
<polygon class="st1" points="40.1,41.2 39.5,45 58.2,45 57.6,41.2 "/>
<path class="st4" d="M55.4,20.3l-4,1.6c0,0-5,2.2-6,3.6c-1.1,1.4-1.2,3.6-1.2,3.6l5.3-1.8c0,0,0.6-0.2,0.3,0.8s-1.3,3-1.7,3.6
	c-0.4,0.8,0.4,1.6,1.3,0.6c1-1.1,3.5-3.7,4.2-5.1c0.6-1.2,0.5-2,0.5-2l2.8-1.1"/>
<polyline class="st1" points="59.6,17.1 54.8,18.9 57.3,26 61.9,24.2 "/>
</svg>
