<?xml version="1.0" encoding="utf-8"?>
<!-- Generator: Adobe Illustrator 23.0.3, SVG Export Plug-In . SVG Version: 6.00 Build 0)  -->
<svg version="1.1" id="レイヤー_1" xmlns="http://www.w3.org/2000/svg" xmlns:xlink="http://www.w3.org/1999/xlink" x="0px"
	 y="0px" viewBox="0 0 100 78.8" style="enable-background:new 0 0 100 78.8;" xml:space="preserve">
<style type="text/css">
	.st0{opacity:5.000000e-02;fill:#1C3ED3;enable-background:new    ;}
	.st1{fill:#1C3ED3;}
	.st2{fill:#FFFFFF;}
</style>
<g>
	<circle class="st0" cx="50" cy="37.1" r="33.4"/>
</g>
<path class="st1" d="M62.3,55.7h-3.8v-0.3c0-0.4-0.4-0.8-0.8-0.8H42.1c-0.4,0-0.8,0.4-0.8,0.8v0.3h-3.7V18.4h24.7V55.7z M59.1,55.1
	h2.6V19H38.2v36.1h2.5c0.1-0.6,0.7-1.1,1.4-1.1h15.6C58.4,54,58.9,54.5,59.1,55.1z"/>
<path class="st1" d="M60.5,27.1H56v-5.4h4.5V27.1z M56.6,26.5h3.3v-4.2h-3.3V26.5z"/>
<path class="st1" d="M55.4,41.9H39.9V21.1h15.5V41.9z M40.5,41.3h14.3V21.7H40.5V41.3z"/>
<path class="st1" d="M56.4,50.3H39.6v-4.7h16.8V50.3z M40.2,49.7h15.6v-3.5H40.2V49.7z"/>
<path class="st1" d="M60.4,31.4H56v-3.9h4.4V31.4z M56.6,30.8h3.2v-2.7h-3.2V30.8z"/>
<g>
	<g>
		<rect x="41.8" y="23.5" class="st2" width="2.2" height="4"/>
		<path class="st1" d="M44.3,27.8h-2.8v-4.6h2.8V27.8z M42.1,27.2h1.6v-3.4h-1.6V27.2z"/>
	</g>
	<g>
		<rect x="45" y="23.5" class="st2" width="2.2" height="4"/>
		<path class="st1" d="M47.5,27.8h-2.8v-4.6h2.8V27.8z M45.3,27.2h1.6v-3.4h-1.6V27.2z"/>
	</g>
	<g>
		<rect x="48.2" y="23.5" class="st2" width="2.2" height="4"/>
		<path class="st1" d="M50.7,27.8h-2.8v-4.6h2.8V27.8z M48.5,27.2h1.6v-3.4h-1.6V27.2z"/>
	</g>
	<g>
		<rect x="51.3" y="23.5" class="st2" width="2.2" height="4"/>
		<path class="st1" d="M53.8,27.8H51v-4.6h2.8V27.8z M51.6,27.2h1.6v-3.4h-1.6V27.2z"/>
	</g>
</g>
<g>
	<g>
		<rect x="41.8" y="28.5" class="st2" width="2.2" height="4"/>
		<path class="st1" d="M44.3,32.8h-2.8v-4.6h2.8V32.8z M42.1,32.2h1.6v-3.4h-1.6V32.2z"/>
	</g>
	<g>
		<rect x="45" y="28.5" class="st2" width="2.2" height="4"/>
		<path class="st1" d="M47.5,32.8h-2.8v-4.6h2.8V32.8z M45.3,32.2h1.6v-3.4h-1.6V32.2z"/>
	</g>
	<g>
		<rect x="48.2" y="28.5" class="st2" width="2.2" height="4"/>
		<path class="st1" d="M50.7,32.8h-2.8v-4.6h2.8V32.8z M48.5,32.2h1.6v-3.4h-1.6V32.2z"/>
	</g>
	<g>
		<rect x="51.3" y="28.5" class="st2" width="2.2" height="4"/>
		<path class="st1" d="M53.8,32.8H51v-4.6h2.8V32.8z M51.6,32.2h1.6v-3.4h-1.6V32.2z"/>
	</g>
</g>
<g>
	<g>
		<rect x="41.8" y="33.6" class="st2" width="2.2" height="4"/>
		<path class="st1" d="M44.3,37.9h-2.8v-4.6h2.8V37.9z M42.1,37.3h1.6v-3.4h-1.6V37.3z"/>
	</g>
	<g>
		<rect x="45" y="33.6" class="st2" width="2.2" height="4"/>
		<path class="st1" d="M47.5,37.9h-2.8v-4.6h2.8V37.9z M45.3,37.3h1.6v-3.4h-1.6V37.3z"/>
	</g>
	<g>
		<rect x="48.2" y="33.6" class="st2" width="2.2" height="4"/>
		<path class="st1" d="M50.7,37.9h-2.8v-4.6h2.8V37.9z M48.5,37.3h1.6v-3.4h-1.6V37.3z"/>
	</g>
	<g>
		<rect x="51.3" y="33.6" class="st2" width="2.2" height="4"/>
		<path class="st1" d="M53.8,37.9H51v-4.6h2.8V37.9z M51.6,37.3h1.6v-3.4h-1.6V37.3z"/>
	</g>
</g>
<rect x="39.9" y="47.6" class="st1" width="16.3" height="0.6"/>
</svg>
